G04 #@! TF.GenerationSoftware,KiCad,Pcbnew,5.1.6*
G04 #@! TF.CreationDate,2020-07-26T18:06:21+03:00*
G04 #@! TF.ProjectId,kicad-hamster-esp8266,6b696361-642d-4686-916d-737465722d65,rev?*
G04 #@! TF.SameCoordinates,Original*
G04 #@! TF.FileFunction,Soldermask,Bot*
G04 #@! TF.FilePolarity,Negative*
%FSLAX46Y46*%
G04 Gerber Fmt 4.6, Leading zero omitted, Abs format (unit mm)*
G04 Created by KiCad (PCBNEW 5.1.6) date 2020-07-26 18:06:21*
%MOMM*%
%LPD*%
G01*
G04 APERTURE LIST*
%ADD10R,1.100000X2.600000*%
%ADD11R,1.900000X1.100000*%
%ADD12O,1.800000X1.800000*%
%ADD13R,1.800000X1.800000*%
%ADD14R,2.600000X2.100000*%
%ADD15C,1.700000*%
%ADD16R,1.700000X1.700000*%
%ADD17C,2.500000*%
%ADD18O,2.300000X2.300000*%
%ADD19R,2.300000X2.300000*%
%ADD20R,2.700000X2.700000*%
%ADD21C,2.700000*%
G04 APERTURE END LIST*
D10*
X179268000Y-68092000D03*
X177268000Y-68092000D03*
X175268000Y-68092000D03*
X173268000Y-68092000D03*
X171268000Y-68092000D03*
X169268000Y-68092000D03*
X167268000Y-68092000D03*
X165268000Y-68092000D03*
D11*
X163768000Y-70692000D03*
X163768000Y-72692000D03*
X163768000Y-74692000D03*
X163768000Y-76692000D03*
X163768000Y-78692000D03*
X163768000Y-80692000D03*
D10*
X165268000Y-83292000D03*
X167268000Y-83292000D03*
X169268000Y-83292000D03*
X171268000Y-83292000D03*
X173268000Y-83292000D03*
X175268000Y-83292000D03*
X177268000Y-83292000D03*
X179268000Y-83292000D03*
G36*
G01*
X157279000Y-74089000D02*
X157279000Y-73739000D01*
G75*
G02*
X157454000Y-73564000I175000J0D01*
G01*
X159154000Y-73564000D01*
G75*
G02*
X159329000Y-73739000I0J-175000D01*
G01*
X159329000Y-74089000D01*
G75*
G02*
X159154000Y-74264000I-175000J0D01*
G01*
X157454000Y-74264000D01*
G75*
G02*
X157279000Y-74089000I0J175000D01*
G01*
G37*
G36*
G01*
X157279000Y-72819000D02*
X157279000Y-72469000D01*
G75*
G02*
X157454000Y-72294000I175000J0D01*
G01*
X159154000Y-72294000D01*
G75*
G02*
X159329000Y-72469000I0J-175000D01*
G01*
X159329000Y-72819000D01*
G75*
G02*
X159154000Y-72994000I-175000J0D01*
G01*
X157454000Y-72994000D01*
G75*
G02*
X157279000Y-72819000I0J175000D01*
G01*
G37*
G36*
G01*
X157279000Y-71549000D02*
X157279000Y-71199000D01*
G75*
G02*
X157454000Y-71024000I175000J0D01*
G01*
X159154000Y-71024000D01*
G75*
G02*
X159329000Y-71199000I0J-175000D01*
G01*
X159329000Y-71549000D01*
G75*
G02*
X159154000Y-71724000I-175000J0D01*
G01*
X157454000Y-71724000D01*
G75*
G02*
X157279000Y-71549000I0J175000D01*
G01*
G37*
G36*
G01*
X157279000Y-70279000D02*
X157279000Y-69929000D01*
G75*
G02*
X157454000Y-69754000I175000J0D01*
G01*
X159154000Y-69754000D01*
G75*
G02*
X159329000Y-69929000I0J-175000D01*
G01*
X159329000Y-70279000D01*
G75*
G02*
X159154000Y-70454000I-175000J0D01*
G01*
X157454000Y-70454000D01*
G75*
G02*
X157279000Y-70279000I0J175000D01*
G01*
G37*
G36*
G01*
X152329000Y-70279000D02*
X152329000Y-69929000D01*
G75*
G02*
X152504000Y-69754000I175000J0D01*
G01*
X154204000Y-69754000D01*
G75*
G02*
X154379000Y-69929000I0J-175000D01*
G01*
X154379000Y-70279000D01*
G75*
G02*
X154204000Y-70454000I-175000J0D01*
G01*
X152504000Y-70454000D01*
G75*
G02*
X152329000Y-70279000I0J175000D01*
G01*
G37*
G36*
G01*
X152329000Y-71549000D02*
X152329000Y-71199000D01*
G75*
G02*
X152504000Y-71024000I175000J0D01*
G01*
X154204000Y-71024000D01*
G75*
G02*
X154379000Y-71199000I0J-175000D01*
G01*
X154379000Y-71549000D01*
G75*
G02*
X154204000Y-71724000I-175000J0D01*
G01*
X152504000Y-71724000D01*
G75*
G02*
X152329000Y-71549000I0J175000D01*
G01*
G37*
G36*
G01*
X152329000Y-72819000D02*
X152329000Y-72469000D01*
G75*
G02*
X152504000Y-72294000I175000J0D01*
G01*
X154204000Y-72294000D01*
G75*
G02*
X154379000Y-72469000I0J-175000D01*
G01*
X154379000Y-72819000D01*
G75*
G02*
X154204000Y-72994000I-175000J0D01*
G01*
X152504000Y-72994000D01*
G75*
G02*
X152329000Y-72819000I0J175000D01*
G01*
G37*
G36*
G01*
X152329000Y-74089000D02*
X152329000Y-73739000D01*
G75*
G02*
X152504000Y-73564000I175000J0D01*
G01*
X154204000Y-73564000D01*
G75*
G02*
X154379000Y-73739000I0J-175000D01*
G01*
X154379000Y-74089000D01*
G75*
G02*
X154204000Y-74264000I-175000J0D01*
G01*
X152504000Y-74264000D01*
G75*
G02*
X152329000Y-74089000I0J175000D01*
G01*
G37*
D12*
X173736000Y-60325000D03*
D13*
X171196000Y-60325000D03*
D14*
X141446000Y-73279000D03*
X147606000Y-73279000D03*
G36*
G01*
X186399000Y-89557456D02*
X186399000Y-88242544D01*
G75*
G02*
X186666544Y-87975000I267544J0D01*
G01*
X187656456Y-87975000D01*
G75*
G02*
X187924000Y-88242544I0J-267544D01*
G01*
X187924000Y-89557456D01*
G75*
G02*
X187656456Y-89825000I-267544J0D01*
G01*
X186666544Y-89825000D01*
G75*
G02*
X186399000Y-89557456I0J267544D01*
G01*
G37*
G36*
G01*
X183424000Y-89557456D02*
X183424000Y-88242544D01*
G75*
G02*
X183691544Y-87975000I267544J0D01*
G01*
X184681456Y-87975000D01*
G75*
G02*
X184949000Y-88242544I0J-267544D01*
G01*
X184949000Y-89557456D01*
G75*
G02*
X184681456Y-89825000I-267544J0D01*
G01*
X183691544Y-89825000D01*
G75*
G02*
X183424000Y-89557456I0J267544D01*
G01*
G37*
D15*
X141742000Y-80137000D03*
D16*
X145542000Y-80137000D03*
G36*
G01*
X159915456Y-81063000D02*
X158600544Y-81063000D01*
G75*
G02*
X158333000Y-80795456I0J267544D01*
G01*
X158333000Y-79805544D01*
G75*
G02*
X158600544Y-79538000I267544J0D01*
G01*
X159915456Y-79538000D01*
G75*
G02*
X160183000Y-79805544I0J-267544D01*
G01*
X160183000Y-80795456D01*
G75*
G02*
X159915456Y-81063000I-267544J0D01*
G01*
G37*
G36*
G01*
X159915456Y-84038000D02*
X158600544Y-84038000D01*
G75*
G02*
X158333000Y-83770456I0J267544D01*
G01*
X158333000Y-82780544D01*
G75*
G02*
X158600544Y-82513000I267544J0D01*
G01*
X159915456Y-82513000D01*
G75*
G02*
X160183000Y-82780544I0J-267544D01*
G01*
X160183000Y-83770456D01*
G75*
G02*
X159915456Y-84038000I-267544J0D01*
G01*
G37*
D17*
X121364000Y-62357000D03*
X118364000Y-62357000D03*
D12*
X179578000Y-60198000D03*
X182118000Y-60198000D03*
D13*
X184658000Y-60198000D03*
D18*
X118364000Y-82550000D03*
D19*
X118364000Y-72390000D03*
D15*
X133213000Y-62357000D03*
D16*
X129413000Y-62357000D03*
D15*
X140230000Y-97010000D03*
D16*
X136430000Y-97010000D03*
D20*
X125000000Y-96650000D03*
D21*
X120000000Y-96650000D03*
D20*
X150000000Y-96650000D03*
D21*
X155000000Y-96650000D03*
X160000000Y-96650000D03*
X165000000Y-96650000D03*
X170000000Y-96650000D03*
X175000000Y-96650000D03*
X180000000Y-96650000D03*
X185000000Y-96650000D03*
M02*
