M48
; DRILL file {KiCad 5.1.6} date Sun Jul 26 18:05:08 2020
; FORMAT={-:-/ absolute / inch / decimal}
; #@! TF.CreationDate,2020-07-26T18:05:08+03:00
; #@! TF.GenerationSoftware,Kicad,Pcbnew,5.1.6
; #@! TF.FileFunction,Plated,1,2,PTH
FMAT,2
INCH
T1C0.0157
T2C0.0315
T3C0.0394
T4C0.0433
T5C0.0472
T6C0.0512
%
G90
G05
T1
X4.875Y-2.685
X5.139Y-3.9366
X5.735Y-3.605
X5.825Y-2.575
X5.93Y-2.86
X6.145Y-3.28
X6.182Y-3.6054
X6.335Y-3.09
X6.5161Y-3.4972
X6.585Y-3.16
X6.59Y-2.775
X6.59Y-3.09
X6.62Y-3.605
X6.6641Y-3.3812
X6.74Y-3.38
X6.745Y-2.48
X6.8Y-2.585
X6.825Y-3.38
X6.84Y-2.545
X6.88Y-2.785
X6.93Y-2.785
X6.95Y-3.61
X7.07Y-2.52
X7.17Y-3.475
X7.17Y-2.52
X7.4Y-2.525
X7.4815Y-3.9323
T2
X5.095Y-2.455
X5.2446Y-2.455
X5.3713Y-3.8193
X5.5209Y-3.8193
X5.5804Y-3.155
X5.73Y-3.155
T3
X7.07Y-2.37
X7.17Y-2.37
X7.27Y-2.37
X6.74Y-2.375
X6.84Y-2.375
T4
X4.66Y-2.85
X4.66Y-3.25
T5
X4.66Y-2.455
X4.7781Y-2.455
T6
X4.7244Y-3.8051
X4.9213Y-3.8051
X5.9055Y-3.8051
X6.1024Y-3.8051
X6.2992Y-3.8051
X6.4961Y-3.8051
X6.6929Y-3.8051
X6.8898Y-3.8051
X7.0866Y-3.8051
X7.2835Y-3.8051
T0
M30
