G04 #@! TF.GenerationSoftware,KiCad,Pcbnew,5.1.6*
G04 #@! TF.CreationDate,2020-07-26T18:39:51+03:00*
G04 #@! TF.ProjectId,kicad-hamster-esp8266,6b696361-642d-4686-916d-737465722d65,rev?*
G04 #@! TF.SameCoordinates,Original*
G04 #@! TF.FileFunction,Copper,L1,Top*
G04 #@! TF.FilePolarity,Positive*
%FSLAX46Y46*%
G04 Gerber Fmt 4.6, Leading zero omitted, Abs format (unit mm)*
G04 Created by KiCad (PCBNEW 5.1.6) date 2020-07-26 18:39:51*
%MOMM*%
%LPD*%
G01*
G04 APERTURE LIST*
G04 #@! TA.AperFunction,ComponentPad*
%ADD10O,1.700000X1.700000*%
G04 #@! TD*
G04 #@! TA.AperFunction,ComponentPad*
%ADD11R,1.700000X1.700000*%
G04 #@! TD*
G04 #@! TA.AperFunction,ComponentPad*
%ADD12C,1.600000*%
G04 #@! TD*
G04 #@! TA.AperFunction,ComponentPad*
%ADD13R,1.600000X1.600000*%
G04 #@! TD*
G04 #@! TA.AperFunction,SMDPad,CuDef*
%ADD14R,0.900000X0.800000*%
G04 #@! TD*
G04 #@! TA.AperFunction,ComponentPad*
%ADD15C,2.400000*%
G04 #@! TD*
G04 #@! TA.AperFunction,ComponentPad*
%ADD16O,2.200000X2.200000*%
G04 #@! TD*
G04 #@! TA.AperFunction,ComponentPad*
%ADD17R,2.200000X2.200000*%
G04 #@! TD*
G04 #@! TA.AperFunction,ComponentPad*
%ADD18R,2.600000X2.600000*%
G04 #@! TD*
G04 #@! TA.AperFunction,ComponentPad*
%ADD19C,2.600000*%
G04 #@! TD*
G04 #@! TA.AperFunction,ViaPad*
%ADD20C,0.800000*%
G04 #@! TD*
G04 #@! TA.AperFunction,Conductor*
%ADD21C,0.800000*%
G04 #@! TD*
G04 #@! TA.AperFunction,Conductor*
%ADD22C,0.500000*%
G04 #@! TD*
G04 #@! TA.AperFunction,Conductor*
%ADD23C,0.254000*%
G04 #@! TD*
G04 APERTURE END LIST*
G04 #@! TA.AperFunction,SMDPad,CuDef*
G36*
G01*
X175855000Y-78790000D02*
X176155000Y-78790000D01*
G75*
G02*
X176305000Y-78940000I0J-150000D01*
G01*
X176305000Y-80590000D01*
G75*
G02*
X176155000Y-80740000I-150000J0D01*
G01*
X175855000Y-80740000D01*
G75*
G02*
X175705000Y-80590000I0J150000D01*
G01*
X175705000Y-78940000D01*
G75*
G02*
X175855000Y-78790000I150000J0D01*
G01*
G37*
G04 #@! TD.AperFunction*
G04 #@! TA.AperFunction,SMDPad,CuDef*
G36*
G01*
X174585000Y-78790000D02*
X174885000Y-78790000D01*
G75*
G02*
X175035000Y-78940000I0J-150000D01*
G01*
X175035000Y-80590000D01*
G75*
G02*
X174885000Y-80740000I-150000J0D01*
G01*
X174585000Y-80740000D01*
G75*
G02*
X174435000Y-80590000I0J150000D01*
G01*
X174435000Y-78940000D01*
G75*
G02*
X174585000Y-78790000I150000J0D01*
G01*
G37*
G04 #@! TD.AperFunction*
G04 #@! TA.AperFunction,SMDPad,CuDef*
G36*
G01*
X173315000Y-78790000D02*
X173615000Y-78790000D01*
G75*
G02*
X173765000Y-78940000I0J-150000D01*
G01*
X173765000Y-80590000D01*
G75*
G02*
X173615000Y-80740000I-150000J0D01*
G01*
X173315000Y-80740000D01*
G75*
G02*
X173165000Y-80590000I0J150000D01*
G01*
X173165000Y-78940000D01*
G75*
G02*
X173315000Y-78790000I150000J0D01*
G01*
G37*
G04 #@! TD.AperFunction*
G04 #@! TA.AperFunction,SMDPad,CuDef*
G36*
G01*
X172045000Y-78790000D02*
X172345000Y-78790000D01*
G75*
G02*
X172495000Y-78940000I0J-150000D01*
G01*
X172495000Y-80590000D01*
G75*
G02*
X172345000Y-80740000I-150000J0D01*
G01*
X172045000Y-80740000D01*
G75*
G02*
X171895000Y-80590000I0J150000D01*
G01*
X171895000Y-78940000D01*
G75*
G02*
X172045000Y-78790000I150000J0D01*
G01*
G37*
G04 #@! TD.AperFunction*
G04 #@! TA.AperFunction,SMDPad,CuDef*
G36*
G01*
X172045000Y-73840000D02*
X172345000Y-73840000D01*
G75*
G02*
X172495000Y-73990000I0J-150000D01*
G01*
X172495000Y-75640000D01*
G75*
G02*
X172345000Y-75790000I-150000J0D01*
G01*
X172045000Y-75790000D01*
G75*
G02*
X171895000Y-75640000I0J150000D01*
G01*
X171895000Y-73990000D01*
G75*
G02*
X172045000Y-73840000I150000J0D01*
G01*
G37*
G04 #@! TD.AperFunction*
G04 #@! TA.AperFunction,SMDPad,CuDef*
G36*
G01*
X173315000Y-73840000D02*
X173615000Y-73840000D01*
G75*
G02*
X173765000Y-73990000I0J-150000D01*
G01*
X173765000Y-75640000D01*
G75*
G02*
X173615000Y-75790000I-150000J0D01*
G01*
X173315000Y-75790000D01*
G75*
G02*
X173165000Y-75640000I0J150000D01*
G01*
X173165000Y-73990000D01*
G75*
G02*
X173315000Y-73840000I150000J0D01*
G01*
G37*
G04 #@! TD.AperFunction*
G04 #@! TA.AperFunction,SMDPad,CuDef*
G36*
G01*
X174585000Y-73840000D02*
X174885000Y-73840000D01*
G75*
G02*
X175035000Y-73990000I0J-150000D01*
G01*
X175035000Y-75640000D01*
G75*
G02*
X174885000Y-75790000I-150000J0D01*
G01*
X174585000Y-75790000D01*
G75*
G02*
X174435000Y-75640000I0J150000D01*
G01*
X174435000Y-73990000D01*
G75*
G02*
X174585000Y-73840000I150000J0D01*
G01*
G37*
G04 #@! TD.AperFunction*
G04 #@! TA.AperFunction,SMDPad,CuDef*
G36*
G01*
X175855000Y-73840000D02*
X176155000Y-73840000D01*
G75*
G02*
X176305000Y-73990000I0J-150000D01*
G01*
X176305000Y-75640000D01*
G75*
G02*
X176155000Y-75790000I-150000J0D01*
G01*
X175855000Y-75790000D01*
G75*
G02*
X175705000Y-75640000I0J150000D01*
G01*
X175705000Y-73990000D01*
G75*
G02*
X175855000Y-73840000I150000J0D01*
G01*
G37*
G04 #@! TD.AperFunction*
G04 #@! TA.AperFunction,SMDPad,CuDef*
G36*
G01*
X130278000Y-76350000D02*
X130278000Y-76050000D01*
G75*
G02*
X130428000Y-75900000I150000J0D01*
G01*
X132078000Y-75900000D01*
G75*
G02*
X132228000Y-76050000I0J-150000D01*
G01*
X132228000Y-76350000D01*
G75*
G02*
X132078000Y-76500000I-150000J0D01*
G01*
X130428000Y-76500000D01*
G75*
G02*
X130278000Y-76350000I0J150000D01*
G01*
G37*
G04 #@! TD.AperFunction*
G04 #@! TA.AperFunction,SMDPad,CuDef*
G36*
G01*
X130278000Y-77620000D02*
X130278000Y-77320000D01*
G75*
G02*
X130428000Y-77170000I150000J0D01*
G01*
X132078000Y-77170000D01*
G75*
G02*
X132228000Y-77320000I0J-150000D01*
G01*
X132228000Y-77620000D01*
G75*
G02*
X132078000Y-77770000I-150000J0D01*
G01*
X130428000Y-77770000D01*
G75*
G02*
X130278000Y-77620000I0J150000D01*
G01*
G37*
G04 #@! TD.AperFunction*
G04 #@! TA.AperFunction,SMDPad,CuDef*
G36*
G01*
X130278000Y-78890000D02*
X130278000Y-78590000D01*
G75*
G02*
X130428000Y-78440000I150000J0D01*
G01*
X132078000Y-78440000D01*
G75*
G02*
X132228000Y-78590000I0J-150000D01*
G01*
X132228000Y-78890000D01*
G75*
G02*
X132078000Y-79040000I-150000J0D01*
G01*
X130428000Y-79040000D01*
G75*
G02*
X130278000Y-78890000I0J150000D01*
G01*
G37*
G04 #@! TD.AperFunction*
G04 #@! TA.AperFunction,SMDPad,CuDef*
G36*
G01*
X130278000Y-80160000D02*
X130278000Y-79860000D01*
G75*
G02*
X130428000Y-79710000I150000J0D01*
G01*
X132078000Y-79710000D01*
G75*
G02*
X132228000Y-79860000I0J-150000D01*
G01*
X132228000Y-80160000D01*
G75*
G02*
X132078000Y-80310000I-150000J0D01*
G01*
X130428000Y-80310000D01*
G75*
G02*
X130278000Y-80160000I0J150000D01*
G01*
G37*
G04 #@! TD.AperFunction*
G04 #@! TA.AperFunction,SMDPad,CuDef*
G36*
G01*
X125328000Y-80160000D02*
X125328000Y-79860000D01*
G75*
G02*
X125478000Y-79710000I150000J0D01*
G01*
X127128000Y-79710000D01*
G75*
G02*
X127278000Y-79860000I0J-150000D01*
G01*
X127278000Y-80160000D01*
G75*
G02*
X127128000Y-80310000I-150000J0D01*
G01*
X125478000Y-80310000D01*
G75*
G02*
X125328000Y-80160000I0J150000D01*
G01*
G37*
G04 #@! TD.AperFunction*
G04 #@! TA.AperFunction,SMDPad,CuDef*
G36*
G01*
X125328000Y-78890000D02*
X125328000Y-78590000D01*
G75*
G02*
X125478000Y-78440000I150000J0D01*
G01*
X127128000Y-78440000D01*
G75*
G02*
X127278000Y-78590000I0J-150000D01*
G01*
X127278000Y-78890000D01*
G75*
G02*
X127128000Y-79040000I-150000J0D01*
G01*
X125478000Y-79040000D01*
G75*
G02*
X125328000Y-78890000I0J150000D01*
G01*
G37*
G04 #@! TD.AperFunction*
G04 #@! TA.AperFunction,SMDPad,CuDef*
G36*
G01*
X125328000Y-77620000D02*
X125328000Y-77320000D01*
G75*
G02*
X125478000Y-77170000I150000J0D01*
G01*
X127128000Y-77170000D01*
G75*
G02*
X127278000Y-77320000I0J-150000D01*
G01*
X127278000Y-77620000D01*
G75*
G02*
X127128000Y-77770000I-150000J0D01*
G01*
X125478000Y-77770000D01*
G75*
G02*
X125328000Y-77620000I0J150000D01*
G01*
G37*
G04 #@! TD.AperFunction*
G04 #@! TA.AperFunction,SMDPad,CuDef*
G36*
G01*
X125328000Y-76350000D02*
X125328000Y-76050000D01*
G75*
G02*
X125478000Y-75900000I150000J0D01*
G01*
X127128000Y-75900000D01*
G75*
G02*
X127278000Y-76050000I0J-150000D01*
G01*
X127278000Y-76350000D01*
G75*
G02*
X127128000Y-76500000I-150000J0D01*
G01*
X125478000Y-76500000D01*
G75*
G02*
X125328000Y-76350000I0J150000D01*
G01*
G37*
G04 #@! TD.AperFunction*
D10*
X173736000Y-60325000D03*
D11*
X171196000Y-60325000D03*
G04 #@! TA.AperFunction,SMDPad,CuDef*
G36*
G01*
X149257500Y-89465000D02*
X149257500Y-88215000D01*
G75*
G02*
X149507500Y-87965000I250000J0D01*
G01*
X150432500Y-87965000D01*
G75*
G02*
X150682500Y-88215000I0J-250000D01*
G01*
X150682500Y-89465000D01*
G75*
G02*
X150432500Y-89715000I-250000J0D01*
G01*
X149507500Y-89715000D01*
G75*
G02*
X149257500Y-89465000I0J250000D01*
G01*
G37*
G04 #@! TD.AperFunction*
G04 #@! TA.AperFunction,SMDPad,CuDef*
G36*
G01*
X146282500Y-89465000D02*
X146282500Y-88215000D01*
G75*
G02*
X146532500Y-87965000I250000J0D01*
G01*
X147457500Y-87965000D01*
G75*
G02*
X147707500Y-88215000I0J-250000D01*
G01*
X147707500Y-89465000D01*
G75*
G02*
X147457500Y-89715000I-250000J0D01*
G01*
X146532500Y-89715000D01*
G75*
G02*
X146282500Y-89465000I0J250000D01*
G01*
G37*
G04 #@! TD.AperFunction*
G04 #@! TA.AperFunction,SMDPad,CuDef*
G36*
G01*
X159285000Y-89445000D02*
X159285000Y-88195000D01*
G75*
G02*
X159535000Y-87945000I250000J0D01*
G01*
X160460000Y-87945000D01*
G75*
G02*
X160710000Y-88195000I0J-250000D01*
G01*
X160710000Y-89445000D01*
G75*
G02*
X160460000Y-89695000I-250000J0D01*
G01*
X159535000Y-89695000D01*
G75*
G02*
X159285000Y-89445000I0J250000D01*
G01*
G37*
G04 #@! TD.AperFunction*
G04 #@! TA.AperFunction,SMDPad,CuDef*
G36*
G01*
X156310000Y-89445000D02*
X156310000Y-88195000D01*
G75*
G02*
X156560000Y-87945000I250000J0D01*
G01*
X157485000Y-87945000D01*
G75*
G02*
X157735000Y-88195000I0J-250000D01*
G01*
X157735000Y-89445000D01*
G75*
G02*
X157485000Y-89695000I-250000J0D01*
G01*
X156560000Y-89695000D01*
G75*
G02*
X156310000Y-89445000I0J250000D01*
G01*
G37*
G04 #@! TD.AperFunction*
G04 #@! TA.AperFunction,SMDPad,CuDef*
G36*
G01*
X170447000Y-89398000D02*
X170447000Y-88148000D01*
G75*
G02*
X170697000Y-87898000I250000J0D01*
G01*
X171622000Y-87898000D01*
G75*
G02*
X171872000Y-88148000I0J-250000D01*
G01*
X171872000Y-89398000D01*
G75*
G02*
X171622000Y-89648000I-250000J0D01*
G01*
X170697000Y-89648000D01*
G75*
G02*
X170447000Y-89398000I0J250000D01*
G01*
G37*
G04 #@! TD.AperFunction*
G04 #@! TA.AperFunction,SMDPad,CuDef*
G36*
G01*
X167472000Y-89398000D02*
X167472000Y-88148000D01*
G75*
G02*
X167722000Y-87898000I250000J0D01*
G01*
X168647000Y-87898000D01*
G75*
G02*
X168897000Y-88148000I0J-250000D01*
G01*
X168897000Y-89398000D01*
G75*
G02*
X168647000Y-89648000I-250000J0D01*
G01*
X167722000Y-89648000D01*
G75*
G02*
X167472000Y-89398000I0J250000D01*
G01*
G37*
G04 #@! TD.AperFunction*
G04 #@! TA.AperFunction,SMDPad,CuDef*
G36*
G01*
X178702000Y-89525000D02*
X178702000Y-88275000D01*
G75*
G02*
X178952000Y-88025000I250000J0D01*
G01*
X179877000Y-88025000D01*
G75*
G02*
X180127000Y-88275000I0J-250000D01*
G01*
X180127000Y-89525000D01*
G75*
G02*
X179877000Y-89775000I-250000J0D01*
G01*
X178952000Y-89775000D01*
G75*
G02*
X178702000Y-89525000I0J250000D01*
G01*
G37*
G04 #@! TD.AperFunction*
G04 #@! TA.AperFunction,SMDPad,CuDef*
G36*
G01*
X175727000Y-89525000D02*
X175727000Y-88275000D01*
G75*
G02*
X175977000Y-88025000I250000J0D01*
G01*
X176902000Y-88025000D01*
G75*
G02*
X177152000Y-88275000I0J-250000D01*
G01*
X177152000Y-89525000D01*
G75*
G02*
X176902000Y-89775000I-250000J0D01*
G01*
X175977000Y-89775000D01*
G75*
G02*
X175727000Y-89525000I0J250000D01*
G01*
G37*
G04 #@! TD.AperFunction*
G04 #@! TA.AperFunction,SMDPad,CuDef*
G36*
G01*
X164729000Y-61735000D02*
X165979000Y-61735000D01*
G75*
G02*
X166229000Y-61985000I0J-250000D01*
G01*
X166229000Y-62910000D01*
G75*
G02*
X165979000Y-63160000I-250000J0D01*
G01*
X164729000Y-63160000D01*
G75*
G02*
X164479000Y-62910000I0J250000D01*
G01*
X164479000Y-61985000D01*
G75*
G02*
X164729000Y-61735000I250000J0D01*
G01*
G37*
G04 #@! TD.AperFunction*
G04 #@! TA.AperFunction,SMDPad,CuDef*
G36*
G01*
X164729000Y-58760000D02*
X165979000Y-58760000D01*
G75*
G02*
X166229000Y-59010000I0J-250000D01*
G01*
X166229000Y-59935000D01*
G75*
G02*
X165979000Y-60185000I-250000J0D01*
G01*
X164729000Y-60185000D01*
G75*
G02*
X164479000Y-59935000I0J250000D01*
G01*
X164479000Y-59010000D01*
G75*
G02*
X164729000Y-58760000I250000J0D01*
G01*
G37*
G04 #@! TD.AperFunction*
G04 #@! TA.AperFunction,SMDPad,CuDef*
G36*
G01*
X166761000Y-74562000D02*
X168011000Y-74562000D01*
G75*
G02*
X168261000Y-74812000I0J-250000D01*
G01*
X168261000Y-75737000D01*
G75*
G02*
X168011000Y-75987000I-250000J0D01*
G01*
X166761000Y-75987000D01*
G75*
G02*
X166511000Y-75737000I0J250000D01*
G01*
X166511000Y-74812000D01*
G75*
G02*
X166761000Y-74562000I250000J0D01*
G01*
G37*
G04 #@! TD.AperFunction*
G04 #@! TA.AperFunction,SMDPad,CuDef*
G36*
G01*
X166761000Y-71587000D02*
X168011000Y-71587000D01*
G75*
G02*
X168261000Y-71837000I0J-250000D01*
G01*
X168261000Y-72762000D01*
G75*
G02*
X168011000Y-73012000I-250000J0D01*
G01*
X166761000Y-73012000D01*
G75*
G02*
X166511000Y-72762000I0J250000D01*
G01*
X166511000Y-71837000D01*
G75*
G02*
X166761000Y-71587000I250000J0D01*
G01*
G37*
G04 #@! TD.AperFunction*
G04 #@! TA.AperFunction,SMDPad,CuDef*
G36*
G01*
X144282000Y-61735000D02*
X145532000Y-61735000D01*
G75*
G02*
X145782000Y-61985000I0J-250000D01*
G01*
X145782000Y-62910000D01*
G75*
G02*
X145532000Y-63160000I-250000J0D01*
G01*
X144282000Y-63160000D01*
G75*
G02*
X144032000Y-62910000I0J250000D01*
G01*
X144032000Y-61985000D01*
G75*
G02*
X144282000Y-61735000I250000J0D01*
G01*
G37*
G04 #@! TD.AperFunction*
G04 #@! TA.AperFunction,SMDPad,CuDef*
G36*
G01*
X144282000Y-58760000D02*
X145532000Y-58760000D01*
G75*
G02*
X145782000Y-59010000I0J-250000D01*
G01*
X145782000Y-59935000D01*
G75*
G02*
X145532000Y-60185000I-250000J0D01*
G01*
X144282000Y-60185000D01*
G75*
G02*
X144032000Y-59935000I0J250000D01*
G01*
X144032000Y-59010000D01*
G75*
G02*
X144282000Y-58760000I250000J0D01*
G01*
G37*
G04 #@! TD.AperFunction*
G04 #@! TA.AperFunction,SMDPad,CuDef*
G36*
G01*
X150485000Y-60185000D02*
X149235000Y-60185000D01*
G75*
G02*
X148985000Y-59935000I0J250000D01*
G01*
X148985000Y-59010000D01*
G75*
G02*
X149235000Y-58760000I250000J0D01*
G01*
X150485000Y-58760000D01*
G75*
G02*
X150735000Y-59010000I0J-250000D01*
G01*
X150735000Y-59935000D01*
G75*
G02*
X150485000Y-60185000I-250000J0D01*
G01*
G37*
G04 #@! TD.AperFunction*
G04 #@! TA.AperFunction,SMDPad,CuDef*
G36*
G01*
X150485000Y-63160000D02*
X149235000Y-63160000D01*
G75*
G02*
X148985000Y-62910000I0J250000D01*
G01*
X148985000Y-61985000D01*
G75*
G02*
X149235000Y-61735000I250000J0D01*
G01*
X150485000Y-61735000D01*
G75*
G02*
X150735000Y-61985000I0J-250000D01*
G01*
X150735000Y-62910000D01*
G75*
G02*
X150485000Y-63160000I-250000J0D01*
G01*
G37*
G04 #@! TD.AperFunction*
G04 #@! TA.AperFunction,SMDPad,CuDef*
G36*
G01*
X154442000Y-61735000D02*
X155692000Y-61735000D01*
G75*
G02*
X155942000Y-61985000I0J-250000D01*
G01*
X155942000Y-62910000D01*
G75*
G02*
X155692000Y-63160000I-250000J0D01*
G01*
X154442000Y-63160000D01*
G75*
G02*
X154192000Y-62910000I0J250000D01*
G01*
X154192000Y-61985000D01*
G75*
G02*
X154442000Y-61735000I250000J0D01*
G01*
G37*
G04 #@! TD.AperFunction*
G04 #@! TA.AperFunction,SMDPad,CuDef*
G36*
G01*
X154442000Y-58760000D02*
X155692000Y-58760000D01*
G75*
G02*
X155942000Y-59010000I0J-250000D01*
G01*
X155942000Y-59935000D01*
G75*
G02*
X155692000Y-60185000I-250000J0D01*
G01*
X154442000Y-60185000D01*
G75*
G02*
X154192000Y-59935000I0J250000D01*
G01*
X154192000Y-59010000D01*
G75*
G02*
X154442000Y-58760000I250000J0D01*
G01*
G37*
G04 #@! TD.AperFunction*
G04 #@! TA.AperFunction,SMDPad,CuDef*
G36*
G01*
X160899000Y-60185000D02*
X159649000Y-60185000D01*
G75*
G02*
X159399000Y-59935000I0J250000D01*
G01*
X159399000Y-59010000D01*
G75*
G02*
X159649000Y-58760000I250000J0D01*
G01*
X160899000Y-58760000D01*
G75*
G02*
X161149000Y-59010000I0J-250000D01*
G01*
X161149000Y-59935000D01*
G75*
G02*
X160899000Y-60185000I-250000J0D01*
G01*
G37*
G04 #@! TD.AperFunction*
G04 #@! TA.AperFunction,SMDPad,CuDef*
G36*
G01*
X160899000Y-63160000D02*
X159649000Y-63160000D01*
G75*
G02*
X159399000Y-62910000I0J250000D01*
G01*
X159399000Y-61985000D01*
G75*
G02*
X159649000Y-61735000I250000J0D01*
G01*
X160899000Y-61735000D01*
G75*
G02*
X161149000Y-61985000I0J-250000D01*
G01*
X161149000Y-62910000D01*
G75*
G02*
X160899000Y-63160000I-250000J0D01*
G01*
G37*
G04 #@! TD.AperFunction*
D12*
X141742000Y-80137000D03*
D13*
X145542000Y-80137000D03*
G04 #@! TA.AperFunction,SMDPad,CuDef*
G36*
G01*
X153152000Y-81013000D02*
X151902000Y-81013000D01*
G75*
G02*
X151652000Y-80763000I0J250000D01*
G01*
X151652000Y-79838000D01*
G75*
G02*
X151902000Y-79588000I250000J0D01*
G01*
X153152000Y-79588000D01*
G75*
G02*
X153402000Y-79838000I0J-250000D01*
G01*
X153402000Y-80763000D01*
G75*
G02*
X153152000Y-81013000I-250000J0D01*
G01*
G37*
G04 #@! TD.AperFunction*
G04 #@! TA.AperFunction,SMDPad,CuDef*
G36*
G01*
X153152000Y-83988000D02*
X151902000Y-83988000D01*
G75*
G02*
X151652000Y-83738000I0J250000D01*
G01*
X151652000Y-82813000D01*
G75*
G02*
X151902000Y-82563000I250000J0D01*
G01*
X153152000Y-82563000D01*
G75*
G02*
X153402000Y-82813000I0J-250000D01*
G01*
X153402000Y-83738000D01*
G75*
G02*
X153152000Y-83988000I-250000J0D01*
G01*
G37*
G04 #@! TD.AperFunction*
G04 #@! TA.AperFunction,SMDPad,CuDef*
G36*
G01*
X136281000Y-87135000D02*
X137531000Y-87135000D01*
G75*
G02*
X137781000Y-87385000I0J-250000D01*
G01*
X137781000Y-88310000D01*
G75*
G02*
X137531000Y-88560000I-250000J0D01*
G01*
X136281000Y-88560000D01*
G75*
G02*
X136031000Y-88310000I0J250000D01*
G01*
X136031000Y-87385000D01*
G75*
G02*
X136281000Y-87135000I250000J0D01*
G01*
G37*
G04 #@! TD.AperFunction*
G04 #@! TA.AperFunction,SMDPad,CuDef*
G36*
G01*
X136281000Y-84160000D02*
X137531000Y-84160000D01*
G75*
G02*
X137781000Y-84410000I0J-250000D01*
G01*
X137781000Y-85335000D01*
G75*
G02*
X137531000Y-85585000I-250000J0D01*
G01*
X136281000Y-85585000D01*
G75*
G02*
X136031000Y-85335000I0J250000D01*
G01*
X136031000Y-84410000D01*
G75*
G02*
X136281000Y-84160000I250000J0D01*
G01*
G37*
G04 #@! TD.AperFunction*
G04 #@! TA.AperFunction,SMDPad,CuDef*
G36*
G01*
X130693000Y-87135000D02*
X131943000Y-87135000D01*
G75*
G02*
X132193000Y-87385000I0J-250000D01*
G01*
X132193000Y-88310000D01*
G75*
G02*
X131943000Y-88560000I-250000J0D01*
G01*
X130693000Y-88560000D01*
G75*
G02*
X130443000Y-88310000I0J250000D01*
G01*
X130443000Y-87385000D01*
G75*
G02*
X130693000Y-87135000I250000J0D01*
G01*
G37*
G04 #@! TD.AperFunction*
G04 #@! TA.AperFunction,SMDPad,CuDef*
G36*
G01*
X130693000Y-84160000D02*
X131943000Y-84160000D01*
G75*
G02*
X132193000Y-84410000I0J-250000D01*
G01*
X132193000Y-85335000D01*
G75*
G02*
X131943000Y-85585000I-250000J0D01*
G01*
X130693000Y-85585000D01*
G75*
G02*
X130443000Y-85335000I0J250000D01*
G01*
X130443000Y-84410000D01*
G75*
G02*
X130693000Y-84160000I250000J0D01*
G01*
G37*
G04 #@! TD.AperFunction*
G04 #@! TA.AperFunction,SMDPad,CuDef*
G36*
G01*
X128003000Y-70749000D02*
X128003000Y-71999000D01*
G75*
G02*
X127753000Y-72249000I-250000J0D01*
G01*
X126828000Y-72249000D01*
G75*
G02*
X126578000Y-71999000I0J250000D01*
G01*
X126578000Y-70749000D01*
G75*
G02*
X126828000Y-70499000I250000J0D01*
G01*
X127753000Y-70499000D01*
G75*
G02*
X128003000Y-70749000I0J-250000D01*
G01*
G37*
G04 #@! TD.AperFunction*
G04 #@! TA.AperFunction,SMDPad,CuDef*
G36*
G01*
X130978000Y-70749000D02*
X130978000Y-71999000D01*
G75*
G02*
X130728000Y-72249000I-250000J0D01*
G01*
X129803000Y-72249000D01*
G75*
G02*
X129553000Y-71999000I0J250000D01*
G01*
X129553000Y-70749000D01*
G75*
G02*
X129803000Y-70499000I250000J0D01*
G01*
X130728000Y-70499000D01*
G75*
G02*
X130978000Y-70749000I0J-250000D01*
G01*
G37*
G04 #@! TD.AperFunction*
D14*
X117872000Y-88519000D03*
X119872000Y-87569000D03*
X119872000Y-89469000D03*
D15*
X121364000Y-62357000D03*
X118364000Y-62357000D03*
D10*
X179578000Y-60198000D03*
X182118000Y-60198000D03*
D11*
X184658000Y-60198000D03*
D16*
X118364000Y-82550000D03*
D17*
X118364000Y-72390000D03*
D12*
X133213000Y-62357000D03*
D13*
X129413000Y-62357000D03*
G04 #@! TA.AperFunction,SMDPad,CuDef*
G36*
G01*
X124597000Y-87135000D02*
X125847000Y-87135000D01*
G75*
G02*
X126097000Y-87385000I0J-250000D01*
G01*
X126097000Y-88310000D01*
G75*
G02*
X125847000Y-88560000I-250000J0D01*
G01*
X124597000Y-88560000D01*
G75*
G02*
X124347000Y-88310000I0J250000D01*
G01*
X124347000Y-87385000D01*
G75*
G02*
X124597000Y-87135000I250000J0D01*
G01*
G37*
G04 #@! TD.AperFunction*
G04 #@! TA.AperFunction,SMDPad,CuDef*
G36*
G01*
X124597000Y-84160000D02*
X125847000Y-84160000D01*
G75*
G02*
X126097000Y-84410000I0J-250000D01*
G01*
X126097000Y-85335000D01*
G75*
G02*
X125847000Y-85585000I-250000J0D01*
G01*
X124597000Y-85585000D01*
G75*
G02*
X124347000Y-85335000I0J250000D01*
G01*
X124347000Y-84410000D01*
G75*
G02*
X124597000Y-84160000I250000J0D01*
G01*
G37*
G04 #@! TD.AperFunction*
D12*
X140230000Y-97010000D03*
D13*
X136430000Y-97010000D03*
D18*
X125000000Y-96650000D03*
D19*
X120000000Y-96650000D03*
D18*
X150000000Y-96650000D03*
D19*
X155000000Y-96650000D03*
X160000000Y-96650000D03*
X165000000Y-96650000D03*
X170000000Y-96650000D03*
X175000000Y-96650000D03*
X180000000Y-96650000D03*
X185000000Y-96650000D03*
D20*
X123825000Y-68199000D03*
X130530000Y-99990000D03*
X190030000Y-99880000D03*
X187960000Y-64135000D03*
X168148000Y-91567000D03*
X176530000Y-91694000D03*
X150622000Y-72644000D03*
X156083000Y-83312000D03*
X145669000Y-91567004D03*
X182117998Y-88265000D03*
X157022500Y-91577500D03*
X179578000Y-64008000D03*
X182118000Y-64008000D03*
X169268000Y-85882000D03*
X167386000Y-78486000D03*
X160909001Y-78486000D03*
X167259000Y-80264000D03*
X176022000Y-70739000D03*
X173736000Y-64643000D03*
X174752000Y-70739000D03*
X172720000Y-65659000D03*
X147955000Y-65405000D03*
X167386000Y-70485000D03*
X171323000Y-62992000D03*
X165510000Y-88830000D03*
X171196000Y-85852000D03*
X173355000Y-85852000D03*
D21*
X130556000Y-97028000D02*
X132080000Y-97028000D01*
X119872000Y-87569000D02*
X121097000Y-87569000D01*
X132334000Y-71374000D02*
X130265500Y-71374000D01*
X133985000Y-73025000D02*
X132334000Y-71374000D01*
X133985000Y-78740000D02*
X133985000Y-73025000D01*
X131253000Y-78740000D02*
X133985000Y-78740000D01*
X128651000Y-95123000D02*
X130556000Y-97028000D01*
X121097000Y-87569000D02*
X128651000Y-95123000D01*
X128651000Y-83693000D02*
X128651000Y-95123000D01*
X128651000Y-79692500D02*
X128651000Y-83693000D01*
X129603500Y-78740000D02*
X128651000Y-79692500D01*
X131253000Y-78740000D02*
X129603500Y-78740000D01*
D22*
X136412000Y-97028000D02*
X136430000Y-97010000D01*
D21*
X132080000Y-97028000D02*
X136412000Y-97028000D01*
D22*
X122555000Y-83947000D02*
X123480500Y-84872500D01*
X122555000Y-79629000D02*
X122555000Y-83947000D01*
X123480500Y-84872500D02*
X125222000Y-84872500D01*
X123444000Y-78740000D02*
X122555000Y-79629000D01*
X126303000Y-78740000D02*
X123444000Y-78740000D01*
D21*
X121364000Y-62357000D02*
X129413000Y-62357000D01*
D22*
X168184500Y-91530500D02*
X168148000Y-91567000D01*
D21*
X168184500Y-88773000D02*
X168184500Y-91530500D01*
X136906000Y-84872500D02*
X138847500Y-84872500D01*
X176530000Y-91694000D02*
X176530000Y-88990500D01*
X176530000Y-88990500D02*
X176439500Y-88900000D01*
X129413000Y-62357000D02*
X129413000Y-60452000D01*
X129413000Y-60452000D02*
X130392500Y-59472500D01*
X144907000Y-59472500D02*
X149860000Y-59472500D01*
X149860000Y-59472500D02*
X155067000Y-59472500D01*
X155067000Y-59472500D02*
X160274000Y-59472500D01*
X160274000Y-59472500D02*
X165354000Y-59472500D01*
X140806500Y-59472500D02*
X144907000Y-59472500D01*
X130392500Y-59472500D02*
X140806500Y-59472500D01*
X152563500Y-83312000D02*
X152527000Y-83275500D01*
X156083000Y-83312000D02*
X152563500Y-83312000D01*
X148172500Y-84872500D02*
X149769500Y-83275500D01*
X138847500Y-84872500D02*
X148172500Y-84872500D01*
X152527000Y-83275500D02*
X149769500Y-83275500D01*
X142748004Y-91567004D02*
X145669000Y-91567004D01*
X140843000Y-89662000D02*
X142748004Y-91567004D01*
X140843000Y-84872500D02*
X140843000Y-89662000D01*
X138847500Y-84872500D02*
X140843000Y-84872500D01*
X129413000Y-64135000D02*
X129413000Y-62357000D01*
X136906000Y-71628000D02*
X129413000Y-64135000D01*
X136906000Y-84872500D02*
X136906000Y-71628000D01*
D22*
X140806500Y-68543500D02*
X140806500Y-59472500D01*
X142367000Y-70104000D02*
X140806500Y-68543500D01*
X149225000Y-70104000D02*
X142367000Y-70104000D01*
X150622000Y-71501000D02*
X149225000Y-70104000D01*
X150622000Y-72644000D02*
X150622000Y-71501000D01*
D21*
X146995000Y-90241004D02*
X145669000Y-91567004D01*
X146995000Y-88840000D02*
X146995000Y-90241004D01*
X157022500Y-88820000D02*
X157022500Y-91577500D01*
D22*
X178181000Y-84328002D02*
X182117998Y-88265000D01*
X178181000Y-81941000D02*
X178181000Y-84328002D01*
X176005000Y-79765000D02*
X178181000Y-81941000D01*
D21*
X118364000Y-72390000D02*
X118364000Y-62357000D01*
X118364000Y-74168000D02*
X118364000Y-72390000D01*
X121666000Y-77470000D02*
X118364000Y-74168000D01*
X126303000Y-77470000D02*
X121666000Y-77470000D01*
X117872000Y-94522000D02*
X117872000Y-88519000D01*
X120000000Y-96650000D02*
X117872000Y-94522000D01*
D22*
X182118000Y-61468000D02*
X182118000Y-60198000D01*
X179578000Y-64008000D02*
X182118000Y-61468000D01*
X184658000Y-61468000D02*
X182118000Y-64008000D01*
X184658000Y-60198000D02*
X184658000Y-61468000D01*
D21*
X150000000Y-88870000D02*
X149970000Y-88840000D01*
X150000000Y-96650000D02*
X150000000Y-88870000D01*
D22*
X152928000Y-85882000D02*
X169268000Y-85882000D01*
X149970000Y-88840000D02*
X152928000Y-85882000D01*
X126303000Y-76200000D02*
X131253000Y-76200000D01*
X131253000Y-76200000D02*
X131253000Y-77470000D01*
D21*
X126303000Y-72361500D02*
X127290500Y-71374000D01*
X126303000Y-76200000D02*
X126303000Y-72361500D01*
D22*
X131253000Y-84807500D02*
X131318000Y-84872500D01*
X131253000Y-80010000D02*
X131253000Y-84807500D01*
X132624500Y-84872500D02*
X135599500Y-87847500D01*
X135599500Y-87847500D02*
X136906000Y-87847500D01*
X131318000Y-84872500D02*
X132624500Y-84872500D01*
X167386000Y-78486000D02*
X160909001Y-78486000D01*
X152363500Y-80137000D02*
X152527000Y-80300500D01*
X145542000Y-80137000D02*
X152363500Y-80137000D01*
X167222500Y-80300500D02*
X167259000Y-80264000D01*
X152527000Y-80300500D02*
X167222500Y-80300500D01*
X162469500Y-64643000D02*
X160274000Y-62447500D01*
X173736000Y-64643000D02*
X162469500Y-64643000D01*
X176022000Y-74798000D02*
X176022000Y-70739000D01*
X176005000Y-74815000D02*
X176022000Y-74798000D01*
X158278500Y-65659000D02*
X155067000Y-62447500D01*
X172720000Y-65659000D02*
X158278500Y-65659000D01*
X174752000Y-74798000D02*
X174752000Y-70739000D01*
X174735000Y-74815000D02*
X174752000Y-74798000D01*
X154341500Y-66929000D02*
X149860000Y-62447500D01*
X167299000Y-66929000D02*
X154341500Y-66929000D01*
X173465000Y-73095000D02*
X167299000Y-66929000D01*
X173465000Y-74815000D02*
X173465000Y-73095000D01*
X144997500Y-62447500D02*
X147955000Y-65405000D01*
X144907000Y-62447500D02*
X144997500Y-62447500D01*
X167386000Y-72299500D02*
X167386000Y-70485000D01*
X171323000Y-60452000D02*
X171196000Y-60325000D01*
X171323000Y-62484000D02*
X171323000Y-60452000D01*
X171323000Y-62992000D02*
X171323000Y-62484000D01*
X169672000Y-60325000D02*
X171196000Y-60325000D01*
X167549500Y-62447500D02*
X169672000Y-60325000D01*
X165354000Y-62447500D02*
X167549500Y-62447500D01*
X160007500Y-88830000D02*
X159997500Y-88820000D01*
X165510000Y-88830000D02*
X160007500Y-88830000D01*
D21*
X160000000Y-88822500D02*
X159997500Y-88820000D01*
X160000000Y-96650000D02*
X160000000Y-88822500D01*
D22*
X171196000Y-88736500D02*
X171196000Y-85852000D01*
X171159500Y-88773000D02*
X171196000Y-88736500D01*
D21*
X170000000Y-96650000D02*
X170000000Y-95000000D01*
X171159500Y-93840500D02*
X171159500Y-88773000D01*
X170000000Y-95000000D02*
X171159500Y-93840500D01*
D22*
X179414500Y-88228500D02*
X178054000Y-86868000D01*
X174371000Y-86868000D02*
X173355000Y-85852000D01*
X178054000Y-86868000D02*
X174371000Y-86868000D01*
X179414500Y-88900000D02*
X179414500Y-88228500D01*
D21*
X179414500Y-96064500D02*
X180000000Y-96650000D01*
X179414500Y-88900000D02*
X179414500Y-96064500D01*
D23*
G36*
X189788700Y-57792206D02*
G01*
X189788700Y-58227794D01*
X189873679Y-58655013D01*
X190040371Y-59057444D01*
X190282371Y-59419622D01*
X190590378Y-59727629D01*
X190952556Y-59969629D01*
X191354987Y-60136321D01*
X191770000Y-60218872D01*
X191770000Y-65973000D01*
X180535708Y-65973000D01*
X180500000Y-65969483D01*
X180464292Y-65973000D01*
X180357483Y-65983520D01*
X180220443Y-66025090D01*
X180094147Y-66092597D01*
X179983446Y-66183446D01*
X179892597Y-66294147D01*
X179825090Y-66420443D01*
X179783520Y-66557483D01*
X179769483Y-66700000D01*
X179773000Y-66735708D01*
X179773001Y-84609028D01*
X179108000Y-83944027D01*
X179108000Y-81986527D01*
X179112484Y-81941000D01*
X179108000Y-81895473D01*
X179108000Y-81895462D01*
X179094587Y-81759276D01*
X179041580Y-81584536D01*
X179016497Y-81537609D01*
X178955502Y-81423494D01*
X178868688Y-81317712D01*
X178868684Y-81317708D01*
X178839659Y-81282341D01*
X178804293Y-81253317D01*
X176985275Y-79434300D01*
X176985275Y-78940000D01*
X176969321Y-78778021D01*
X176922074Y-78622268D01*
X176845348Y-78478724D01*
X176742093Y-78352907D01*
X176616276Y-78249652D01*
X176472732Y-78172926D01*
X176316979Y-78125679D01*
X176155000Y-78109725D01*
X175855000Y-78109725D01*
X175693021Y-78125679D01*
X175537268Y-78172926D01*
X175393724Y-78249652D01*
X175384816Y-78256963D01*
X175279180Y-78200498D01*
X175159482Y-78164188D01*
X175035000Y-78151928D01*
X175020750Y-78155000D01*
X174862000Y-78313750D01*
X174862000Y-79638000D01*
X174882000Y-79638000D01*
X174882000Y-79892000D01*
X174862000Y-79892000D01*
X174862000Y-81216250D01*
X175020750Y-81375000D01*
X175035000Y-81378072D01*
X175159482Y-81365812D01*
X175279180Y-81329502D01*
X175384816Y-81273037D01*
X175393724Y-81280348D01*
X175537268Y-81357074D01*
X175693021Y-81404321D01*
X175855000Y-81420275D01*
X176155000Y-81420275D01*
X176316979Y-81404321D01*
X176329536Y-81400512D01*
X177254000Y-82324976D01*
X177254001Y-84282465D01*
X177249516Y-84328002D01*
X177254001Y-84373539D01*
X177254001Y-84373540D01*
X177267414Y-84509726D01*
X177281901Y-84557483D01*
X177320420Y-84684465D01*
X177406499Y-84845507D01*
X177493312Y-84951289D01*
X177493317Y-84951294D01*
X177522342Y-84986661D01*
X177557708Y-85015685D01*
X179887812Y-87345790D01*
X179877000Y-87344725D01*
X179841701Y-87344725D01*
X178741687Y-86244712D01*
X178712659Y-86209341D01*
X178571505Y-86093499D01*
X178410464Y-86007420D01*
X178235724Y-85954413D01*
X178099538Y-85941000D01*
X178099527Y-85941000D01*
X178054000Y-85936516D01*
X178008473Y-85941000D01*
X174754976Y-85941000D01*
X174400241Y-85586266D01*
X174390611Y-85537851D01*
X174309425Y-85341849D01*
X174191560Y-85165453D01*
X174041547Y-85015440D01*
X173865151Y-84897575D01*
X173669149Y-84816389D01*
X173461075Y-84775000D01*
X173248925Y-84775000D01*
X173040851Y-84816389D01*
X172844849Y-84897575D01*
X172668453Y-85015440D01*
X172518440Y-85165453D01*
X172400575Y-85341849D01*
X172319389Y-85537851D01*
X172278000Y-85745925D01*
X172278000Y-85958075D01*
X172319389Y-86166149D01*
X172400575Y-86362151D01*
X172518440Y-86538547D01*
X172668453Y-86688560D01*
X172844849Y-86806425D01*
X173040851Y-86887611D01*
X173089266Y-86897241D01*
X173683316Y-87491292D01*
X173712341Y-87526659D01*
X173747708Y-87555684D01*
X173747712Y-87555688D01*
X173853494Y-87642501D01*
X174014536Y-87728580D01*
X174189276Y-87781587D01*
X174325462Y-87795000D01*
X174325473Y-87795000D01*
X174371000Y-87799484D01*
X174416527Y-87795000D01*
X175183817Y-87795000D01*
X175117538Y-87918999D01*
X175064600Y-88093512D01*
X175046725Y-88275000D01*
X175046725Y-89525000D01*
X175064600Y-89706488D01*
X175117538Y-89881001D01*
X175203505Y-90041833D01*
X175319196Y-90182804D01*
X175453001Y-90292614D01*
X175453000Y-91587925D01*
X175453000Y-91800075D01*
X175463372Y-91852217D01*
X175468583Y-91905128D01*
X175484018Y-91956009D01*
X175494389Y-92008149D01*
X175514733Y-92057265D01*
X175530167Y-92108143D01*
X175555229Y-92155031D01*
X175575575Y-92204151D01*
X175605112Y-92248355D01*
X175630174Y-92295244D01*
X175663906Y-92336347D01*
X175693440Y-92380547D01*
X175731027Y-92418134D01*
X175764761Y-92459239D01*
X175805866Y-92492973D01*
X175843453Y-92530560D01*
X175887653Y-92560094D01*
X175928756Y-92593826D01*
X175975646Y-92618889D01*
X176019849Y-92648425D01*
X176068966Y-92668770D01*
X176115856Y-92693833D01*
X176166738Y-92709268D01*
X176215851Y-92729611D01*
X176267988Y-92739982D01*
X176318871Y-92755417D01*
X176371784Y-92760628D01*
X176423925Y-92771000D01*
X176477091Y-92771000D01*
X176530000Y-92776211D01*
X176582909Y-92771000D01*
X176636075Y-92771000D01*
X176688217Y-92760628D01*
X176741128Y-92755417D01*
X176792009Y-92739982D01*
X176844149Y-92729611D01*
X176893265Y-92709267D01*
X176944143Y-92693833D01*
X176991031Y-92668771D01*
X177040151Y-92648425D01*
X177084355Y-92618888D01*
X177131244Y-92593826D01*
X177172347Y-92560094D01*
X177216547Y-92530560D01*
X177254134Y-92492973D01*
X177295239Y-92459239D01*
X177328973Y-92418134D01*
X177366560Y-92380547D01*
X177396094Y-92336347D01*
X177429826Y-92295244D01*
X177454889Y-92248354D01*
X177484425Y-92204151D01*
X177504770Y-92155034D01*
X177529833Y-92108144D01*
X177545268Y-92057262D01*
X177565611Y-92008149D01*
X177575982Y-91956012D01*
X177591417Y-91905129D01*
X177596628Y-91852216D01*
X177607000Y-91800075D01*
X177607000Y-90125295D01*
X177675495Y-90041833D01*
X177761462Y-89881001D01*
X177814400Y-89706488D01*
X177832275Y-89525000D01*
X177832275Y-88275000D01*
X177814400Y-88093512D01*
X177761462Y-87918999D01*
X177724072Y-87849047D01*
X178033228Y-88158204D01*
X178021725Y-88275000D01*
X178021725Y-89525000D01*
X178039600Y-89706488D01*
X178092538Y-89881001D01*
X178178505Y-90041833D01*
X178294196Y-90182804D01*
X178337500Y-90218343D01*
X178337501Y-95579599D01*
X178248005Y-95713539D01*
X178098975Y-96073330D01*
X178023000Y-96455282D01*
X178023000Y-96844718D01*
X178098975Y-97226670D01*
X178248005Y-97586461D01*
X178464364Y-97910264D01*
X178739736Y-98185636D01*
X179063539Y-98401995D01*
X179423330Y-98551025D01*
X179805282Y-98627000D01*
X180194718Y-98627000D01*
X180576670Y-98551025D01*
X180936461Y-98401995D01*
X181260264Y-98185636D01*
X181446676Y-97999224D01*
X183830381Y-97999224D01*
X183962317Y-98294312D01*
X184303045Y-98465159D01*
X184670557Y-98566250D01*
X185050729Y-98593701D01*
X185428951Y-98546457D01*
X185790690Y-98426333D01*
X186037683Y-98294312D01*
X186169619Y-97999224D01*
X185000000Y-96829605D01*
X183830381Y-97999224D01*
X181446676Y-97999224D01*
X181535636Y-97910264D01*
X181751995Y-97586461D01*
X181901025Y-97226670D01*
X181977000Y-96844718D01*
X181977000Y-96700729D01*
X183056299Y-96700729D01*
X183103543Y-97078951D01*
X183223667Y-97440690D01*
X183355688Y-97687683D01*
X183650776Y-97819619D01*
X184820395Y-96650000D01*
X185179605Y-96650000D01*
X186349224Y-97819619D01*
X186644312Y-97687683D01*
X186815159Y-97346955D01*
X186916250Y-96979443D01*
X186943701Y-96599271D01*
X186896457Y-96221049D01*
X186776333Y-95859310D01*
X186644312Y-95612317D01*
X186349224Y-95480381D01*
X185179605Y-96650000D01*
X184820395Y-96650000D01*
X183650776Y-95480381D01*
X183355688Y-95612317D01*
X183184841Y-95953045D01*
X183083750Y-96320557D01*
X183056299Y-96700729D01*
X181977000Y-96700729D01*
X181977000Y-96455282D01*
X181901025Y-96073330D01*
X181751995Y-95713539D01*
X181535636Y-95389736D01*
X181446676Y-95300776D01*
X183830381Y-95300776D01*
X185000000Y-96470395D01*
X186169619Y-95300776D01*
X186037683Y-95005688D01*
X185696955Y-94834841D01*
X185329443Y-94733750D01*
X184949271Y-94706299D01*
X184571049Y-94753543D01*
X184209310Y-94873667D01*
X183962317Y-95005688D01*
X183830381Y-95300776D01*
X181446676Y-95300776D01*
X181260264Y-95114364D01*
X180936461Y-94898005D01*
X180576670Y-94748975D01*
X180491500Y-94732034D01*
X180491500Y-90218342D01*
X180534804Y-90182804D01*
X180650495Y-90041833D01*
X180736462Y-89881001D01*
X180789400Y-89706488D01*
X180807275Y-89525000D01*
X180807275Y-88275000D01*
X180806210Y-88264188D01*
X181072757Y-88530735D01*
X181082387Y-88579149D01*
X181163573Y-88775151D01*
X181281438Y-88951547D01*
X181431451Y-89101560D01*
X181607847Y-89219425D01*
X181803849Y-89300611D01*
X182011923Y-89342000D01*
X182224073Y-89342000D01*
X182432147Y-89300611D01*
X182628149Y-89219425D01*
X182804545Y-89101560D01*
X182954558Y-88951547D01*
X183072423Y-88775151D01*
X183153609Y-88579149D01*
X183194998Y-88371075D01*
X183194998Y-88158925D01*
X183153609Y-87950851D01*
X183072423Y-87754849D01*
X182954558Y-87578453D01*
X182804545Y-87428440D01*
X182628149Y-87310575D01*
X182432147Y-87229389D01*
X182383733Y-87219759D01*
X180590973Y-85427000D01*
X191770000Y-85427000D01*
X191770000Y-100791128D01*
X191354987Y-100873679D01*
X190952556Y-101040371D01*
X190590378Y-101282371D01*
X190282371Y-101590378D01*
X190040371Y-101952556D01*
X189873679Y-102354987D01*
X189788700Y-102782206D01*
X189788700Y-102870000D01*
X115211300Y-102870000D01*
X115211300Y-102772206D01*
X115126321Y-102344987D01*
X114959629Y-101942556D01*
X114717629Y-101580378D01*
X114409622Y-101272371D01*
X114047444Y-101030371D01*
X113645013Y-100863679D01*
X113277519Y-100790580D01*
X113227952Y-82946123D01*
X116674821Y-82946123D01*
X116784558Y-83268054D01*
X116954992Y-83562391D01*
X117179573Y-83817822D01*
X117449671Y-84024531D01*
X117754906Y-84174575D01*
X117967878Y-84239175D01*
X118237000Y-84121125D01*
X118237000Y-82677000D01*
X118491000Y-82677000D01*
X118491000Y-84121125D01*
X118760122Y-84239175D01*
X118973094Y-84174575D01*
X119278329Y-84024531D01*
X119548427Y-83817822D01*
X119773008Y-83562391D01*
X119943442Y-83268054D01*
X120053179Y-82946123D01*
X119935600Y-82677000D01*
X118491000Y-82677000D01*
X118237000Y-82677000D01*
X116792400Y-82677000D01*
X116674821Y-82946123D01*
X113227952Y-82946123D01*
X113225752Y-82153877D01*
X116674821Y-82153877D01*
X116792400Y-82423000D01*
X118237000Y-82423000D01*
X118237000Y-80978875D01*
X118491000Y-80978875D01*
X118491000Y-82423000D01*
X119935600Y-82423000D01*
X120053179Y-82153877D01*
X119943442Y-81831946D01*
X119773008Y-81537609D01*
X119548427Y-81282178D01*
X119278329Y-81075469D01*
X118973094Y-80925425D01*
X118760122Y-80860825D01*
X118491000Y-80978875D01*
X118237000Y-80978875D01*
X117967878Y-80860825D01*
X117754906Y-80925425D01*
X117449671Y-81075469D01*
X117179573Y-81282178D01*
X116954992Y-81537609D01*
X116784558Y-81831946D01*
X116674821Y-82153877D01*
X113225752Y-82153877D01*
X113170246Y-62172132D01*
X116487000Y-62172132D01*
X116487000Y-62541868D01*
X116559132Y-62904501D01*
X116700624Y-63246093D01*
X116906039Y-63553518D01*
X117167482Y-63814961D01*
X117287001Y-63894821D01*
X117287000Y-70609725D01*
X117264000Y-70609725D01*
X117131285Y-70622796D01*
X117003670Y-70661508D01*
X116886059Y-70724372D01*
X116782973Y-70808973D01*
X116698372Y-70912059D01*
X116635508Y-71029670D01*
X116596796Y-71157285D01*
X116583725Y-71290000D01*
X116583725Y-73490000D01*
X116596796Y-73622715D01*
X116635508Y-73750330D01*
X116698372Y-73867941D01*
X116782973Y-73971027D01*
X116886059Y-74055628D01*
X117003670Y-74118492D01*
X117131285Y-74157204D01*
X117264000Y-74170275D01*
X117282013Y-74170275D01*
X117287000Y-74220907D01*
X117287000Y-74220908D01*
X117302583Y-74379128D01*
X117364167Y-74582143D01*
X117464174Y-74769244D01*
X117598761Y-74933239D01*
X117639866Y-74966973D01*
X120867032Y-78194140D01*
X120900761Y-78235239D01*
X121064756Y-78369826D01*
X121251856Y-78469833D01*
X121454871Y-78531417D01*
X121613091Y-78547000D01*
X121613092Y-78547000D01*
X121665999Y-78552211D01*
X121718906Y-78547000D01*
X122326025Y-78547000D01*
X121931713Y-78941312D01*
X121896341Y-78970341D01*
X121867313Y-79005712D01*
X121867312Y-79005713D01*
X121780499Y-79111495D01*
X121720677Y-79223414D01*
X121694420Y-79272537D01*
X121641413Y-79447277D01*
X121628000Y-79583463D01*
X121628000Y-79583473D01*
X121623516Y-79629000D01*
X121628000Y-79674527D01*
X121628001Y-83901463D01*
X121623516Y-83947000D01*
X121628001Y-83992537D01*
X121628001Y-83992538D01*
X121641414Y-84128724D01*
X121655323Y-84174575D01*
X121694420Y-84303463D01*
X121780499Y-84464505D01*
X121867312Y-84570287D01*
X121867317Y-84570292D01*
X121896342Y-84605659D01*
X121931708Y-84634683D01*
X122792816Y-85495792D01*
X122821841Y-85531159D01*
X122857208Y-85560184D01*
X122857212Y-85560188D01*
X122962994Y-85647002D01*
X123124036Y-85733080D01*
X123298776Y-85786087D01*
X123434962Y-85799500D01*
X123434973Y-85799500D01*
X123480500Y-85803984D01*
X123526027Y-85799500D01*
X123795532Y-85799500D01*
X123823505Y-85851833D01*
X123939196Y-85992804D01*
X124080167Y-86108495D01*
X124240999Y-86194462D01*
X124415512Y-86247400D01*
X124597000Y-86265275D01*
X125847000Y-86265275D01*
X126028488Y-86247400D01*
X126203001Y-86194462D01*
X126363833Y-86108495D01*
X126504804Y-85992804D01*
X126620495Y-85851833D01*
X126706462Y-85691001D01*
X126759400Y-85516488D01*
X126777275Y-85335000D01*
X126777275Y-84410000D01*
X126759400Y-84228512D01*
X126706462Y-84053999D01*
X126620495Y-83893167D01*
X126504804Y-83752196D01*
X126363833Y-83636505D01*
X126203001Y-83550538D01*
X126028488Y-83497600D01*
X125847000Y-83479725D01*
X124597000Y-83479725D01*
X124415512Y-83497600D01*
X124240999Y-83550538D01*
X124080167Y-83636505D01*
X123939196Y-83752196D01*
X123823505Y-83893167D01*
X123819547Y-83900572D01*
X123482000Y-83563025D01*
X123482000Y-80310000D01*
X124689928Y-80310000D01*
X124702188Y-80434482D01*
X124738498Y-80554180D01*
X124797463Y-80664494D01*
X124876815Y-80761185D01*
X124973506Y-80840537D01*
X125083820Y-80899502D01*
X125203518Y-80935812D01*
X125328000Y-80948072D01*
X126017250Y-80945000D01*
X126176000Y-80786250D01*
X126176000Y-80137000D01*
X124851750Y-80137000D01*
X124693000Y-80295750D01*
X124689928Y-80310000D01*
X123482000Y-80310000D01*
X123482000Y-80012975D01*
X123827976Y-79667000D01*
X124694163Y-79667000D01*
X124689928Y-79710000D01*
X124693000Y-79724250D01*
X124851750Y-79883000D01*
X126176000Y-79883000D01*
X126176000Y-79863000D01*
X126430000Y-79863000D01*
X126430000Y-79883000D01*
X126450000Y-79883000D01*
X126450000Y-80137000D01*
X126430000Y-80137000D01*
X126430000Y-80786250D01*
X126588750Y-80945000D01*
X127278000Y-80948072D01*
X127402482Y-80935812D01*
X127522180Y-80899502D01*
X127574000Y-80871803D01*
X127574001Y-83640082D01*
X127574000Y-83640092D01*
X127574001Y-92522893D01*
X124238493Y-89187385D01*
X124347000Y-89198072D01*
X124936250Y-89195000D01*
X125095000Y-89036250D01*
X125095000Y-87974500D01*
X125349000Y-87974500D01*
X125349000Y-89036250D01*
X125507750Y-89195000D01*
X126097000Y-89198072D01*
X126221482Y-89185812D01*
X126341180Y-89149502D01*
X126451494Y-89090537D01*
X126548185Y-89011185D01*
X126627537Y-88914494D01*
X126686502Y-88804180D01*
X126722812Y-88684482D01*
X126735072Y-88560000D01*
X126732000Y-88133250D01*
X126573250Y-87974500D01*
X125349000Y-87974500D01*
X125095000Y-87974500D01*
X123870750Y-87974500D01*
X123712000Y-88133250D01*
X123708928Y-88560000D01*
X123719615Y-88668507D01*
X122186108Y-87135000D01*
X123708928Y-87135000D01*
X123712000Y-87561750D01*
X123870750Y-87720500D01*
X125095000Y-87720500D01*
X125095000Y-86658750D01*
X125349000Y-86658750D01*
X125349000Y-87720500D01*
X126573250Y-87720500D01*
X126732000Y-87561750D01*
X126735072Y-87135000D01*
X126722812Y-87010518D01*
X126686502Y-86890820D01*
X126627537Y-86780506D01*
X126548185Y-86683815D01*
X126451494Y-86604463D01*
X126341180Y-86545498D01*
X126221482Y-86509188D01*
X126097000Y-86496928D01*
X125507750Y-86500000D01*
X125349000Y-86658750D01*
X125095000Y-86658750D01*
X124936250Y-86500000D01*
X124347000Y-86496928D01*
X124222518Y-86509188D01*
X124102820Y-86545498D01*
X123992506Y-86604463D01*
X123895815Y-86683815D01*
X123816463Y-86780506D01*
X123757498Y-86890820D01*
X123721188Y-87010518D01*
X123708928Y-87135000D01*
X122186108Y-87135000D01*
X121895973Y-86844866D01*
X121862239Y-86803761D01*
X121698244Y-86669174D01*
X121511144Y-86569167D01*
X121308129Y-86507583D01*
X121149909Y-86492000D01*
X121149907Y-86492000D01*
X121097000Y-86486789D01*
X121044093Y-86492000D01*
X120355252Y-86492000D01*
X120322000Y-86488725D01*
X119422000Y-86488725D01*
X119289285Y-86501796D01*
X119161670Y-86540508D01*
X119044059Y-86603372D01*
X118940973Y-86687973D01*
X118856372Y-86791059D01*
X118793508Y-86908670D01*
X118754796Y-87036285D01*
X118741725Y-87169000D01*
X118741725Y-87587663D01*
X118699941Y-87553372D01*
X118582330Y-87490508D01*
X118454715Y-87451796D01*
X118322000Y-87438725D01*
X117891657Y-87438725D01*
X117872000Y-87436789D01*
X117852343Y-87438725D01*
X117422000Y-87438725D01*
X117289285Y-87451796D01*
X117161670Y-87490508D01*
X117044059Y-87553372D01*
X116940973Y-87637973D01*
X116856372Y-87741059D01*
X116793508Y-87858670D01*
X116754796Y-87986285D01*
X116741725Y-88119000D01*
X116741725Y-88919000D01*
X116754796Y-89051715D01*
X116793508Y-89179330D01*
X116795001Y-89182123D01*
X116795000Y-94469093D01*
X116789789Y-94522000D01*
X116795000Y-94574907D01*
X116795000Y-94574908D01*
X116810583Y-94733128D01*
X116872167Y-94936143D01*
X116972174Y-95123244D01*
X117106761Y-95287239D01*
X117147866Y-95320973D01*
X118066000Y-96239107D01*
X118023000Y-96455282D01*
X118023000Y-96844718D01*
X118098975Y-97226670D01*
X118248005Y-97586461D01*
X118464364Y-97910264D01*
X118739736Y-98185636D01*
X119063539Y-98401995D01*
X119423330Y-98551025D01*
X119805282Y-98627000D01*
X120194718Y-98627000D01*
X120576670Y-98551025D01*
X120936461Y-98401995D01*
X121260264Y-98185636D01*
X121495900Y-97950000D01*
X123061928Y-97950000D01*
X123074188Y-98074482D01*
X123110498Y-98194180D01*
X123169463Y-98304494D01*
X123248815Y-98401185D01*
X123345506Y-98480537D01*
X123455820Y-98539502D01*
X123575518Y-98575812D01*
X123700000Y-98588072D01*
X124714250Y-98585000D01*
X124873000Y-98426250D01*
X124873000Y-96777000D01*
X125127000Y-96777000D01*
X125127000Y-98426250D01*
X125285750Y-98585000D01*
X126300000Y-98588072D01*
X126424482Y-98575812D01*
X126544180Y-98539502D01*
X126654494Y-98480537D01*
X126751185Y-98401185D01*
X126830537Y-98304494D01*
X126889502Y-98194180D01*
X126925812Y-98074482D01*
X126938072Y-97950000D01*
X126935000Y-96935750D01*
X126776250Y-96777000D01*
X125127000Y-96777000D01*
X124873000Y-96777000D01*
X123223750Y-96777000D01*
X123065000Y-96935750D01*
X123061928Y-97950000D01*
X121495900Y-97950000D01*
X121535636Y-97910264D01*
X121751995Y-97586461D01*
X121901025Y-97226670D01*
X121977000Y-96844718D01*
X121977000Y-96455282D01*
X121901025Y-96073330D01*
X121751995Y-95713539D01*
X121535636Y-95389736D01*
X121495900Y-95350000D01*
X123061928Y-95350000D01*
X123065000Y-96364250D01*
X123223750Y-96523000D01*
X124873000Y-96523000D01*
X124873000Y-94873750D01*
X125127000Y-94873750D01*
X125127000Y-96523000D01*
X126776250Y-96523000D01*
X126935000Y-96364250D01*
X126938072Y-95350000D01*
X126925812Y-95225518D01*
X126889502Y-95105820D01*
X126830537Y-94995506D01*
X126751185Y-94898815D01*
X126654494Y-94819463D01*
X126544180Y-94760498D01*
X126424482Y-94724188D01*
X126300000Y-94711928D01*
X125285750Y-94715000D01*
X125127000Y-94873750D01*
X124873000Y-94873750D01*
X124714250Y-94715000D01*
X123700000Y-94711928D01*
X123575518Y-94724188D01*
X123455820Y-94760498D01*
X123345506Y-94819463D01*
X123248815Y-94898815D01*
X123169463Y-94995506D01*
X123110498Y-95105820D01*
X123074188Y-95225518D01*
X123061928Y-95350000D01*
X121495900Y-95350000D01*
X121260264Y-95114364D01*
X120936461Y-94898005D01*
X120576670Y-94748975D01*
X120194718Y-94673000D01*
X119805282Y-94673000D01*
X119589107Y-94716000D01*
X118949000Y-94075893D01*
X118949000Y-90293603D01*
X118970815Y-90320185D01*
X119067506Y-90399537D01*
X119177820Y-90458502D01*
X119297518Y-90494812D01*
X119422000Y-90507072D01*
X119586250Y-90504000D01*
X119745000Y-90345250D01*
X119745000Y-89596000D01*
X119999000Y-89596000D01*
X119999000Y-90345250D01*
X120157750Y-90504000D01*
X120322000Y-90507072D01*
X120446482Y-90494812D01*
X120566180Y-90458502D01*
X120676494Y-90399537D01*
X120773185Y-90320185D01*
X120852537Y-90223494D01*
X120911502Y-90113180D01*
X120947812Y-89993482D01*
X120960072Y-89869000D01*
X120957000Y-89754750D01*
X120798250Y-89596000D01*
X119999000Y-89596000D01*
X119745000Y-89596000D01*
X119725000Y-89596000D01*
X119725000Y-89342000D01*
X119745000Y-89342000D01*
X119745000Y-89322000D01*
X119999000Y-89322000D01*
X119999000Y-89342000D01*
X120798250Y-89342000D01*
X120957000Y-89183250D01*
X120960072Y-89069000D01*
X120947812Y-88944518D01*
X120947116Y-88942223D01*
X127852037Y-95847145D01*
X127885762Y-95888239D01*
X127926856Y-95921964D01*
X127926858Y-95921966D01*
X127926863Y-95921970D01*
X129757032Y-97752140D01*
X129790761Y-97793239D01*
X129831858Y-97826966D01*
X129954755Y-97927826D01*
X130013984Y-97959484D01*
X130141856Y-98027833D01*
X130344871Y-98089417D01*
X130503091Y-98105000D01*
X130503093Y-98105000D01*
X130556000Y-98110211D01*
X130608907Y-98105000D01*
X135020039Y-98105000D01*
X135064372Y-98187941D01*
X135148973Y-98291027D01*
X135252059Y-98375628D01*
X135369670Y-98438492D01*
X135497285Y-98477204D01*
X135630000Y-98490275D01*
X137230000Y-98490275D01*
X137362715Y-98477204D01*
X137490330Y-98438492D01*
X137607941Y-98375628D01*
X137711027Y-98291027D01*
X137795628Y-98187941D01*
X137858492Y-98070330D01*
X137879006Y-98002702D01*
X139416903Y-98002702D01*
X139488486Y-98246671D01*
X139743996Y-98367571D01*
X140018184Y-98436300D01*
X140300512Y-98450217D01*
X140580130Y-98408787D01*
X140846292Y-98313603D01*
X140971514Y-98246671D01*
X141043097Y-98002702D01*
X140230000Y-97189605D01*
X139416903Y-98002702D01*
X137879006Y-98002702D01*
X137897204Y-97942715D01*
X137910275Y-97810000D01*
X137910275Y-97080512D01*
X138789783Y-97080512D01*
X138831213Y-97360130D01*
X138926397Y-97626292D01*
X138993329Y-97751514D01*
X139237298Y-97823097D01*
X140050395Y-97010000D01*
X140409605Y-97010000D01*
X141222702Y-97823097D01*
X141466671Y-97751514D01*
X141587571Y-97496004D01*
X141656300Y-97221816D01*
X141670217Y-96939488D01*
X141628787Y-96659870D01*
X141533603Y-96393708D01*
X141466671Y-96268486D01*
X141222702Y-96196903D01*
X140409605Y-97010000D01*
X140050395Y-97010000D01*
X139237298Y-96196903D01*
X138993329Y-96268486D01*
X138872429Y-96523996D01*
X138803700Y-96798184D01*
X138789783Y-97080512D01*
X137910275Y-97080512D01*
X137910275Y-96210000D01*
X137897204Y-96077285D01*
X137879007Y-96017298D01*
X139416903Y-96017298D01*
X140230000Y-96830395D01*
X141043097Y-96017298D01*
X140971514Y-95773329D01*
X140716004Y-95652429D01*
X140441816Y-95583700D01*
X140159488Y-95569783D01*
X139879870Y-95611213D01*
X139613708Y-95706397D01*
X139488486Y-95773329D01*
X139416903Y-96017298D01*
X137879007Y-96017298D01*
X137858492Y-95949670D01*
X137795628Y-95832059D01*
X137711027Y-95728973D01*
X137607941Y-95644372D01*
X137490330Y-95581508D01*
X137362715Y-95542796D01*
X137230000Y-95529725D01*
X135630000Y-95529725D01*
X135497285Y-95542796D01*
X135369670Y-95581508D01*
X135252059Y-95644372D01*
X135148973Y-95728973D01*
X135064372Y-95832059D01*
X135001508Y-95949670D01*
X135001105Y-95951000D01*
X131002108Y-95951000D01*
X130401108Y-95350000D01*
X148019725Y-95350000D01*
X148019725Y-97950000D01*
X148032796Y-98082715D01*
X148071508Y-98210330D01*
X148134372Y-98327941D01*
X148218973Y-98431027D01*
X148322059Y-98515628D01*
X148439670Y-98578492D01*
X148567285Y-98617204D01*
X148700000Y-98630275D01*
X151300000Y-98630275D01*
X151432715Y-98617204D01*
X151560330Y-98578492D01*
X151677941Y-98515628D01*
X151781027Y-98431027D01*
X151865628Y-98327941D01*
X151928492Y-98210330D01*
X151967204Y-98082715D01*
X151975426Y-97999224D01*
X153830381Y-97999224D01*
X153962317Y-98294312D01*
X154303045Y-98465159D01*
X154670557Y-98566250D01*
X155050729Y-98593701D01*
X155428951Y-98546457D01*
X155790690Y-98426333D01*
X156037683Y-98294312D01*
X156169619Y-97999224D01*
X155000000Y-96829605D01*
X153830381Y-97999224D01*
X151975426Y-97999224D01*
X151980275Y-97950000D01*
X151980275Y-96700729D01*
X153056299Y-96700729D01*
X153103543Y-97078951D01*
X153223667Y-97440690D01*
X153355688Y-97687683D01*
X153650776Y-97819619D01*
X154820395Y-96650000D01*
X155179605Y-96650000D01*
X156349224Y-97819619D01*
X156644312Y-97687683D01*
X156815159Y-97346955D01*
X156916250Y-96979443D01*
X156943701Y-96599271D01*
X156925716Y-96455282D01*
X158023000Y-96455282D01*
X158023000Y-96844718D01*
X158098975Y-97226670D01*
X158248005Y-97586461D01*
X158464364Y-97910264D01*
X158739736Y-98185636D01*
X159063539Y-98401995D01*
X159423330Y-98551025D01*
X159805282Y-98627000D01*
X160194718Y-98627000D01*
X160576670Y-98551025D01*
X160936461Y-98401995D01*
X161260264Y-98185636D01*
X161446676Y-97999224D01*
X163830381Y-97999224D01*
X163962317Y-98294312D01*
X164303045Y-98465159D01*
X164670557Y-98566250D01*
X165050729Y-98593701D01*
X165428951Y-98546457D01*
X165790690Y-98426333D01*
X166037683Y-98294312D01*
X166169619Y-97999224D01*
X165000000Y-96829605D01*
X163830381Y-97999224D01*
X161446676Y-97999224D01*
X161535636Y-97910264D01*
X161751995Y-97586461D01*
X161901025Y-97226670D01*
X161977000Y-96844718D01*
X161977000Y-96700729D01*
X163056299Y-96700729D01*
X163103543Y-97078951D01*
X163223667Y-97440690D01*
X163355688Y-97687683D01*
X163650776Y-97819619D01*
X164820395Y-96650000D01*
X165179605Y-96650000D01*
X166349224Y-97819619D01*
X166644312Y-97687683D01*
X166815159Y-97346955D01*
X166916250Y-96979443D01*
X166943701Y-96599271D01*
X166896457Y-96221049D01*
X166776333Y-95859310D01*
X166644312Y-95612317D01*
X166349224Y-95480381D01*
X165179605Y-96650000D01*
X164820395Y-96650000D01*
X163650776Y-95480381D01*
X163355688Y-95612317D01*
X163184841Y-95953045D01*
X163083750Y-96320557D01*
X163056299Y-96700729D01*
X161977000Y-96700729D01*
X161977000Y-96455282D01*
X161901025Y-96073330D01*
X161751995Y-95713539D01*
X161535636Y-95389736D01*
X161446676Y-95300776D01*
X163830381Y-95300776D01*
X165000000Y-96470395D01*
X166169619Y-95300776D01*
X166037683Y-95005688D01*
X165696955Y-94834841D01*
X165329443Y-94733750D01*
X164949271Y-94706299D01*
X164571049Y-94753543D01*
X164209310Y-94873667D01*
X163962317Y-95005688D01*
X163830381Y-95300776D01*
X161446676Y-95300776D01*
X161260264Y-95114364D01*
X161077000Y-94991910D01*
X161077000Y-90136291D01*
X161117804Y-90102804D01*
X161233495Y-89961833D01*
X161319462Y-89801001D01*
X161332810Y-89757000D01*
X164958805Y-89757000D01*
X164999849Y-89784425D01*
X165195851Y-89865611D01*
X165403925Y-89907000D01*
X165616075Y-89907000D01*
X165824149Y-89865611D01*
X166020151Y-89784425D01*
X166196547Y-89666560D01*
X166346560Y-89516547D01*
X166464425Y-89340151D01*
X166545611Y-89144149D01*
X166587000Y-88936075D01*
X166587000Y-88723925D01*
X166545611Y-88515851D01*
X166464425Y-88319849D01*
X166349599Y-88148000D01*
X166791725Y-88148000D01*
X166791725Y-89398000D01*
X166809600Y-89579488D01*
X166862538Y-89754001D01*
X166948505Y-89914833D01*
X167064196Y-90055804D01*
X167107500Y-90091343D01*
X167107501Y-91277425D01*
X167071000Y-91460925D01*
X167071000Y-91673075D01*
X167112389Y-91881149D01*
X167193575Y-92077151D01*
X167311440Y-92253547D01*
X167461453Y-92403560D01*
X167637849Y-92521425D01*
X167833851Y-92602611D01*
X168041925Y-92644000D01*
X168254075Y-92644000D01*
X168462149Y-92602611D01*
X168658151Y-92521425D01*
X168834547Y-92403560D01*
X168908634Y-92329473D01*
X168949739Y-92295739D01*
X168983473Y-92254634D01*
X168984560Y-92253547D01*
X168985414Y-92252268D01*
X169084326Y-92131744D01*
X169184333Y-91944644D01*
X169245917Y-91741629D01*
X169261500Y-91583409D01*
X169261500Y-90091342D01*
X169304804Y-90055804D01*
X169420495Y-89914833D01*
X169506462Y-89754001D01*
X169559400Y-89579488D01*
X169577275Y-89398000D01*
X169577275Y-88148000D01*
X169559400Y-87966512D01*
X169506462Y-87791999D01*
X169420495Y-87631167D01*
X169304804Y-87490196D01*
X169163833Y-87374505D01*
X169003001Y-87288538D01*
X168828488Y-87235600D01*
X168647000Y-87217725D01*
X167722000Y-87217725D01*
X167540512Y-87235600D01*
X167365999Y-87288538D01*
X167205167Y-87374505D01*
X167064196Y-87490196D01*
X166948505Y-87631167D01*
X166862538Y-87791999D01*
X166809600Y-87966512D01*
X166791725Y-88148000D01*
X166349599Y-88148000D01*
X166346560Y-88143453D01*
X166196547Y-87993440D01*
X166020151Y-87875575D01*
X165824149Y-87794389D01*
X165616075Y-87753000D01*
X165403925Y-87753000D01*
X165195851Y-87794389D01*
X164999849Y-87875575D01*
X164958805Y-87903000D01*
X161338877Y-87903000D01*
X161319462Y-87838999D01*
X161233495Y-87678167D01*
X161117804Y-87537196D01*
X160976833Y-87421505D01*
X160816001Y-87335538D01*
X160641488Y-87282600D01*
X160460000Y-87264725D01*
X159535000Y-87264725D01*
X159353512Y-87282600D01*
X159178999Y-87335538D01*
X159018167Y-87421505D01*
X158877196Y-87537196D01*
X158761505Y-87678167D01*
X158675538Y-87838999D01*
X158622600Y-88013512D01*
X158604725Y-88195000D01*
X158604725Y-89445000D01*
X158622600Y-89626488D01*
X158675538Y-89801001D01*
X158761505Y-89961833D01*
X158877196Y-90102804D01*
X158923001Y-90140395D01*
X158923000Y-94991910D01*
X158739736Y-95114364D01*
X158464364Y-95389736D01*
X158248005Y-95713539D01*
X158098975Y-96073330D01*
X158023000Y-96455282D01*
X156925716Y-96455282D01*
X156896457Y-96221049D01*
X156776333Y-95859310D01*
X156644312Y-95612317D01*
X156349224Y-95480381D01*
X155179605Y-96650000D01*
X154820395Y-96650000D01*
X153650776Y-95480381D01*
X153355688Y-95612317D01*
X153184841Y-95953045D01*
X153083750Y-96320557D01*
X153056299Y-96700729D01*
X151980275Y-96700729D01*
X151980275Y-95350000D01*
X151975427Y-95300776D01*
X153830381Y-95300776D01*
X155000000Y-96470395D01*
X156169619Y-95300776D01*
X156037683Y-95005688D01*
X155696955Y-94834841D01*
X155329443Y-94733750D01*
X154949271Y-94706299D01*
X154571049Y-94753543D01*
X154209310Y-94873667D01*
X153962317Y-95005688D01*
X153830381Y-95300776D01*
X151975427Y-95300776D01*
X151967204Y-95217285D01*
X151928492Y-95089670D01*
X151865628Y-94972059D01*
X151781027Y-94868973D01*
X151677941Y-94784372D01*
X151560330Y-94721508D01*
X151432715Y-94682796D01*
X151300000Y-94669725D01*
X151077000Y-94669725D01*
X151077000Y-90133722D01*
X151090304Y-90122804D01*
X151205995Y-89981833D01*
X151291962Y-89821001D01*
X151344900Y-89646488D01*
X151362775Y-89465000D01*
X151362775Y-88758200D01*
X151925975Y-88195000D01*
X155629725Y-88195000D01*
X155629725Y-89445000D01*
X155647600Y-89626488D01*
X155700538Y-89801001D01*
X155786505Y-89961833D01*
X155902196Y-90102804D01*
X155945500Y-90138343D01*
X155945501Y-91471420D01*
X155945500Y-91471425D01*
X155945500Y-91683575D01*
X155955874Y-91735726D01*
X155961084Y-91788629D01*
X155976516Y-91839502D01*
X155986889Y-91891649D01*
X156007236Y-91940771D01*
X156022668Y-91991644D01*
X156047727Y-92038526D01*
X156068075Y-92087651D01*
X156097616Y-92131862D01*
X156122675Y-92178744D01*
X156156402Y-92219840D01*
X156185940Y-92264047D01*
X156223533Y-92301640D01*
X156257262Y-92342739D01*
X156298361Y-92376468D01*
X156335953Y-92414060D01*
X156380159Y-92443598D01*
X156421257Y-92477326D01*
X156468142Y-92502386D01*
X156512349Y-92531925D01*
X156561470Y-92552272D01*
X156608357Y-92577333D01*
X156659235Y-92592767D01*
X156708351Y-92613111D01*
X156760491Y-92623482D01*
X156811372Y-92638917D01*
X156864283Y-92644128D01*
X156916425Y-92654500D01*
X156969591Y-92654500D01*
X157022500Y-92659711D01*
X157075409Y-92654500D01*
X157128575Y-92654500D01*
X157180716Y-92644128D01*
X157233629Y-92638917D01*
X157284512Y-92623482D01*
X157336649Y-92613111D01*
X157385762Y-92592768D01*
X157436644Y-92577333D01*
X157483534Y-92552270D01*
X157532651Y-92531925D01*
X157576854Y-92502389D01*
X157623744Y-92477326D01*
X157664847Y-92443594D01*
X157709047Y-92414060D01*
X157746634Y-92376473D01*
X157787739Y-92342739D01*
X157821473Y-92301634D01*
X157859060Y-92264047D01*
X157888594Y-92219847D01*
X157922326Y-92178744D01*
X157947389Y-92131854D01*
X157976925Y-92087651D01*
X157997270Y-92038534D01*
X158022333Y-91991644D01*
X158037768Y-91940762D01*
X158058111Y-91891649D01*
X158068482Y-91839512D01*
X158083917Y-91788629D01*
X158089128Y-91735716D01*
X158099500Y-91683575D01*
X158099500Y-90138342D01*
X158142804Y-90102804D01*
X158258495Y-89961833D01*
X158344462Y-89801001D01*
X158397400Y-89626488D01*
X158415275Y-89445000D01*
X158415275Y-88195000D01*
X158397400Y-88013512D01*
X158344462Y-87838999D01*
X158258495Y-87678167D01*
X158142804Y-87537196D01*
X158001833Y-87421505D01*
X157841001Y-87335538D01*
X157666488Y-87282600D01*
X157485000Y-87264725D01*
X156560000Y-87264725D01*
X156378512Y-87282600D01*
X156203999Y-87335538D01*
X156043167Y-87421505D01*
X155902196Y-87537196D01*
X155786505Y-87678167D01*
X155700538Y-87838999D01*
X155647600Y-88013512D01*
X155629725Y-88195000D01*
X151925975Y-88195000D01*
X153311976Y-86809000D01*
X168716805Y-86809000D01*
X168757849Y-86836425D01*
X168953851Y-86917611D01*
X169161925Y-86959000D01*
X169374075Y-86959000D01*
X169582149Y-86917611D01*
X169778151Y-86836425D01*
X169954547Y-86718560D01*
X170104560Y-86568547D01*
X170222425Y-86392151D01*
X170238213Y-86354035D01*
X170241575Y-86362151D01*
X170269001Y-86403196D01*
X170269000Y-87327022D01*
X170180167Y-87374505D01*
X170039196Y-87490196D01*
X169923505Y-87631167D01*
X169837538Y-87791999D01*
X169784600Y-87966512D01*
X169766725Y-88148000D01*
X169766725Y-89398000D01*
X169784600Y-89579488D01*
X169837538Y-89754001D01*
X169923505Y-89914833D01*
X170039196Y-90055804D01*
X170082501Y-90091343D01*
X170082500Y-93394392D01*
X169275861Y-94201032D01*
X169234762Y-94234761D01*
X169100175Y-94398756D01*
X169000168Y-94585856D01*
X168938583Y-94788871D01*
X168924078Y-94936144D01*
X168918275Y-94995068D01*
X168739736Y-95114364D01*
X168464364Y-95389736D01*
X168248005Y-95713539D01*
X168098975Y-96073330D01*
X168023000Y-96455282D01*
X168023000Y-96844718D01*
X168098975Y-97226670D01*
X168248005Y-97586461D01*
X168464364Y-97910264D01*
X168739736Y-98185636D01*
X169063539Y-98401995D01*
X169423330Y-98551025D01*
X169805282Y-98627000D01*
X170194718Y-98627000D01*
X170576670Y-98551025D01*
X170936461Y-98401995D01*
X171260264Y-98185636D01*
X171446676Y-97999224D01*
X173830381Y-97999224D01*
X173962317Y-98294312D01*
X174303045Y-98465159D01*
X174670557Y-98566250D01*
X175050729Y-98593701D01*
X175428951Y-98546457D01*
X175790690Y-98426333D01*
X176037683Y-98294312D01*
X176169619Y-97999224D01*
X175000000Y-96829605D01*
X173830381Y-97999224D01*
X171446676Y-97999224D01*
X171535636Y-97910264D01*
X171751995Y-97586461D01*
X171901025Y-97226670D01*
X171977000Y-96844718D01*
X171977000Y-96700729D01*
X173056299Y-96700729D01*
X173103543Y-97078951D01*
X173223667Y-97440690D01*
X173355688Y-97687683D01*
X173650776Y-97819619D01*
X174820395Y-96650000D01*
X175179605Y-96650000D01*
X176349224Y-97819619D01*
X176644312Y-97687683D01*
X176815159Y-97346955D01*
X176916250Y-96979443D01*
X176943701Y-96599271D01*
X176896457Y-96221049D01*
X176776333Y-95859310D01*
X176644312Y-95612317D01*
X176349224Y-95480381D01*
X175179605Y-96650000D01*
X174820395Y-96650000D01*
X173650776Y-95480381D01*
X173355688Y-95612317D01*
X173184841Y-95953045D01*
X173083750Y-96320557D01*
X173056299Y-96700729D01*
X171977000Y-96700729D01*
X171977000Y-96455282D01*
X171901025Y-96073330D01*
X171751995Y-95713539D01*
X171535636Y-95389736D01*
X171446676Y-95300776D01*
X173830381Y-95300776D01*
X175000000Y-96470395D01*
X176169619Y-95300776D01*
X176037683Y-95005688D01*
X175696955Y-94834841D01*
X175329443Y-94733750D01*
X174949271Y-94706299D01*
X174571049Y-94753543D01*
X174209310Y-94873667D01*
X173962317Y-95005688D01*
X173830381Y-95300776D01*
X171446676Y-95300776D01*
X171334504Y-95188604D01*
X171883640Y-94639468D01*
X171924739Y-94605739D01*
X171993663Y-94521755D01*
X172059326Y-94441745D01*
X172159332Y-94254645D01*
X172159333Y-94254644D01*
X172220917Y-94051629D01*
X172225986Y-94000167D01*
X172241711Y-93840500D01*
X172236500Y-93787591D01*
X172236500Y-90091342D01*
X172279804Y-90055804D01*
X172395495Y-89914833D01*
X172481462Y-89754001D01*
X172534400Y-89579488D01*
X172552275Y-89398000D01*
X172552275Y-88148000D01*
X172534400Y-87966512D01*
X172481462Y-87791999D01*
X172395495Y-87631167D01*
X172279804Y-87490196D01*
X172138833Y-87374505D01*
X172123000Y-87366042D01*
X172123000Y-86403195D01*
X172150425Y-86362151D01*
X172231611Y-86166149D01*
X172273000Y-85958075D01*
X172273000Y-85745925D01*
X172231611Y-85537851D01*
X172150425Y-85341849D01*
X172032560Y-85165453D01*
X171882547Y-85015440D01*
X171706151Y-84897575D01*
X171510149Y-84816389D01*
X171302075Y-84775000D01*
X171089925Y-84775000D01*
X170881851Y-84816389D01*
X170685849Y-84897575D01*
X170509453Y-85015440D01*
X170359440Y-85165453D01*
X170241575Y-85341849D01*
X170225787Y-85379965D01*
X170222425Y-85371849D01*
X170104560Y-85195453D01*
X169954547Y-85045440D01*
X169778151Y-84927575D01*
X169582149Y-84846389D01*
X169374075Y-84805000D01*
X169161925Y-84805000D01*
X168953851Y-84846389D01*
X168757849Y-84927575D01*
X168716805Y-84955000D01*
X152973527Y-84955000D01*
X152928000Y-84950516D01*
X152882473Y-84955000D01*
X152882462Y-84955000D01*
X152746276Y-84968413D01*
X152571536Y-85021420D01*
X152410494Y-85107498D01*
X152304712Y-85194312D01*
X152304708Y-85194316D01*
X152269341Y-85223341D01*
X152240316Y-85258708D01*
X150214300Y-87284725D01*
X149507500Y-87284725D01*
X149326012Y-87302600D01*
X149151499Y-87355538D01*
X148990667Y-87441505D01*
X148849696Y-87557196D01*
X148734005Y-87698167D01*
X148648038Y-87858999D01*
X148595100Y-88033512D01*
X148577225Y-88215000D01*
X148577225Y-89465000D01*
X148595100Y-89646488D01*
X148648038Y-89821001D01*
X148734005Y-89981833D01*
X148849696Y-90122804D01*
X148923001Y-90182963D01*
X148923000Y-94669725D01*
X148700000Y-94669725D01*
X148567285Y-94682796D01*
X148439670Y-94721508D01*
X148322059Y-94784372D01*
X148218973Y-94868973D01*
X148134372Y-94972059D01*
X148071508Y-95089670D01*
X148032796Y-95217285D01*
X148019725Y-95350000D01*
X130401108Y-95350000D01*
X129728000Y-94676893D01*
X129728000Y-88560000D01*
X129804928Y-88560000D01*
X129817188Y-88684482D01*
X129853498Y-88804180D01*
X129912463Y-88914494D01*
X129991815Y-89011185D01*
X130088506Y-89090537D01*
X130198820Y-89149502D01*
X130318518Y-89185812D01*
X130443000Y-89198072D01*
X131032250Y-89195000D01*
X131191000Y-89036250D01*
X131191000Y-87974500D01*
X131445000Y-87974500D01*
X131445000Y-89036250D01*
X131603750Y-89195000D01*
X132193000Y-89198072D01*
X132317482Y-89185812D01*
X132437180Y-89149502D01*
X132547494Y-89090537D01*
X132644185Y-89011185D01*
X132723537Y-88914494D01*
X132782502Y-88804180D01*
X132818812Y-88684482D01*
X132831072Y-88560000D01*
X132828000Y-88133250D01*
X132669250Y-87974500D01*
X131445000Y-87974500D01*
X131191000Y-87974500D01*
X129966750Y-87974500D01*
X129808000Y-88133250D01*
X129804928Y-88560000D01*
X129728000Y-88560000D01*
X129728000Y-87135000D01*
X129804928Y-87135000D01*
X129808000Y-87561750D01*
X129966750Y-87720500D01*
X131191000Y-87720500D01*
X131191000Y-86658750D01*
X131445000Y-86658750D01*
X131445000Y-87720500D01*
X132669250Y-87720500D01*
X132828000Y-87561750D01*
X132831072Y-87135000D01*
X132818812Y-87010518D01*
X132782502Y-86890820D01*
X132723537Y-86780506D01*
X132644185Y-86683815D01*
X132547494Y-86604463D01*
X132437180Y-86545498D01*
X132317482Y-86509188D01*
X132193000Y-86496928D01*
X131603750Y-86500000D01*
X131445000Y-86658750D01*
X131191000Y-86658750D01*
X131032250Y-86500000D01*
X130443000Y-86496928D01*
X130318518Y-86509188D01*
X130198820Y-86545498D01*
X130088506Y-86604463D01*
X129991815Y-86683815D01*
X129912463Y-86780506D01*
X129853498Y-86890820D01*
X129817188Y-87010518D01*
X129804928Y-87135000D01*
X129728000Y-87135000D01*
X129728000Y-80603218D01*
X129737652Y-80621276D01*
X129840907Y-80747093D01*
X129966724Y-80850348D01*
X130110268Y-80927074D01*
X130266021Y-80974321D01*
X130326000Y-80980229D01*
X130326001Y-83556417D01*
X130176167Y-83636505D01*
X130035196Y-83752196D01*
X129919505Y-83893167D01*
X129833538Y-84053999D01*
X129780600Y-84228512D01*
X129762725Y-84410000D01*
X129762725Y-85335000D01*
X129780600Y-85516488D01*
X129833538Y-85691001D01*
X129919505Y-85851833D01*
X130035196Y-85992804D01*
X130176167Y-86108495D01*
X130336999Y-86194462D01*
X130511512Y-86247400D01*
X130693000Y-86265275D01*
X131943000Y-86265275D01*
X132124488Y-86247400D01*
X132299001Y-86194462D01*
X132459833Y-86108495D01*
X132509093Y-86068068D01*
X134911816Y-88470792D01*
X134940841Y-88506159D01*
X134976208Y-88535184D01*
X134976211Y-88535187D01*
X135081994Y-88622001D01*
X135149862Y-88658277D01*
X135243036Y-88708080D01*
X135417776Y-88761087D01*
X135475396Y-88766762D01*
X135507505Y-88826833D01*
X135623196Y-88967804D01*
X135764167Y-89083495D01*
X135924999Y-89169462D01*
X136099512Y-89222400D01*
X136281000Y-89240275D01*
X137531000Y-89240275D01*
X137712488Y-89222400D01*
X137887001Y-89169462D01*
X138047833Y-89083495D01*
X138188804Y-88967804D01*
X138304495Y-88826833D01*
X138390462Y-88666001D01*
X138443400Y-88491488D01*
X138461275Y-88310000D01*
X138461275Y-87385000D01*
X138443400Y-87203512D01*
X138390462Y-87028999D01*
X138304495Y-86868167D01*
X138188804Y-86727196D01*
X138047833Y-86611505D01*
X137887001Y-86525538D01*
X137712488Y-86472600D01*
X137531000Y-86454725D01*
X136281000Y-86454725D01*
X136099512Y-86472600D01*
X135924999Y-86525538D01*
X135764167Y-86611505D01*
X135714907Y-86651931D01*
X133312187Y-84249212D01*
X133283159Y-84213841D01*
X133142005Y-84097999D01*
X132980964Y-84011920D01*
X132806224Y-83958913D01*
X132748604Y-83953238D01*
X132716495Y-83893167D01*
X132600804Y-83752196D01*
X132459833Y-83636505D01*
X132299001Y-83550538D01*
X132180000Y-83514439D01*
X132180000Y-80980229D01*
X132239979Y-80974321D01*
X132395732Y-80927074D01*
X132539276Y-80850348D01*
X132665093Y-80747093D01*
X132768348Y-80621276D01*
X132845074Y-80477732D01*
X132892321Y-80321979D01*
X132908275Y-80160000D01*
X132908275Y-79860000D01*
X132904040Y-79817000D01*
X133932091Y-79817000D01*
X133985000Y-79822211D01*
X134037909Y-79817000D01*
X134196129Y-79801417D01*
X134399144Y-79739833D01*
X134586244Y-79639826D01*
X134750239Y-79505239D01*
X134884826Y-79341244D01*
X134984833Y-79154144D01*
X135046417Y-78951129D01*
X135067211Y-78740000D01*
X135062000Y-78687091D01*
X135062000Y-73077909D01*
X135067211Y-73025000D01*
X135046417Y-72813870D01*
X134984833Y-72610855D01*
X134884826Y-72423755D01*
X134800085Y-72320499D01*
X134750239Y-72259761D01*
X134709140Y-72226032D01*
X133132973Y-70649865D01*
X133099239Y-70608761D01*
X132935244Y-70474174D01*
X132748144Y-70374167D01*
X132545129Y-70312583D01*
X132386909Y-70297000D01*
X132386907Y-70297000D01*
X132334000Y-70291789D01*
X132281093Y-70297000D01*
X131536149Y-70297000D01*
X131501495Y-70232167D01*
X131385804Y-70091196D01*
X131244833Y-69975505D01*
X131084001Y-69889538D01*
X130909488Y-69836600D01*
X130728000Y-69818725D01*
X129803000Y-69818725D01*
X129621512Y-69836600D01*
X129446999Y-69889538D01*
X129286167Y-69975505D01*
X129145196Y-70091196D01*
X129029505Y-70232167D01*
X128943538Y-70392999D01*
X128890600Y-70567512D01*
X128872725Y-70749000D01*
X128872725Y-71999000D01*
X128890600Y-72180488D01*
X128943538Y-72355001D01*
X129029505Y-72515833D01*
X129145196Y-72656804D01*
X129286167Y-72772495D01*
X129446999Y-72858462D01*
X129621512Y-72911400D01*
X129803000Y-72929275D01*
X130728000Y-72929275D01*
X130909488Y-72911400D01*
X131084001Y-72858462D01*
X131244833Y-72772495D01*
X131385804Y-72656804D01*
X131501495Y-72515833D01*
X131536149Y-72451000D01*
X131887893Y-72451000D01*
X132908001Y-73471109D01*
X132908000Y-76047213D01*
X132892321Y-75888021D01*
X132845074Y-75732268D01*
X132768348Y-75588724D01*
X132665093Y-75462907D01*
X132539276Y-75359652D01*
X132395732Y-75282926D01*
X132239979Y-75235679D01*
X132078000Y-75219725D01*
X130428000Y-75219725D01*
X130266021Y-75235679D01*
X130142990Y-75273000D01*
X127413010Y-75273000D01*
X127380000Y-75262986D01*
X127380000Y-72929275D01*
X127753000Y-72929275D01*
X127934488Y-72911400D01*
X128109001Y-72858462D01*
X128269833Y-72772495D01*
X128410804Y-72656804D01*
X128526495Y-72515833D01*
X128612462Y-72355001D01*
X128665400Y-72180488D01*
X128683275Y-71999000D01*
X128683275Y-70749000D01*
X128665400Y-70567512D01*
X128612462Y-70392999D01*
X128526495Y-70232167D01*
X128410804Y-70091196D01*
X128269833Y-69975505D01*
X128109001Y-69889538D01*
X127934488Y-69836600D01*
X127753000Y-69818725D01*
X126828000Y-69818725D01*
X126646512Y-69836600D01*
X126471999Y-69889538D01*
X126311167Y-69975505D01*
X126170196Y-70091196D01*
X126054505Y-70232167D01*
X125968538Y-70392999D01*
X125915600Y-70567512D01*
X125897725Y-70749000D01*
X125897725Y-71243668D01*
X125578861Y-71562532D01*
X125537762Y-71596261D01*
X125504034Y-71637359D01*
X125403175Y-71760256D01*
X125303168Y-71947356D01*
X125241584Y-72150371D01*
X125220789Y-72361500D01*
X125226001Y-72414417D01*
X125226000Y-75262986D01*
X125160268Y-75282926D01*
X125016724Y-75359652D01*
X124890907Y-75462907D01*
X124787652Y-75588724D01*
X124710926Y-75732268D01*
X124663679Y-75888021D01*
X124647725Y-76050000D01*
X124647725Y-76350000D01*
X124651960Y-76393000D01*
X122112108Y-76393000D01*
X119798145Y-74079037D01*
X119841941Y-74055628D01*
X119945027Y-73971027D01*
X120029628Y-73867941D01*
X120092492Y-73750330D01*
X120131204Y-73622715D01*
X120144275Y-73490000D01*
X120144275Y-71290000D01*
X120131204Y-71157285D01*
X120092492Y-71029670D01*
X120029628Y-70912059D01*
X119945027Y-70808973D01*
X119841941Y-70724372D01*
X119724330Y-70661508D01*
X119596715Y-70622796D01*
X119464000Y-70609725D01*
X119441000Y-70609725D01*
X119441000Y-63894820D01*
X119560518Y-63814961D01*
X119821961Y-63553518D01*
X119864000Y-63490602D01*
X119906039Y-63553518D01*
X120167482Y-63814961D01*
X120474907Y-64020376D01*
X120816499Y-64161868D01*
X121179132Y-64234000D01*
X121548868Y-64234000D01*
X121911501Y-64161868D01*
X122253093Y-64020376D01*
X122560518Y-63814961D01*
X122821961Y-63553518D01*
X122901820Y-63434000D01*
X127993418Y-63434000D01*
X128047372Y-63534941D01*
X128131973Y-63638027D01*
X128235059Y-63722628D01*
X128336000Y-63776582D01*
X128336000Y-64082093D01*
X128330789Y-64135000D01*
X128336000Y-64187907D01*
X128336000Y-64187908D01*
X128351583Y-64346128D01*
X128413167Y-64549143D01*
X128513174Y-64736244D01*
X128647761Y-64900239D01*
X128688866Y-64933973D01*
X135829001Y-72074109D01*
X135829000Y-83601851D01*
X135764167Y-83636505D01*
X135623196Y-83752196D01*
X135507505Y-83893167D01*
X135421538Y-84053999D01*
X135368600Y-84228512D01*
X135350725Y-84410000D01*
X135350725Y-85335000D01*
X135368600Y-85516488D01*
X135421538Y-85691001D01*
X135507505Y-85851833D01*
X135623196Y-85992804D01*
X135764167Y-86108495D01*
X135924999Y-86194462D01*
X136099512Y-86247400D01*
X136281000Y-86265275D01*
X137531000Y-86265275D01*
X137712488Y-86247400D01*
X137887001Y-86194462D01*
X138047833Y-86108495D01*
X138188804Y-85992804D01*
X138224342Y-85949500D01*
X139766000Y-85949500D01*
X139766001Y-89609083D01*
X139760789Y-89662000D01*
X139780844Y-89865611D01*
X139781584Y-89873129D01*
X139843168Y-90076144D01*
X139943175Y-90263244D01*
X140077762Y-90427239D01*
X140118861Y-90460968D01*
X141949036Y-92291144D01*
X141982765Y-92332243D01*
X142146760Y-92466830D01*
X142333860Y-92566837D01*
X142536875Y-92628421D01*
X142695095Y-92644004D01*
X142695096Y-92644004D01*
X142748003Y-92649215D01*
X142800910Y-92644004D01*
X145616093Y-92644004D01*
X145669000Y-92649215D01*
X145721907Y-92644004D01*
X145775075Y-92644004D01*
X145827216Y-92633632D01*
X145880129Y-92628421D01*
X145931012Y-92612986D01*
X145983149Y-92602615D01*
X146032262Y-92582272D01*
X146083144Y-92566837D01*
X146130034Y-92541774D01*
X146179151Y-92521429D01*
X146223354Y-92491893D01*
X146270244Y-92466830D01*
X146311347Y-92433098D01*
X146355547Y-92403564D01*
X146393134Y-92365977D01*
X146434239Y-92332243D01*
X146467973Y-92291138D01*
X146505560Y-92253551D01*
X147719140Y-91039972D01*
X147760239Y-91006243D01*
X147894826Y-90842248D01*
X147994833Y-90655148D01*
X148056417Y-90452133D01*
X148072000Y-90293913D01*
X148072000Y-90293912D01*
X148077211Y-90241005D01*
X148072000Y-90188098D01*
X148072000Y-90158342D01*
X148115304Y-90122804D01*
X148230995Y-89981833D01*
X148316962Y-89821001D01*
X148369900Y-89646488D01*
X148387775Y-89465000D01*
X148387775Y-88215000D01*
X148369900Y-88033512D01*
X148316962Y-87858999D01*
X148230995Y-87698167D01*
X148115304Y-87557196D01*
X147974333Y-87441505D01*
X147813501Y-87355538D01*
X147638988Y-87302600D01*
X147457500Y-87284725D01*
X146532500Y-87284725D01*
X146351012Y-87302600D01*
X146176499Y-87355538D01*
X146015667Y-87441505D01*
X145874696Y-87557196D01*
X145759005Y-87698167D01*
X145673038Y-87858999D01*
X145620100Y-88033512D01*
X145602225Y-88215000D01*
X145602225Y-89465000D01*
X145620100Y-89646488D01*
X145673038Y-89821001D01*
X145749272Y-89963624D01*
X145222893Y-90490004D01*
X143194112Y-90490004D01*
X141920000Y-89215893D01*
X141920000Y-85949500D01*
X148119593Y-85949500D01*
X148172500Y-85954711D01*
X148225407Y-85949500D01*
X148225409Y-85949500D01*
X148383629Y-85933917D01*
X148586644Y-85872333D01*
X148773744Y-85772326D01*
X148937739Y-85637739D01*
X148971472Y-85596635D01*
X150215608Y-84352500D01*
X151208658Y-84352500D01*
X151244196Y-84395804D01*
X151385167Y-84511495D01*
X151545999Y-84597462D01*
X151720512Y-84650400D01*
X151902000Y-84668275D01*
X153152000Y-84668275D01*
X153333488Y-84650400D01*
X153508001Y-84597462D01*
X153668833Y-84511495D01*
X153809804Y-84395804D01*
X153815388Y-84389000D01*
X156189075Y-84389000D01*
X156241216Y-84378628D01*
X156294129Y-84373417D01*
X156345012Y-84357982D01*
X156397149Y-84347611D01*
X156446262Y-84327268D01*
X156497144Y-84311833D01*
X156544034Y-84286770D01*
X156593151Y-84266425D01*
X156637354Y-84236889D01*
X156684244Y-84211826D01*
X156725347Y-84178094D01*
X156769547Y-84148560D01*
X156807134Y-84110973D01*
X156848239Y-84077239D01*
X156881973Y-84036134D01*
X156919560Y-83998547D01*
X156949094Y-83954347D01*
X156982826Y-83913244D01*
X157007889Y-83866354D01*
X157037425Y-83822151D01*
X157057770Y-83773034D01*
X157082833Y-83726144D01*
X157098268Y-83675262D01*
X157118611Y-83626149D01*
X157128982Y-83574012D01*
X157144417Y-83523129D01*
X157149628Y-83470216D01*
X157160000Y-83418075D01*
X157160000Y-83364909D01*
X157165211Y-83312000D01*
X157160000Y-83259091D01*
X157160000Y-83205925D01*
X157149628Y-83153784D01*
X157144417Y-83100871D01*
X157128982Y-83049988D01*
X157118611Y-82997851D01*
X157098268Y-82948738D01*
X157082833Y-82897856D01*
X157057770Y-82850966D01*
X157037425Y-82801849D01*
X157007889Y-82757646D01*
X156982826Y-82710756D01*
X156949094Y-82669653D01*
X156919560Y-82625453D01*
X156881973Y-82587866D01*
X156848239Y-82546761D01*
X156807134Y-82513027D01*
X156769547Y-82475440D01*
X156725347Y-82445906D01*
X156684244Y-82412174D01*
X156637354Y-82387111D01*
X156593151Y-82357575D01*
X156544034Y-82337230D01*
X156497144Y-82312167D01*
X156446262Y-82296732D01*
X156397149Y-82276389D01*
X156345012Y-82266018D01*
X156294129Y-82250583D01*
X156241216Y-82245372D01*
X156189075Y-82235000D01*
X153875297Y-82235000D01*
X153809804Y-82155196D01*
X153668833Y-82039505D01*
X153508001Y-81953538D01*
X153333488Y-81900600D01*
X153152000Y-81882725D01*
X151902000Y-81882725D01*
X151720512Y-81900600D01*
X151545999Y-81953538D01*
X151385167Y-82039505D01*
X151244196Y-82155196D01*
X151208658Y-82198500D01*
X149822406Y-82198500D01*
X149769499Y-82193289D01*
X149716592Y-82198500D01*
X149716591Y-82198500D01*
X149558371Y-82214083D01*
X149355356Y-82275667D01*
X149168256Y-82375674D01*
X149004261Y-82510261D01*
X148970532Y-82551360D01*
X147726393Y-83795500D01*
X140895909Y-83795500D01*
X140843000Y-83790289D01*
X140790091Y-83795500D01*
X138224342Y-83795500D01*
X138188804Y-83752196D01*
X138047833Y-83636505D01*
X137983000Y-83601851D01*
X137983000Y-81129702D01*
X140928903Y-81129702D01*
X141000486Y-81373671D01*
X141255996Y-81494571D01*
X141530184Y-81563300D01*
X141812512Y-81577217D01*
X142092130Y-81535787D01*
X142358292Y-81440603D01*
X142483514Y-81373671D01*
X142555097Y-81129702D01*
X141742000Y-80316605D01*
X140928903Y-81129702D01*
X137983000Y-81129702D01*
X137983000Y-80207512D01*
X140301783Y-80207512D01*
X140343213Y-80487130D01*
X140438397Y-80753292D01*
X140505329Y-80878514D01*
X140749298Y-80950097D01*
X141562395Y-80137000D01*
X141921605Y-80137000D01*
X142734702Y-80950097D01*
X142978671Y-80878514D01*
X143099571Y-80623004D01*
X143168300Y-80348816D01*
X143182217Y-80066488D01*
X143140787Y-79786870D01*
X143045603Y-79520708D01*
X142978671Y-79395486D01*
X142779340Y-79337000D01*
X144061725Y-79337000D01*
X144061725Y-80937000D01*
X144074796Y-81069715D01*
X144113508Y-81197330D01*
X144176372Y-81314941D01*
X144260973Y-81418027D01*
X144364059Y-81502628D01*
X144481670Y-81565492D01*
X144609285Y-81604204D01*
X144742000Y-81617275D01*
X146342000Y-81617275D01*
X146474715Y-81604204D01*
X146602330Y-81565492D01*
X146719941Y-81502628D01*
X146823027Y-81418027D01*
X146907628Y-81314941D01*
X146970492Y-81197330D01*
X147009204Y-81069715D01*
X147009767Y-81064000D01*
X151025854Y-81064000D01*
X151042538Y-81119001D01*
X151128505Y-81279833D01*
X151244196Y-81420804D01*
X151385167Y-81536495D01*
X151545999Y-81622462D01*
X151720512Y-81675400D01*
X151902000Y-81693275D01*
X153152000Y-81693275D01*
X153333488Y-81675400D01*
X153508001Y-81622462D01*
X153668833Y-81536495D01*
X153809804Y-81420804D01*
X153925495Y-81279833D01*
X153953468Y-81227500D01*
X166770758Y-81227500D01*
X166944851Y-81299611D01*
X167152925Y-81341000D01*
X167365075Y-81341000D01*
X167573149Y-81299611D01*
X167769151Y-81218425D01*
X167945547Y-81100560D01*
X168095560Y-80950547D01*
X168213425Y-80774151D01*
X168227570Y-80740000D01*
X171256928Y-80740000D01*
X171269188Y-80864482D01*
X171305498Y-80984180D01*
X171364463Y-81094494D01*
X171443815Y-81191185D01*
X171540506Y-81270537D01*
X171650820Y-81329502D01*
X171770518Y-81365812D01*
X171895000Y-81378072D01*
X171909250Y-81375000D01*
X172068000Y-81216250D01*
X172068000Y-79892000D01*
X172322000Y-79892000D01*
X172322000Y-81216250D01*
X172480750Y-81375000D01*
X172495000Y-81378072D01*
X172619482Y-81365812D01*
X172739180Y-81329502D01*
X172830000Y-81280957D01*
X172920820Y-81329502D01*
X173040518Y-81365812D01*
X173165000Y-81378072D01*
X173179250Y-81375000D01*
X173338000Y-81216250D01*
X173338000Y-79892000D01*
X173592000Y-79892000D01*
X173592000Y-81216250D01*
X173750750Y-81375000D01*
X173765000Y-81378072D01*
X173889482Y-81365812D01*
X174009180Y-81329502D01*
X174100000Y-81280957D01*
X174190820Y-81329502D01*
X174310518Y-81365812D01*
X174435000Y-81378072D01*
X174449250Y-81375000D01*
X174608000Y-81216250D01*
X174608000Y-79892000D01*
X173592000Y-79892000D01*
X173338000Y-79892000D01*
X172322000Y-79892000D01*
X172068000Y-79892000D01*
X171418750Y-79892000D01*
X171260000Y-80050750D01*
X171256928Y-80740000D01*
X168227570Y-80740000D01*
X168294611Y-80578149D01*
X168336000Y-80370075D01*
X168336000Y-80157925D01*
X168294611Y-79949851D01*
X168213425Y-79753849D01*
X168095560Y-79577453D01*
X167945547Y-79427440D01*
X167930566Y-79417430D01*
X168072547Y-79322560D01*
X168222560Y-79172547D01*
X168340425Y-78996151D01*
X168421611Y-78800149D01*
X168423629Y-78790000D01*
X171256928Y-78790000D01*
X171260000Y-79479250D01*
X171418750Y-79638000D01*
X172068000Y-79638000D01*
X172068000Y-78313750D01*
X172322000Y-78313750D01*
X172322000Y-79638000D01*
X173338000Y-79638000D01*
X173338000Y-78313750D01*
X173592000Y-78313750D01*
X173592000Y-79638000D01*
X174608000Y-79638000D01*
X174608000Y-78313750D01*
X174449250Y-78155000D01*
X174435000Y-78151928D01*
X174310518Y-78164188D01*
X174190820Y-78200498D01*
X174100000Y-78249043D01*
X174009180Y-78200498D01*
X173889482Y-78164188D01*
X173765000Y-78151928D01*
X173750750Y-78155000D01*
X173592000Y-78313750D01*
X173338000Y-78313750D01*
X173179250Y-78155000D01*
X173165000Y-78151928D01*
X173040518Y-78164188D01*
X172920820Y-78200498D01*
X172830000Y-78249043D01*
X172739180Y-78200498D01*
X172619482Y-78164188D01*
X172495000Y-78151928D01*
X172480750Y-78155000D01*
X172322000Y-78313750D01*
X172068000Y-78313750D01*
X171909250Y-78155000D01*
X171895000Y-78151928D01*
X171770518Y-78164188D01*
X171650820Y-78200498D01*
X171540506Y-78259463D01*
X171443815Y-78338815D01*
X171364463Y-78435506D01*
X171305498Y-78545820D01*
X171269188Y-78665518D01*
X171256928Y-78790000D01*
X168423629Y-78790000D01*
X168463000Y-78592075D01*
X168463000Y-78379925D01*
X168421611Y-78171851D01*
X168340425Y-77975849D01*
X168222560Y-77799453D01*
X168072547Y-77649440D01*
X167896151Y-77531575D01*
X167700149Y-77450389D01*
X167492075Y-77409000D01*
X167279925Y-77409000D01*
X167071851Y-77450389D01*
X166875849Y-77531575D01*
X166834805Y-77559000D01*
X161460196Y-77559000D01*
X161419152Y-77531575D01*
X161223150Y-77450389D01*
X161015076Y-77409000D01*
X160802926Y-77409000D01*
X160594852Y-77450389D01*
X160398850Y-77531575D01*
X160222454Y-77649440D01*
X160072441Y-77799453D01*
X159954576Y-77975849D01*
X159873390Y-78171851D01*
X159832001Y-78379925D01*
X159832001Y-78592075D01*
X159873390Y-78800149D01*
X159954576Y-78996151D01*
X160072441Y-79172547D01*
X160222454Y-79322560D01*
X160298690Y-79373500D01*
X153953468Y-79373500D01*
X153925495Y-79321167D01*
X153809804Y-79180196D01*
X153668833Y-79064505D01*
X153508001Y-78978538D01*
X153333488Y-78925600D01*
X153152000Y-78907725D01*
X151902000Y-78907725D01*
X151720512Y-78925600D01*
X151545999Y-78978538D01*
X151385167Y-79064505D01*
X151244196Y-79180196D01*
X151219737Y-79210000D01*
X147009767Y-79210000D01*
X147009204Y-79204285D01*
X146970492Y-79076670D01*
X146907628Y-78959059D01*
X146823027Y-78855973D01*
X146719941Y-78771372D01*
X146602330Y-78708508D01*
X146474715Y-78669796D01*
X146342000Y-78656725D01*
X144742000Y-78656725D01*
X144609285Y-78669796D01*
X144481670Y-78708508D01*
X144364059Y-78771372D01*
X144260973Y-78855973D01*
X144176372Y-78959059D01*
X144113508Y-79076670D01*
X144074796Y-79204285D01*
X144061725Y-79337000D01*
X142779340Y-79337000D01*
X142734702Y-79323903D01*
X141921605Y-80137000D01*
X141562395Y-80137000D01*
X140749298Y-79323903D01*
X140505329Y-79395486D01*
X140384429Y-79650996D01*
X140315700Y-79925184D01*
X140301783Y-80207512D01*
X137983000Y-80207512D01*
X137983000Y-79144298D01*
X140928903Y-79144298D01*
X141742000Y-79957395D01*
X142555097Y-79144298D01*
X142483514Y-78900329D01*
X142228004Y-78779429D01*
X141953816Y-78710700D01*
X141671488Y-78696783D01*
X141391870Y-78738213D01*
X141125708Y-78833397D01*
X141000486Y-78900329D01*
X140928903Y-79144298D01*
X137983000Y-79144298D01*
X137983000Y-75987000D01*
X165872928Y-75987000D01*
X165885188Y-76111482D01*
X165921498Y-76231180D01*
X165980463Y-76341494D01*
X166059815Y-76438185D01*
X166156506Y-76517537D01*
X166266820Y-76576502D01*
X166386518Y-76612812D01*
X166511000Y-76625072D01*
X167100250Y-76622000D01*
X167259000Y-76463250D01*
X167259000Y-75401500D01*
X167513000Y-75401500D01*
X167513000Y-76463250D01*
X167671750Y-76622000D01*
X168261000Y-76625072D01*
X168385482Y-76612812D01*
X168505180Y-76576502D01*
X168615494Y-76517537D01*
X168712185Y-76438185D01*
X168791537Y-76341494D01*
X168850502Y-76231180D01*
X168886812Y-76111482D01*
X168899072Y-75987000D01*
X168897654Y-75790000D01*
X171256928Y-75790000D01*
X171269188Y-75914482D01*
X171305498Y-76034180D01*
X171364463Y-76144494D01*
X171443815Y-76241185D01*
X171540506Y-76320537D01*
X171650820Y-76379502D01*
X171770518Y-76415812D01*
X171895000Y-76428072D01*
X171909250Y-76425000D01*
X172068000Y-76266250D01*
X172068000Y-74942000D01*
X171418750Y-74942000D01*
X171260000Y-75100750D01*
X171256928Y-75790000D01*
X168897654Y-75790000D01*
X168896000Y-75560250D01*
X168737250Y-75401500D01*
X167513000Y-75401500D01*
X167259000Y-75401500D01*
X166034750Y-75401500D01*
X165876000Y-75560250D01*
X165872928Y-75987000D01*
X137983000Y-75987000D01*
X137983000Y-74562000D01*
X165872928Y-74562000D01*
X165876000Y-74988750D01*
X166034750Y-75147500D01*
X167259000Y-75147500D01*
X167259000Y-74085750D01*
X167513000Y-74085750D01*
X167513000Y-75147500D01*
X168737250Y-75147500D01*
X168896000Y-74988750D01*
X168899072Y-74562000D01*
X168886812Y-74437518D01*
X168850502Y-74317820D01*
X168791537Y-74207506D01*
X168712185Y-74110815D01*
X168615494Y-74031463D01*
X168505180Y-73972498D01*
X168385482Y-73936188D01*
X168261000Y-73923928D01*
X167671750Y-73927000D01*
X167513000Y-74085750D01*
X167259000Y-74085750D01*
X167100250Y-73927000D01*
X166511000Y-73923928D01*
X166386518Y-73936188D01*
X166266820Y-73972498D01*
X166156506Y-74031463D01*
X166059815Y-74110815D01*
X165980463Y-74207506D01*
X165921498Y-74317820D01*
X165885188Y-74437518D01*
X165872928Y-74562000D01*
X137983000Y-74562000D01*
X137983000Y-73840000D01*
X171256928Y-73840000D01*
X171260000Y-74529250D01*
X171418750Y-74688000D01*
X172068000Y-74688000D01*
X172068000Y-73363750D01*
X171909250Y-73205000D01*
X171895000Y-73201928D01*
X171770518Y-73214188D01*
X171650820Y-73250498D01*
X171540506Y-73309463D01*
X171443815Y-73388815D01*
X171364463Y-73485506D01*
X171305498Y-73595820D01*
X171269188Y-73715518D01*
X171256928Y-73840000D01*
X137983000Y-73840000D01*
X137983000Y-71680906D01*
X137988211Y-71627999D01*
X137982203Y-71567000D01*
X137967417Y-71416871D01*
X137905833Y-71213856D01*
X137805826Y-71026756D01*
X137671239Y-70862761D01*
X137630140Y-70829032D01*
X130547145Y-63746038D01*
X130590941Y-63722628D01*
X130694027Y-63638027D01*
X130778628Y-63534941D01*
X130841492Y-63417330D01*
X130862006Y-63349702D01*
X132399903Y-63349702D01*
X132471486Y-63593671D01*
X132726996Y-63714571D01*
X133001184Y-63783300D01*
X133283512Y-63797217D01*
X133563130Y-63755787D01*
X133829292Y-63660603D01*
X133954514Y-63593671D01*
X134026097Y-63349702D01*
X133213000Y-62536605D01*
X132399903Y-63349702D01*
X130862006Y-63349702D01*
X130880204Y-63289715D01*
X130893275Y-63157000D01*
X130893275Y-62427512D01*
X131772783Y-62427512D01*
X131814213Y-62707130D01*
X131909397Y-62973292D01*
X131976329Y-63098514D01*
X132220298Y-63170097D01*
X133033395Y-62357000D01*
X133392605Y-62357000D01*
X134205702Y-63170097D01*
X134449671Y-63098514D01*
X134570571Y-62843004D01*
X134639300Y-62568816D01*
X134653217Y-62286488D01*
X134611787Y-62006870D01*
X134516603Y-61740708D01*
X134449671Y-61615486D01*
X134205702Y-61543903D01*
X133392605Y-62357000D01*
X133033395Y-62357000D01*
X132220298Y-61543903D01*
X131976329Y-61615486D01*
X131855429Y-61870996D01*
X131786700Y-62145184D01*
X131772783Y-62427512D01*
X130893275Y-62427512D01*
X130893275Y-61557000D01*
X130880204Y-61424285D01*
X130862007Y-61364298D01*
X132399903Y-61364298D01*
X133213000Y-62177395D01*
X134026097Y-61364298D01*
X133954514Y-61120329D01*
X133699004Y-60999429D01*
X133424816Y-60930700D01*
X133142488Y-60916783D01*
X132862870Y-60958213D01*
X132596708Y-61053397D01*
X132471486Y-61120329D01*
X132399903Y-61364298D01*
X130862007Y-61364298D01*
X130841492Y-61296670D01*
X130778628Y-61179059D01*
X130694027Y-61075973D01*
X130590941Y-60991372D01*
X130490000Y-60937418D01*
X130490000Y-60898107D01*
X130838608Y-60549500D01*
X139879501Y-60549500D01*
X139879500Y-68497973D01*
X139875016Y-68543500D01*
X139879500Y-68589027D01*
X139879500Y-68589037D01*
X139892913Y-68725223D01*
X139945920Y-68899963D01*
X140031999Y-69061005D01*
X140118812Y-69166787D01*
X140147841Y-69202159D01*
X140183213Y-69231188D01*
X141679316Y-70727292D01*
X141708341Y-70762659D01*
X141743708Y-70791684D01*
X141743712Y-70791688D01*
X141849494Y-70878501D01*
X141896934Y-70903858D01*
X142010536Y-70964580D01*
X142185276Y-71017587D01*
X142321462Y-71031000D01*
X142321472Y-71031000D01*
X142366999Y-71035484D01*
X142412526Y-71031000D01*
X148841025Y-71031000D01*
X149695001Y-71884976D01*
X149695000Y-72092804D01*
X149667575Y-72133849D01*
X149586389Y-72329851D01*
X149545000Y-72537925D01*
X149545000Y-72750075D01*
X149586389Y-72958149D01*
X149667575Y-73154151D01*
X149785440Y-73330547D01*
X149935453Y-73480560D01*
X150111849Y-73598425D01*
X150307851Y-73679611D01*
X150515925Y-73721000D01*
X150728075Y-73721000D01*
X150936149Y-73679611D01*
X151132151Y-73598425D01*
X151308547Y-73480560D01*
X151458560Y-73330547D01*
X151576425Y-73154151D01*
X151657611Y-72958149D01*
X151699000Y-72750075D01*
X151699000Y-72537925D01*
X151657611Y-72329851D01*
X151576425Y-72133849D01*
X151549000Y-72092805D01*
X151549000Y-71837000D01*
X165830725Y-71837000D01*
X165830725Y-72762000D01*
X165848600Y-72943488D01*
X165901538Y-73118001D01*
X165987505Y-73278833D01*
X166103196Y-73419804D01*
X166244167Y-73535495D01*
X166404999Y-73621462D01*
X166579512Y-73674400D01*
X166761000Y-73692275D01*
X168011000Y-73692275D01*
X168192488Y-73674400D01*
X168367001Y-73621462D01*
X168527833Y-73535495D01*
X168668804Y-73419804D01*
X168784495Y-73278833D01*
X168870462Y-73118001D01*
X168923400Y-72943488D01*
X168941275Y-72762000D01*
X168941275Y-71837000D01*
X168923400Y-71655512D01*
X168870462Y-71480999D01*
X168784495Y-71320167D01*
X168668804Y-71179196D01*
X168527833Y-71063505D01*
X168367001Y-70977538D01*
X168349873Y-70972342D01*
X168421611Y-70799149D01*
X168463000Y-70591075D01*
X168463000Y-70378925D01*
X168421611Y-70170851D01*
X168340425Y-69974849D01*
X168222560Y-69798453D01*
X168072547Y-69648440D01*
X167896151Y-69530575D01*
X167700149Y-69449389D01*
X167492075Y-69408000D01*
X167279925Y-69408000D01*
X167071851Y-69449389D01*
X166875849Y-69530575D01*
X166699453Y-69648440D01*
X166549440Y-69798453D01*
X166431575Y-69974849D01*
X166350389Y-70170851D01*
X166309000Y-70378925D01*
X166309000Y-70591075D01*
X166350389Y-70799149D01*
X166422127Y-70972342D01*
X166404999Y-70977538D01*
X166244167Y-71063505D01*
X166103196Y-71179196D01*
X165987505Y-71320167D01*
X165901538Y-71480999D01*
X165848600Y-71655512D01*
X165830725Y-71837000D01*
X151549000Y-71837000D01*
X151549000Y-71546524D01*
X151553484Y-71500999D01*
X151549000Y-71455474D01*
X151549000Y-71455462D01*
X151535587Y-71319276D01*
X151482580Y-71144536D01*
X151421893Y-71031000D01*
X151396501Y-70983494D01*
X151309687Y-70877711D01*
X151309684Y-70877708D01*
X151280659Y-70842341D01*
X151245292Y-70813316D01*
X149912687Y-69480712D01*
X149883659Y-69445341D01*
X149742505Y-69329499D01*
X149581464Y-69243420D01*
X149406724Y-69190413D01*
X149270538Y-69177000D01*
X149270527Y-69177000D01*
X149225000Y-69172516D01*
X149179473Y-69177000D01*
X142750976Y-69177000D01*
X141733500Y-68159525D01*
X141733500Y-61985000D01*
X143351725Y-61985000D01*
X143351725Y-62910000D01*
X143369600Y-63091488D01*
X143422538Y-63266001D01*
X143508505Y-63426833D01*
X143624196Y-63567804D01*
X143765167Y-63683495D01*
X143925999Y-63769462D01*
X144100512Y-63822400D01*
X144282000Y-63840275D01*
X145079300Y-63840275D01*
X146909759Y-65670734D01*
X146919389Y-65719149D01*
X147000575Y-65915151D01*
X147118440Y-66091547D01*
X147268453Y-66241560D01*
X147444849Y-66359425D01*
X147640851Y-66440611D01*
X147848925Y-66482000D01*
X148061075Y-66482000D01*
X148269149Y-66440611D01*
X148465151Y-66359425D01*
X148641547Y-66241560D01*
X148791560Y-66091547D01*
X148909425Y-65915151D01*
X148990611Y-65719149D01*
X149032000Y-65511075D01*
X149032000Y-65298925D01*
X148990611Y-65090851D01*
X148909425Y-64894849D01*
X148791560Y-64718453D01*
X148641547Y-64568440D01*
X148465151Y-64450575D01*
X148269149Y-64369389D01*
X148220734Y-64359759D01*
X146462275Y-62601300D01*
X146462275Y-61985000D01*
X148304725Y-61985000D01*
X148304725Y-62910000D01*
X148322600Y-63091488D01*
X148375538Y-63266001D01*
X148461505Y-63426833D01*
X148577196Y-63567804D01*
X148718167Y-63683495D01*
X148878999Y-63769462D01*
X149053512Y-63822400D01*
X149235000Y-63840275D01*
X149941800Y-63840275D01*
X153653816Y-67552292D01*
X153682841Y-67587659D01*
X153718208Y-67616684D01*
X153718212Y-67616688D01*
X153823994Y-67703501D01*
X153946532Y-67768999D01*
X153985036Y-67789580D01*
X154159776Y-67842587D01*
X154295962Y-67856000D01*
X154295972Y-67856000D01*
X154341499Y-67860484D01*
X154387026Y-67856000D01*
X166915025Y-67856000D01*
X172372387Y-73313363D01*
X172322000Y-73363750D01*
X172322000Y-74688000D01*
X172342000Y-74688000D01*
X172342000Y-74942000D01*
X172322000Y-74942000D01*
X172322000Y-76266250D01*
X172480750Y-76425000D01*
X172495000Y-76428072D01*
X172619482Y-76415812D01*
X172739180Y-76379502D01*
X172844816Y-76323037D01*
X172853724Y-76330348D01*
X172997268Y-76407074D01*
X173153021Y-76454321D01*
X173315000Y-76470275D01*
X173615000Y-76470275D01*
X173776979Y-76454321D01*
X173932732Y-76407074D01*
X174076276Y-76330348D01*
X174100000Y-76310878D01*
X174123724Y-76330348D01*
X174267268Y-76407074D01*
X174423021Y-76454321D01*
X174585000Y-76470275D01*
X174885000Y-76470275D01*
X175046979Y-76454321D01*
X175202732Y-76407074D01*
X175346276Y-76330348D01*
X175370000Y-76310878D01*
X175393724Y-76330348D01*
X175537268Y-76407074D01*
X175693021Y-76454321D01*
X175855000Y-76470275D01*
X176155000Y-76470275D01*
X176316979Y-76454321D01*
X176472732Y-76407074D01*
X176616276Y-76330348D01*
X176742093Y-76227093D01*
X176845348Y-76101276D01*
X176922074Y-75957732D01*
X176969321Y-75801979D01*
X176985275Y-75640000D01*
X176985275Y-73990000D01*
X176969321Y-73828021D01*
X176949000Y-73761031D01*
X176949000Y-71290195D01*
X176976425Y-71249151D01*
X177057611Y-71053149D01*
X177099000Y-70845075D01*
X177099000Y-70632925D01*
X177057611Y-70424851D01*
X176976425Y-70228849D01*
X176858560Y-70052453D01*
X176708547Y-69902440D01*
X176532151Y-69784575D01*
X176336149Y-69703389D01*
X176128075Y-69662000D01*
X175915925Y-69662000D01*
X175707851Y-69703389D01*
X175511849Y-69784575D01*
X175387000Y-69867997D01*
X175262151Y-69784575D01*
X175066149Y-69703389D01*
X174858075Y-69662000D01*
X174645925Y-69662000D01*
X174437851Y-69703389D01*
X174241849Y-69784575D01*
X174065453Y-69902440D01*
X173915440Y-70052453D01*
X173797575Y-70228849D01*
X173716389Y-70424851D01*
X173675000Y-70632925D01*
X173675000Y-70845075D01*
X173716389Y-71053149D01*
X173797575Y-71249151D01*
X173825001Y-71290196D01*
X173825001Y-72144025D01*
X168266975Y-66586000D01*
X172168805Y-66586000D01*
X172209849Y-66613425D01*
X172405851Y-66694611D01*
X172613925Y-66736000D01*
X172826075Y-66736000D01*
X173034149Y-66694611D01*
X173230151Y-66613425D01*
X173406547Y-66495560D01*
X173556560Y-66345547D01*
X173674425Y-66169151D01*
X173755611Y-65973149D01*
X173797000Y-65765075D01*
X173797000Y-65720000D01*
X173842075Y-65720000D01*
X174050149Y-65678611D01*
X174246151Y-65597425D01*
X174422547Y-65479560D01*
X174572560Y-65329547D01*
X174690425Y-65153151D01*
X174771611Y-64957149D01*
X174813000Y-64749075D01*
X174813000Y-64536925D01*
X174771611Y-64328851D01*
X174690425Y-64132849D01*
X174572560Y-63956453D01*
X174518032Y-63901925D01*
X178501000Y-63901925D01*
X178501000Y-64114075D01*
X178542389Y-64322149D01*
X178623575Y-64518151D01*
X178741440Y-64694547D01*
X178891453Y-64844560D01*
X179067849Y-64962425D01*
X179263851Y-65043611D01*
X179471925Y-65085000D01*
X179684075Y-65085000D01*
X179892149Y-65043611D01*
X180088151Y-64962425D01*
X180264547Y-64844560D01*
X180414560Y-64694547D01*
X180532425Y-64518151D01*
X180613611Y-64322149D01*
X180623242Y-64273734D01*
X181052410Y-63844566D01*
X181041000Y-63901925D01*
X181041000Y-64114075D01*
X181082389Y-64322149D01*
X181163575Y-64518151D01*
X181281440Y-64694547D01*
X181431453Y-64844560D01*
X181607849Y-64962425D01*
X181803851Y-65043611D01*
X182011925Y-65085000D01*
X182224075Y-65085000D01*
X182432149Y-65043611D01*
X182628151Y-64962425D01*
X182804547Y-64844560D01*
X182954560Y-64694547D01*
X183072425Y-64518151D01*
X183153611Y-64322149D01*
X183163242Y-64273734D01*
X185281292Y-62155684D01*
X185316659Y-62126659D01*
X185345684Y-62091292D01*
X185345687Y-62091289D01*
X185432501Y-61985506D01*
X185502111Y-61855275D01*
X185518580Y-61824464D01*
X185548983Y-61724239D01*
X185640715Y-61715204D01*
X185768330Y-61676492D01*
X185885941Y-61613628D01*
X185989027Y-61529027D01*
X186073628Y-61425941D01*
X186136492Y-61308330D01*
X186175204Y-61180715D01*
X186188275Y-61048000D01*
X186188275Y-59348000D01*
X186175204Y-59215285D01*
X186136492Y-59087670D01*
X186073628Y-58970059D01*
X185989027Y-58866973D01*
X185885941Y-58782372D01*
X185768330Y-58719508D01*
X185640715Y-58680796D01*
X185508000Y-58667725D01*
X183808000Y-58667725D01*
X183675285Y-58680796D01*
X183547670Y-58719508D01*
X183430059Y-58782372D01*
X183326973Y-58866973D01*
X183242372Y-58970059D01*
X183179508Y-59087670D01*
X183176638Y-59097133D01*
X183091406Y-59011901D01*
X182841306Y-58844790D01*
X182563410Y-58729681D01*
X182268396Y-58671000D01*
X181967604Y-58671000D01*
X181672590Y-58729681D01*
X181394694Y-58844790D01*
X181144594Y-59011901D01*
X180931901Y-59224594D01*
X180818998Y-59393566D01*
X180773178Y-59316645D01*
X180578269Y-59100412D01*
X180344920Y-58926359D01*
X180082099Y-58801175D01*
X179934890Y-58756524D01*
X179705000Y-58877845D01*
X179705000Y-60071000D01*
X179725000Y-60071000D01*
X179725000Y-60325000D01*
X179705000Y-60325000D01*
X179705000Y-61518155D01*
X179934890Y-61639476D01*
X180082099Y-61594825D01*
X180344920Y-61469641D01*
X180578269Y-61295588D01*
X180773178Y-61079355D01*
X180818998Y-61002434D01*
X180931901Y-61171406D01*
X181017760Y-61257265D01*
X179312266Y-62962758D01*
X179263851Y-62972389D01*
X179067849Y-63053575D01*
X178891453Y-63171440D01*
X178741440Y-63321453D01*
X178623575Y-63497849D01*
X178542389Y-63693851D01*
X178501000Y-63901925D01*
X174518032Y-63901925D01*
X174422547Y-63806440D01*
X174246151Y-63688575D01*
X174050149Y-63607389D01*
X173842075Y-63566000D01*
X173629925Y-63566000D01*
X173421851Y-63607389D01*
X173225849Y-63688575D01*
X173184805Y-63716000D01*
X172122107Y-63716000D01*
X172159560Y-63678547D01*
X172277425Y-63502151D01*
X172358611Y-63306149D01*
X172400000Y-63098075D01*
X172400000Y-62885925D01*
X172358611Y-62677851D01*
X172277425Y-62481849D01*
X172250000Y-62440805D01*
X172250000Y-61820580D01*
X172306330Y-61803492D01*
X172423941Y-61740628D01*
X172527027Y-61656027D01*
X172611628Y-61552941D01*
X172674492Y-61435330D01*
X172692804Y-61374964D01*
X172735731Y-61422588D01*
X172969080Y-61596641D01*
X173231901Y-61721825D01*
X173379110Y-61766476D01*
X173609000Y-61645155D01*
X173609000Y-60452000D01*
X173863000Y-60452000D01*
X173863000Y-61645155D01*
X174092890Y-61766476D01*
X174240099Y-61721825D01*
X174502920Y-61596641D01*
X174736269Y-61422588D01*
X174931178Y-61206355D01*
X175080157Y-60956252D01*
X175177481Y-60681891D01*
X175110821Y-60554891D01*
X178136519Y-60554891D01*
X178233843Y-60829252D01*
X178382822Y-61079355D01*
X178577731Y-61295588D01*
X178811080Y-61469641D01*
X179073901Y-61594825D01*
X179221110Y-61639476D01*
X179451000Y-61518155D01*
X179451000Y-60325000D01*
X178257186Y-60325000D01*
X178136519Y-60554891D01*
X175110821Y-60554891D01*
X175056814Y-60452000D01*
X173863000Y-60452000D01*
X173609000Y-60452000D01*
X173589000Y-60452000D01*
X173589000Y-60198000D01*
X173609000Y-60198000D01*
X173609000Y-59004845D01*
X173863000Y-59004845D01*
X173863000Y-60198000D01*
X175056814Y-60198000D01*
X175177481Y-59968109D01*
X175132431Y-59841109D01*
X178136519Y-59841109D01*
X178257186Y-60071000D01*
X179451000Y-60071000D01*
X179451000Y-58877845D01*
X179221110Y-58756524D01*
X179073901Y-58801175D01*
X178811080Y-58926359D01*
X178577731Y-59100412D01*
X178382822Y-59316645D01*
X178233843Y-59566748D01*
X178136519Y-59841109D01*
X175132431Y-59841109D01*
X175080157Y-59693748D01*
X174931178Y-59443645D01*
X174736269Y-59227412D01*
X174502920Y-59053359D01*
X174240099Y-58928175D01*
X174092890Y-58883524D01*
X173863000Y-59004845D01*
X173609000Y-59004845D01*
X173379110Y-58883524D01*
X173231901Y-58928175D01*
X172969080Y-59053359D01*
X172735731Y-59227412D01*
X172692804Y-59275036D01*
X172674492Y-59214670D01*
X172611628Y-59097059D01*
X172527027Y-58993973D01*
X172423941Y-58909372D01*
X172306330Y-58846508D01*
X172178715Y-58807796D01*
X172046000Y-58794725D01*
X170346000Y-58794725D01*
X170213285Y-58807796D01*
X170085670Y-58846508D01*
X169968059Y-58909372D01*
X169864973Y-58993973D01*
X169780372Y-59097059D01*
X169717508Y-59214670D01*
X169678796Y-59342285D01*
X169673733Y-59393687D01*
X169671999Y-59393516D01*
X169626472Y-59398000D01*
X169626462Y-59398000D01*
X169490276Y-59411413D01*
X169315536Y-59464420D01*
X169240573Y-59504489D01*
X169154494Y-59550499D01*
X169048712Y-59637312D01*
X169048708Y-59637316D01*
X169013341Y-59666341D01*
X168984316Y-59701708D01*
X167165525Y-61520500D01*
X166780468Y-61520500D01*
X166752495Y-61468167D01*
X166636804Y-61327196D01*
X166495833Y-61211505D01*
X166335001Y-61125538D01*
X166160488Y-61072600D01*
X165979000Y-61054725D01*
X164729000Y-61054725D01*
X164547512Y-61072600D01*
X164372999Y-61125538D01*
X164212167Y-61211505D01*
X164071196Y-61327196D01*
X163955505Y-61468167D01*
X163869538Y-61628999D01*
X163816600Y-61803512D01*
X163798725Y-61985000D01*
X163798725Y-62910000D01*
X163816600Y-63091488D01*
X163869538Y-63266001D01*
X163955505Y-63426833D01*
X164071196Y-63567804D01*
X164212167Y-63683495D01*
X164272979Y-63716000D01*
X162853476Y-63716000D01*
X161829275Y-62691800D01*
X161829275Y-61985000D01*
X161811400Y-61803512D01*
X161758462Y-61628999D01*
X161672495Y-61468167D01*
X161556804Y-61327196D01*
X161415833Y-61211505D01*
X161255001Y-61125538D01*
X161080488Y-61072600D01*
X160899000Y-61054725D01*
X159649000Y-61054725D01*
X159467512Y-61072600D01*
X159292999Y-61125538D01*
X159132167Y-61211505D01*
X158991196Y-61327196D01*
X158875505Y-61468167D01*
X158789538Y-61628999D01*
X158736600Y-61803512D01*
X158718725Y-61985000D01*
X158718725Y-62910000D01*
X158736600Y-63091488D01*
X158789538Y-63266001D01*
X158875505Y-63426833D01*
X158991196Y-63567804D01*
X159132167Y-63683495D01*
X159292999Y-63769462D01*
X159467512Y-63822400D01*
X159649000Y-63840275D01*
X160355800Y-63840275D01*
X161247524Y-64732000D01*
X158662476Y-64732000D01*
X156622275Y-62691800D01*
X156622275Y-61985000D01*
X156604400Y-61803512D01*
X156551462Y-61628999D01*
X156465495Y-61468167D01*
X156349804Y-61327196D01*
X156208833Y-61211505D01*
X156048001Y-61125538D01*
X155873488Y-61072600D01*
X155692000Y-61054725D01*
X154442000Y-61054725D01*
X154260512Y-61072600D01*
X154085999Y-61125538D01*
X153925167Y-61211505D01*
X153784196Y-61327196D01*
X153668505Y-61468167D01*
X153582538Y-61628999D01*
X153529600Y-61803512D01*
X153511725Y-61985000D01*
X153511725Y-62910000D01*
X153529600Y-63091488D01*
X153582538Y-63266001D01*
X153668505Y-63426833D01*
X153784196Y-63567804D01*
X153925167Y-63683495D01*
X154085999Y-63769462D01*
X154260512Y-63822400D01*
X154442000Y-63840275D01*
X155148800Y-63840275D01*
X157310524Y-66002000D01*
X154725476Y-66002000D01*
X151415275Y-62691800D01*
X151415275Y-61985000D01*
X151397400Y-61803512D01*
X151344462Y-61628999D01*
X151258495Y-61468167D01*
X151142804Y-61327196D01*
X151001833Y-61211505D01*
X150841001Y-61125538D01*
X150666488Y-61072600D01*
X150485000Y-61054725D01*
X149235000Y-61054725D01*
X149053512Y-61072600D01*
X148878999Y-61125538D01*
X148718167Y-61211505D01*
X148577196Y-61327196D01*
X148461505Y-61468167D01*
X148375538Y-61628999D01*
X148322600Y-61803512D01*
X148304725Y-61985000D01*
X146462275Y-61985000D01*
X146444400Y-61803512D01*
X146391462Y-61628999D01*
X146305495Y-61468167D01*
X146189804Y-61327196D01*
X146048833Y-61211505D01*
X145888001Y-61125538D01*
X145713488Y-61072600D01*
X145532000Y-61054725D01*
X144282000Y-61054725D01*
X144100512Y-61072600D01*
X143925999Y-61125538D01*
X143765167Y-61211505D01*
X143624196Y-61327196D01*
X143508505Y-61468167D01*
X143422538Y-61628999D01*
X143369600Y-61803512D01*
X143351725Y-61985000D01*
X141733500Y-61985000D01*
X141733500Y-60549500D01*
X143588658Y-60549500D01*
X143624196Y-60592804D01*
X143765167Y-60708495D01*
X143925999Y-60794462D01*
X144100512Y-60847400D01*
X144282000Y-60865275D01*
X145532000Y-60865275D01*
X145713488Y-60847400D01*
X145888001Y-60794462D01*
X146048833Y-60708495D01*
X146189804Y-60592804D01*
X146225342Y-60549500D01*
X148541658Y-60549500D01*
X148577196Y-60592804D01*
X148718167Y-60708495D01*
X148878999Y-60794462D01*
X149053512Y-60847400D01*
X149235000Y-60865275D01*
X150485000Y-60865275D01*
X150666488Y-60847400D01*
X150841001Y-60794462D01*
X151001833Y-60708495D01*
X151142804Y-60592804D01*
X151178342Y-60549500D01*
X153748658Y-60549500D01*
X153784196Y-60592804D01*
X153925167Y-60708495D01*
X154085999Y-60794462D01*
X154260512Y-60847400D01*
X154442000Y-60865275D01*
X155692000Y-60865275D01*
X155873488Y-60847400D01*
X156048001Y-60794462D01*
X156208833Y-60708495D01*
X156349804Y-60592804D01*
X156385342Y-60549500D01*
X158955658Y-60549500D01*
X158991196Y-60592804D01*
X159132167Y-60708495D01*
X159292999Y-60794462D01*
X159467512Y-60847400D01*
X159649000Y-60865275D01*
X160899000Y-60865275D01*
X161080488Y-60847400D01*
X161255001Y-60794462D01*
X161415833Y-60708495D01*
X161556804Y-60592804D01*
X161592342Y-60549500D01*
X164035658Y-60549500D01*
X164071196Y-60592804D01*
X164212167Y-60708495D01*
X164372999Y-60794462D01*
X164547512Y-60847400D01*
X164729000Y-60865275D01*
X165979000Y-60865275D01*
X166160488Y-60847400D01*
X166335001Y-60794462D01*
X166495833Y-60708495D01*
X166636804Y-60592804D01*
X166752495Y-60451833D01*
X166838462Y-60291001D01*
X166891400Y-60116488D01*
X166909275Y-59935000D01*
X166909275Y-59010000D01*
X166891400Y-58828512D01*
X166838462Y-58653999D01*
X166752495Y-58493167D01*
X166636804Y-58352196D01*
X166495833Y-58236505D01*
X166335001Y-58150538D01*
X166160488Y-58097600D01*
X165979000Y-58079725D01*
X164729000Y-58079725D01*
X164547512Y-58097600D01*
X164372999Y-58150538D01*
X164212167Y-58236505D01*
X164071196Y-58352196D01*
X164035658Y-58395500D01*
X161592342Y-58395500D01*
X161556804Y-58352196D01*
X161415833Y-58236505D01*
X161255001Y-58150538D01*
X161080488Y-58097600D01*
X160899000Y-58079725D01*
X159649000Y-58079725D01*
X159467512Y-58097600D01*
X159292999Y-58150538D01*
X159132167Y-58236505D01*
X158991196Y-58352196D01*
X158955658Y-58395500D01*
X156385342Y-58395500D01*
X156349804Y-58352196D01*
X156208833Y-58236505D01*
X156048001Y-58150538D01*
X155873488Y-58097600D01*
X155692000Y-58079725D01*
X154442000Y-58079725D01*
X154260512Y-58097600D01*
X154085999Y-58150538D01*
X153925167Y-58236505D01*
X153784196Y-58352196D01*
X153748658Y-58395500D01*
X151178342Y-58395500D01*
X151142804Y-58352196D01*
X151001833Y-58236505D01*
X150841001Y-58150538D01*
X150666488Y-58097600D01*
X150485000Y-58079725D01*
X149235000Y-58079725D01*
X149053512Y-58097600D01*
X148878999Y-58150538D01*
X148718167Y-58236505D01*
X148577196Y-58352196D01*
X148541658Y-58395500D01*
X146225342Y-58395500D01*
X146189804Y-58352196D01*
X146048833Y-58236505D01*
X145888001Y-58150538D01*
X145713488Y-58097600D01*
X145532000Y-58079725D01*
X144282000Y-58079725D01*
X144100512Y-58097600D01*
X143925999Y-58150538D01*
X143765167Y-58236505D01*
X143624196Y-58352196D01*
X143588658Y-58395500D01*
X130445406Y-58395500D01*
X130392499Y-58390289D01*
X130339592Y-58395500D01*
X130339591Y-58395500D01*
X130181371Y-58411083D01*
X129978356Y-58472667D01*
X129791256Y-58572674D01*
X129627261Y-58707261D01*
X129593532Y-58748361D01*
X128688861Y-59653032D01*
X128647762Y-59686761D01*
X128614034Y-59727859D01*
X128513175Y-59850756D01*
X128413168Y-60037856D01*
X128351584Y-60240871D01*
X128330789Y-60452000D01*
X128336001Y-60504916D01*
X128336001Y-60937418D01*
X128235059Y-60991372D01*
X128131973Y-61075973D01*
X128047372Y-61179059D01*
X127993418Y-61280000D01*
X122901820Y-61280000D01*
X122821961Y-61160482D01*
X122560518Y-60899039D01*
X122253093Y-60693624D01*
X121911501Y-60552132D01*
X121548868Y-60480000D01*
X121179132Y-60480000D01*
X120816499Y-60552132D01*
X120474907Y-60693624D01*
X120167482Y-60899039D01*
X119906039Y-61160482D01*
X119864000Y-61223398D01*
X119821961Y-61160482D01*
X119560518Y-60899039D01*
X119253093Y-60693624D01*
X118911501Y-60552132D01*
X118548868Y-60480000D01*
X118179132Y-60480000D01*
X117816499Y-60552132D01*
X117474907Y-60693624D01*
X117167482Y-60899039D01*
X116906039Y-61160482D01*
X116700624Y-61467907D01*
X116559132Y-61809499D01*
X116487000Y-62172132D01*
X113170246Y-62172132D01*
X113164799Y-60211300D01*
X113217794Y-60211300D01*
X113645013Y-60126321D01*
X114047444Y-59959629D01*
X114409622Y-59717629D01*
X114717629Y-59409622D01*
X114959629Y-59047444D01*
X115126321Y-58645013D01*
X115211300Y-58217794D01*
X115211300Y-57782206D01*
X115160650Y-57527569D01*
X189865268Y-57407272D01*
X189788700Y-57792206D01*
G37*
X189788700Y-57792206D02*
X189788700Y-58227794D01*
X189873679Y-58655013D01*
X190040371Y-59057444D01*
X190282371Y-59419622D01*
X190590378Y-59727629D01*
X190952556Y-59969629D01*
X191354987Y-60136321D01*
X191770000Y-60218872D01*
X191770000Y-65973000D01*
X180535708Y-65973000D01*
X180500000Y-65969483D01*
X180464292Y-65973000D01*
X180357483Y-65983520D01*
X180220443Y-66025090D01*
X180094147Y-66092597D01*
X179983446Y-66183446D01*
X179892597Y-66294147D01*
X179825090Y-66420443D01*
X179783520Y-66557483D01*
X179769483Y-66700000D01*
X179773000Y-66735708D01*
X179773001Y-84609028D01*
X179108000Y-83944027D01*
X179108000Y-81986527D01*
X179112484Y-81941000D01*
X179108000Y-81895473D01*
X179108000Y-81895462D01*
X179094587Y-81759276D01*
X179041580Y-81584536D01*
X179016497Y-81537609D01*
X178955502Y-81423494D01*
X178868688Y-81317712D01*
X178868684Y-81317708D01*
X178839659Y-81282341D01*
X178804293Y-81253317D01*
X176985275Y-79434300D01*
X176985275Y-78940000D01*
X176969321Y-78778021D01*
X176922074Y-78622268D01*
X176845348Y-78478724D01*
X176742093Y-78352907D01*
X176616276Y-78249652D01*
X176472732Y-78172926D01*
X176316979Y-78125679D01*
X176155000Y-78109725D01*
X175855000Y-78109725D01*
X175693021Y-78125679D01*
X175537268Y-78172926D01*
X175393724Y-78249652D01*
X175384816Y-78256963D01*
X175279180Y-78200498D01*
X175159482Y-78164188D01*
X175035000Y-78151928D01*
X175020750Y-78155000D01*
X174862000Y-78313750D01*
X174862000Y-79638000D01*
X174882000Y-79638000D01*
X174882000Y-79892000D01*
X174862000Y-79892000D01*
X174862000Y-81216250D01*
X175020750Y-81375000D01*
X175035000Y-81378072D01*
X175159482Y-81365812D01*
X175279180Y-81329502D01*
X175384816Y-81273037D01*
X175393724Y-81280348D01*
X175537268Y-81357074D01*
X175693021Y-81404321D01*
X175855000Y-81420275D01*
X176155000Y-81420275D01*
X176316979Y-81404321D01*
X176329536Y-81400512D01*
X177254000Y-82324976D01*
X177254001Y-84282465D01*
X177249516Y-84328002D01*
X177254001Y-84373539D01*
X177254001Y-84373540D01*
X177267414Y-84509726D01*
X177281901Y-84557483D01*
X177320420Y-84684465D01*
X177406499Y-84845507D01*
X177493312Y-84951289D01*
X177493317Y-84951294D01*
X177522342Y-84986661D01*
X177557708Y-85015685D01*
X179887812Y-87345790D01*
X179877000Y-87344725D01*
X179841701Y-87344725D01*
X178741687Y-86244712D01*
X178712659Y-86209341D01*
X178571505Y-86093499D01*
X178410464Y-86007420D01*
X178235724Y-85954413D01*
X178099538Y-85941000D01*
X178099527Y-85941000D01*
X178054000Y-85936516D01*
X178008473Y-85941000D01*
X174754976Y-85941000D01*
X174400241Y-85586266D01*
X174390611Y-85537851D01*
X174309425Y-85341849D01*
X174191560Y-85165453D01*
X174041547Y-85015440D01*
X173865151Y-84897575D01*
X173669149Y-84816389D01*
X173461075Y-84775000D01*
X173248925Y-84775000D01*
X173040851Y-84816389D01*
X172844849Y-84897575D01*
X172668453Y-85015440D01*
X172518440Y-85165453D01*
X172400575Y-85341849D01*
X172319389Y-85537851D01*
X172278000Y-85745925D01*
X172278000Y-85958075D01*
X172319389Y-86166149D01*
X172400575Y-86362151D01*
X172518440Y-86538547D01*
X172668453Y-86688560D01*
X172844849Y-86806425D01*
X173040851Y-86887611D01*
X173089266Y-86897241D01*
X173683316Y-87491292D01*
X173712341Y-87526659D01*
X173747708Y-87555684D01*
X173747712Y-87555688D01*
X173853494Y-87642501D01*
X174014536Y-87728580D01*
X174189276Y-87781587D01*
X174325462Y-87795000D01*
X174325473Y-87795000D01*
X174371000Y-87799484D01*
X174416527Y-87795000D01*
X175183817Y-87795000D01*
X175117538Y-87918999D01*
X175064600Y-88093512D01*
X175046725Y-88275000D01*
X175046725Y-89525000D01*
X175064600Y-89706488D01*
X175117538Y-89881001D01*
X175203505Y-90041833D01*
X175319196Y-90182804D01*
X175453001Y-90292614D01*
X175453000Y-91587925D01*
X175453000Y-91800075D01*
X175463372Y-91852217D01*
X175468583Y-91905128D01*
X175484018Y-91956009D01*
X175494389Y-92008149D01*
X175514733Y-92057265D01*
X175530167Y-92108143D01*
X175555229Y-92155031D01*
X175575575Y-92204151D01*
X175605112Y-92248355D01*
X175630174Y-92295244D01*
X175663906Y-92336347D01*
X175693440Y-92380547D01*
X175731027Y-92418134D01*
X175764761Y-92459239D01*
X175805866Y-92492973D01*
X175843453Y-92530560D01*
X175887653Y-92560094D01*
X175928756Y-92593826D01*
X175975646Y-92618889D01*
X176019849Y-92648425D01*
X176068966Y-92668770D01*
X176115856Y-92693833D01*
X176166738Y-92709268D01*
X176215851Y-92729611D01*
X176267988Y-92739982D01*
X176318871Y-92755417D01*
X176371784Y-92760628D01*
X176423925Y-92771000D01*
X176477091Y-92771000D01*
X176530000Y-92776211D01*
X176582909Y-92771000D01*
X176636075Y-92771000D01*
X176688217Y-92760628D01*
X176741128Y-92755417D01*
X176792009Y-92739982D01*
X176844149Y-92729611D01*
X176893265Y-92709267D01*
X176944143Y-92693833D01*
X176991031Y-92668771D01*
X177040151Y-92648425D01*
X177084355Y-92618888D01*
X177131244Y-92593826D01*
X177172347Y-92560094D01*
X177216547Y-92530560D01*
X177254134Y-92492973D01*
X177295239Y-92459239D01*
X177328973Y-92418134D01*
X177366560Y-92380547D01*
X177396094Y-92336347D01*
X177429826Y-92295244D01*
X177454889Y-92248354D01*
X177484425Y-92204151D01*
X177504770Y-92155034D01*
X177529833Y-92108144D01*
X177545268Y-92057262D01*
X177565611Y-92008149D01*
X177575982Y-91956012D01*
X177591417Y-91905129D01*
X177596628Y-91852216D01*
X177607000Y-91800075D01*
X177607000Y-90125295D01*
X177675495Y-90041833D01*
X177761462Y-89881001D01*
X177814400Y-89706488D01*
X177832275Y-89525000D01*
X177832275Y-88275000D01*
X177814400Y-88093512D01*
X177761462Y-87918999D01*
X177724072Y-87849047D01*
X178033228Y-88158204D01*
X178021725Y-88275000D01*
X178021725Y-89525000D01*
X178039600Y-89706488D01*
X178092538Y-89881001D01*
X178178505Y-90041833D01*
X178294196Y-90182804D01*
X178337500Y-90218343D01*
X178337501Y-95579599D01*
X178248005Y-95713539D01*
X178098975Y-96073330D01*
X178023000Y-96455282D01*
X178023000Y-96844718D01*
X178098975Y-97226670D01*
X178248005Y-97586461D01*
X178464364Y-97910264D01*
X178739736Y-98185636D01*
X179063539Y-98401995D01*
X179423330Y-98551025D01*
X179805282Y-98627000D01*
X180194718Y-98627000D01*
X180576670Y-98551025D01*
X180936461Y-98401995D01*
X181260264Y-98185636D01*
X181446676Y-97999224D01*
X183830381Y-97999224D01*
X183962317Y-98294312D01*
X184303045Y-98465159D01*
X184670557Y-98566250D01*
X185050729Y-98593701D01*
X185428951Y-98546457D01*
X185790690Y-98426333D01*
X186037683Y-98294312D01*
X186169619Y-97999224D01*
X185000000Y-96829605D01*
X183830381Y-97999224D01*
X181446676Y-97999224D01*
X181535636Y-97910264D01*
X181751995Y-97586461D01*
X181901025Y-97226670D01*
X181977000Y-96844718D01*
X181977000Y-96700729D01*
X183056299Y-96700729D01*
X183103543Y-97078951D01*
X183223667Y-97440690D01*
X183355688Y-97687683D01*
X183650776Y-97819619D01*
X184820395Y-96650000D01*
X185179605Y-96650000D01*
X186349224Y-97819619D01*
X186644312Y-97687683D01*
X186815159Y-97346955D01*
X186916250Y-96979443D01*
X186943701Y-96599271D01*
X186896457Y-96221049D01*
X186776333Y-95859310D01*
X186644312Y-95612317D01*
X186349224Y-95480381D01*
X185179605Y-96650000D01*
X184820395Y-96650000D01*
X183650776Y-95480381D01*
X183355688Y-95612317D01*
X183184841Y-95953045D01*
X183083750Y-96320557D01*
X183056299Y-96700729D01*
X181977000Y-96700729D01*
X181977000Y-96455282D01*
X181901025Y-96073330D01*
X181751995Y-95713539D01*
X181535636Y-95389736D01*
X181446676Y-95300776D01*
X183830381Y-95300776D01*
X185000000Y-96470395D01*
X186169619Y-95300776D01*
X186037683Y-95005688D01*
X185696955Y-94834841D01*
X185329443Y-94733750D01*
X184949271Y-94706299D01*
X184571049Y-94753543D01*
X184209310Y-94873667D01*
X183962317Y-95005688D01*
X183830381Y-95300776D01*
X181446676Y-95300776D01*
X181260264Y-95114364D01*
X180936461Y-94898005D01*
X180576670Y-94748975D01*
X180491500Y-94732034D01*
X180491500Y-90218342D01*
X180534804Y-90182804D01*
X180650495Y-90041833D01*
X180736462Y-89881001D01*
X180789400Y-89706488D01*
X180807275Y-89525000D01*
X180807275Y-88275000D01*
X180806210Y-88264188D01*
X181072757Y-88530735D01*
X181082387Y-88579149D01*
X181163573Y-88775151D01*
X181281438Y-88951547D01*
X181431451Y-89101560D01*
X181607847Y-89219425D01*
X181803849Y-89300611D01*
X182011923Y-89342000D01*
X182224073Y-89342000D01*
X182432147Y-89300611D01*
X182628149Y-89219425D01*
X182804545Y-89101560D01*
X182954558Y-88951547D01*
X183072423Y-88775151D01*
X183153609Y-88579149D01*
X183194998Y-88371075D01*
X183194998Y-88158925D01*
X183153609Y-87950851D01*
X183072423Y-87754849D01*
X182954558Y-87578453D01*
X182804545Y-87428440D01*
X182628149Y-87310575D01*
X182432147Y-87229389D01*
X182383733Y-87219759D01*
X180590973Y-85427000D01*
X191770000Y-85427000D01*
X191770000Y-100791128D01*
X191354987Y-100873679D01*
X190952556Y-101040371D01*
X190590378Y-101282371D01*
X190282371Y-101590378D01*
X190040371Y-101952556D01*
X189873679Y-102354987D01*
X189788700Y-102782206D01*
X189788700Y-102870000D01*
X115211300Y-102870000D01*
X115211300Y-102772206D01*
X115126321Y-102344987D01*
X114959629Y-101942556D01*
X114717629Y-101580378D01*
X114409622Y-101272371D01*
X114047444Y-101030371D01*
X113645013Y-100863679D01*
X113277519Y-100790580D01*
X113227952Y-82946123D01*
X116674821Y-82946123D01*
X116784558Y-83268054D01*
X116954992Y-83562391D01*
X117179573Y-83817822D01*
X117449671Y-84024531D01*
X117754906Y-84174575D01*
X117967878Y-84239175D01*
X118237000Y-84121125D01*
X118237000Y-82677000D01*
X118491000Y-82677000D01*
X118491000Y-84121125D01*
X118760122Y-84239175D01*
X118973094Y-84174575D01*
X119278329Y-84024531D01*
X119548427Y-83817822D01*
X119773008Y-83562391D01*
X119943442Y-83268054D01*
X120053179Y-82946123D01*
X119935600Y-82677000D01*
X118491000Y-82677000D01*
X118237000Y-82677000D01*
X116792400Y-82677000D01*
X116674821Y-82946123D01*
X113227952Y-82946123D01*
X113225752Y-82153877D01*
X116674821Y-82153877D01*
X116792400Y-82423000D01*
X118237000Y-82423000D01*
X118237000Y-80978875D01*
X118491000Y-80978875D01*
X118491000Y-82423000D01*
X119935600Y-82423000D01*
X120053179Y-82153877D01*
X119943442Y-81831946D01*
X119773008Y-81537609D01*
X119548427Y-81282178D01*
X119278329Y-81075469D01*
X118973094Y-80925425D01*
X118760122Y-80860825D01*
X118491000Y-80978875D01*
X118237000Y-80978875D01*
X117967878Y-80860825D01*
X117754906Y-80925425D01*
X117449671Y-81075469D01*
X117179573Y-81282178D01*
X116954992Y-81537609D01*
X116784558Y-81831946D01*
X116674821Y-82153877D01*
X113225752Y-82153877D01*
X113170246Y-62172132D01*
X116487000Y-62172132D01*
X116487000Y-62541868D01*
X116559132Y-62904501D01*
X116700624Y-63246093D01*
X116906039Y-63553518D01*
X117167482Y-63814961D01*
X117287001Y-63894821D01*
X117287000Y-70609725D01*
X117264000Y-70609725D01*
X117131285Y-70622796D01*
X117003670Y-70661508D01*
X116886059Y-70724372D01*
X116782973Y-70808973D01*
X116698372Y-70912059D01*
X116635508Y-71029670D01*
X116596796Y-71157285D01*
X116583725Y-71290000D01*
X116583725Y-73490000D01*
X116596796Y-73622715D01*
X116635508Y-73750330D01*
X116698372Y-73867941D01*
X116782973Y-73971027D01*
X116886059Y-74055628D01*
X117003670Y-74118492D01*
X117131285Y-74157204D01*
X117264000Y-74170275D01*
X117282013Y-74170275D01*
X117287000Y-74220907D01*
X117287000Y-74220908D01*
X117302583Y-74379128D01*
X117364167Y-74582143D01*
X117464174Y-74769244D01*
X117598761Y-74933239D01*
X117639866Y-74966973D01*
X120867032Y-78194140D01*
X120900761Y-78235239D01*
X121064756Y-78369826D01*
X121251856Y-78469833D01*
X121454871Y-78531417D01*
X121613091Y-78547000D01*
X121613092Y-78547000D01*
X121665999Y-78552211D01*
X121718906Y-78547000D01*
X122326025Y-78547000D01*
X121931713Y-78941312D01*
X121896341Y-78970341D01*
X121867313Y-79005712D01*
X121867312Y-79005713D01*
X121780499Y-79111495D01*
X121720677Y-79223414D01*
X121694420Y-79272537D01*
X121641413Y-79447277D01*
X121628000Y-79583463D01*
X121628000Y-79583473D01*
X121623516Y-79629000D01*
X121628000Y-79674527D01*
X121628001Y-83901463D01*
X121623516Y-83947000D01*
X121628001Y-83992537D01*
X121628001Y-83992538D01*
X121641414Y-84128724D01*
X121655323Y-84174575D01*
X121694420Y-84303463D01*
X121780499Y-84464505D01*
X121867312Y-84570287D01*
X121867317Y-84570292D01*
X121896342Y-84605659D01*
X121931708Y-84634683D01*
X122792816Y-85495792D01*
X122821841Y-85531159D01*
X122857208Y-85560184D01*
X122857212Y-85560188D01*
X122962994Y-85647002D01*
X123124036Y-85733080D01*
X123298776Y-85786087D01*
X123434962Y-85799500D01*
X123434973Y-85799500D01*
X123480500Y-85803984D01*
X123526027Y-85799500D01*
X123795532Y-85799500D01*
X123823505Y-85851833D01*
X123939196Y-85992804D01*
X124080167Y-86108495D01*
X124240999Y-86194462D01*
X124415512Y-86247400D01*
X124597000Y-86265275D01*
X125847000Y-86265275D01*
X126028488Y-86247400D01*
X126203001Y-86194462D01*
X126363833Y-86108495D01*
X126504804Y-85992804D01*
X126620495Y-85851833D01*
X126706462Y-85691001D01*
X126759400Y-85516488D01*
X126777275Y-85335000D01*
X126777275Y-84410000D01*
X126759400Y-84228512D01*
X126706462Y-84053999D01*
X126620495Y-83893167D01*
X126504804Y-83752196D01*
X126363833Y-83636505D01*
X126203001Y-83550538D01*
X126028488Y-83497600D01*
X125847000Y-83479725D01*
X124597000Y-83479725D01*
X124415512Y-83497600D01*
X124240999Y-83550538D01*
X124080167Y-83636505D01*
X123939196Y-83752196D01*
X123823505Y-83893167D01*
X123819547Y-83900572D01*
X123482000Y-83563025D01*
X123482000Y-80310000D01*
X124689928Y-80310000D01*
X124702188Y-80434482D01*
X124738498Y-80554180D01*
X124797463Y-80664494D01*
X124876815Y-80761185D01*
X124973506Y-80840537D01*
X125083820Y-80899502D01*
X125203518Y-80935812D01*
X125328000Y-80948072D01*
X126017250Y-80945000D01*
X126176000Y-80786250D01*
X126176000Y-80137000D01*
X124851750Y-80137000D01*
X124693000Y-80295750D01*
X124689928Y-80310000D01*
X123482000Y-80310000D01*
X123482000Y-80012975D01*
X123827976Y-79667000D01*
X124694163Y-79667000D01*
X124689928Y-79710000D01*
X124693000Y-79724250D01*
X124851750Y-79883000D01*
X126176000Y-79883000D01*
X126176000Y-79863000D01*
X126430000Y-79863000D01*
X126430000Y-79883000D01*
X126450000Y-79883000D01*
X126450000Y-80137000D01*
X126430000Y-80137000D01*
X126430000Y-80786250D01*
X126588750Y-80945000D01*
X127278000Y-80948072D01*
X127402482Y-80935812D01*
X127522180Y-80899502D01*
X127574000Y-80871803D01*
X127574001Y-83640082D01*
X127574000Y-83640092D01*
X127574001Y-92522893D01*
X124238493Y-89187385D01*
X124347000Y-89198072D01*
X124936250Y-89195000D01*
X125095000Y-89036250D01*
X125095000Y-87974500D01*
X125349000Y-87974500D01*
X125349000Y-89036250D01*
X125507750Y-89195000D01*
X126097000Y-89198072D01*
X126221482Y-89185812D01*
X126341180Y-89149502D01*
X126451494Y-89090537D01*
X126548185Y-89011185D01*
X126627537Y-88914494D01*
X126686502Y-88804180D01*
X126722812Y-88684482D01*
X126735072Y-88560000D01*
X126732000Y-88133250D01*
X126573250Y-87974500D01*
X125349000Y-87974500D01*
X125095000Y-87974500D01*
X123870750Y-87974500D01*
X123712000Y-88133250D01*
X123708928Y-88560000D01*
X123719615Y-88668507D01*
X122186108Y-87135000D01*
X123708928Y-87135000D01*
X123712000Y-87561750D01*
X123870750Y-87720500D01*
X125095000Y-87720500D01*
X125095000Y-86658750D01*
X125349000Y-86658750D01*
X125349000Y-87720500D01*
X126573250Y-87720500D01*
X126732000Y-87561750D01*
X126735072Y-87135000D01*
X126722812Y-87010518D01*
X126686502Y-86890820D01*
X126627537Y-86780506D01*
X126548185Y-86683815D01*
X126451494Y-86604463D01*
X126341180Y-86545498D01*
X126221482Y-86509188D01*
X126097000Y-86496928D01*
X125507750Y-86500000D01*
X125349000Y-86658750D01*
X125095000Y-86658750D01*
X124936250Y-86500000D01*
X124347000Y-86496928D01*
X124222518Y-86509188D01*
X124102820Y-86545498D01*
X123992506Y-86604463D01*
X123895815Y-86683815D01*
X123816463Y-86780506D01*
X123757498Y-86890820D01*
X123721188Y-87010518D01*
X123708928Y-87135000D01*
X122186108Y-87135000D01*
X121895973Y-86844866D01*
X121862239Y-86803761D01*
X121698244Y-86669174D01*
X121511144Y-86569167D01*
X121308129Y-86507583D01*
X121149909Y-86492000D01*
X121149907Y-86492000D01*
X121097000Y-86486789D01*
X121044093Y-86492000D01*
X120355252Y-86492000D01*
X120322000Y-86488725D01*
X119422000Y-86488725D01*
X119289285Y-86501796D01*
X119161670Y-86540508D01*
X119044059Y-86603372D01*
X118940973Y-86687973D01*
X118856372Y-86791059D01*
X118793508Y-86908670D01*
X118754796Y-87036285D01*
X118741725Y-87169000D01*
X118741725Y-87587663D01*
X118699941Y-87553372D01*
X118582330Y-87490508D01*
X118454715Y-87451796D01*
X118322000Y-87438725D01*
X117891657Y-87438725D01*
X117872000Y-87436789D01*
X117852343Y-87438725D01*
X117422000Y-87438725D01*
X117289285Y-87451796D01*
X117161670Y-87490508D01*
X117044059Y-87553372D01*
X116940973Y-87637973D01*
X116856372Y-87741059D01*
X116793508Y-87858670D01*
X116754796Y-87986285D01*
X116741725Y-88119000D01*
X116741725Y-88919000D01*
X116754796Y-89051715D01*
X116793508Y-89179330D01*
X116795001Y-89182123D01*
X116795000Y-94469093D01*
X116789789Y-94522000D01*
X116795000Y-94574907D01*
X116795000Y-94574908D01*
X116810583Y-94733128D01*
X116872167Y-94936143D01*
X116972174Y-95123244D01*
X117106761Y-95287239D01*
X117147866Y-95320973D01*
X118066000Y-96239107D01*
X118023000Y-96455282D01*
X118023000Y-96844718D01*
X118098975Y-97226670D01*
X118248005Y-97586461D01*
X118464364Y-97910264D01*
X118739736Y-98185636D01*
X119063539Y-98401995D01*
X119423330Y-98551025D01*
X119805282Y-98627000D01*
X120194718Y-98627000D01*
X120576670Y-98551025D01*
X120936461Y-98401995D01*
X121260264Y-98185636D01*
X121495900Y-97950000D01*
X123061928Y-97950000D01*
X123074188Y-98074482D01*
X123110498Y-98194180D01*
X123169463Y-98304494D01*
X123248815Y-98401185D01*
X123345506Y-98480537D01*
X123455820Y-98539502D01*
X123575518Y-98575812D01*
X123700000Y-98588072D01*
X124714250Y-98585000D01*
X124873000Y-98426250D01*
X124873000Y-96777000D01*
X125127000Y-96777000D01*
X125127000Y-98426250D01*
X125285750Y-98585000D01*
X126300000Y-98588072D01*
X126424482Y-98575812D01*
X126544180Y-98539502D01*
X126654494Y-98480537D01*
X126751185Y-98401185D01*
X126830537Y-98304494D01*
X126889502Y-98194180D01*
X126925812Y-98074482D01*
X126938072Y-97950000D01*
X126935000Y-96935750D01*
X126776250Y-96777000D01*
X125127000Y-96777000D01*
X124873000Y-96777000D01*
X123223750Y-96777000D01*
X123065000Y-96935750D01*
X123061928Y-97950000D01*
X121495900Y-97950000D01*
X121535636Y-97910264D01*
X121751995Y-97586461D01*
X121901025Y-97226670D01*
X121977000Y-96844718D01*
X121977000Y-96455282D01*
X121901025Y-96073330D01*
X121751995Y-95713539D01*
X121535636Y-95389736D01*
X121495900Y-95350000D01*
X123061928Y-95350000D01*
X123065000Y-96364250D01*
X123223750Y-96523000D01*
X124873000Y-96523000D01*
X124873000Y-94873750D01*
X125127000Y-94873750D01*
X125127000Y-96523000D01*
X126776250Y-96523000D01*
X126935000Y-96364250D01*
X126938072Y-95350000D01*
X126925812Y-95225518D01*
X126889502Y-95105820D01*
X126830537Y-94995506D01*
X126751185Y-94898815D01*
X126654494Y-94819463D01*
X126544180Y-94760498D01*
X126424482Y-94724188D01*
X126300000Y-94711928D01*
X125285750Y-94715000D01*
X125127000Y-94873750D01*
X124873000Y-94873750D01*
X124714250Y-94715000D01*
X123700000Y-94711928D01*
X123575518Y-94724188D01*
X123455820Y-94760498D01*
X123345506Y-94819463D01*
X123248815Y-94898815D01*
X123169463Y-94995506D01*
X123110498Y-95105820D01*
X123074188Y-95225518D01*
X123061928Y-95350000D01*
X121495900Y-95350000D01*
X121260264Y-95114364D01*
X120936461Y-94898005D01*
X120576670Y-94748975D01*
X120194718Y-94673000D01*
X119805282Y-94673000D01*
X119589107Y-94716000D01*
X118949000Y-94075893D01*
X118949000Y-90293603D01*
X118970815Y-90320185D01*
X119067506Y-90399537D01*
X119177820Y-90458502D01*
X119297518Y-90494812D01*
X119422000Y-90507072D01*
X119586250Y-90504000D01*
X119745000Y-90345250D01*
X119745000Y-89596000D01*
X119999000Y-89596000D01*
X119999000Y-90345250D01*
X120157750Y-90504000D01*
X120322000Y-90507072D01*
X120446482Y-90494812D01*
X120566180Y-90458502D01*
X120676494Y-90399537D01*
X120773185Y-90320185D01*
X120852537Y-90223494D01*
X120911502Y-90113180D01*
X120947812Y-89993482D01*
X120960072Y-89869000D01*
X120957000Y-89754750D01*
X120798250Y-89596000D01*
X119999000Y-89596000D01*
X119745000Y-89596000D01*
X119725000Y-89596000D01*
X119725000Y-89342000D01*
X119745000Y-89342000D01*
X119745000Y-89322000D01*
X119999000Y-89322000D01*
X119999000Y-89342000D01*
X120798250Y-89342000D01*
X120957000Y-89183250D01*
X120960072Y-89069000D01*
X120947812Y-88944518D01*
X120947116Y-88942223D01*
X127852037Y-95847145D01*
X127885762Y-95888239D01*
X127926856Y-95921964D01*
X127926858Y-95921966D01*
X127926863Y-95921970D01*
X129757032Y-97752140D01*
X129790761Y-97793239D01*
X129831858Y-97826966D01*
X129954755Y-97927826D01*
X130013984Y-97959484D01*
X130141856Y-98027833D01*
X130344871Y-98089417D01*
X130503091Y-98105000D01*
X130503093Y-98105000D01*
X130556000Y-98110211D01*
X130608907Y-98105000D01*
X135020039Y-98105000D01*
X135064372Y-98187941D01*
X135148973Y-98291027D01*
X135252059Y-98375628D01*
X135369670Y-98438492D01*
X135497285Y-98477204D01*
X135630000Y-98490275D01*
X137230000Y-98490275D01*
X137362715Y-98477204D01*
X137490330Y-98438492D01*
X137607941Y-98375628D01*
X137711027Y-98291027D01*
X137795628Y-98187941D01*
X137858492Y-98070330D01*
X137879006Y-98002702D01*
X139416903Y-98002702D01*
X139488486Y-98246671D01*
X139743996Y-98367571D01*
X140018184Y-98436300D01*
X140300512Y-98450217D01*
X140580130Y-98408787D01*
X140846292Y-98313603D01*
X140971514Y-98246671D01*
X141043097Y-98002702D01*
X140230000Y-97189605D01*
X139416903Y-98002702D01*
X137879006Y-98002702D01*
X137897204Y-97942715D01*
X137910275Y-97810000D01*
X137910275Y-97080512D01*
X138789783Y-97080512D01*
X138831213Y-97360130D01*
X138926397Y-97626292D01*
X138993329Y-97751514D01*
X139237298Y-97823097D01*
X140050395Y-97010000D01*
X140409605Y-97010000D01*
X141222702Y-97823097D01*
X141466671Y-97751514D01*
X141587571Y-97496004D01*
X141656300Y-97221816D01*
X141670217Y-96939488D01*
X141628787Y-96659870D01*
X141533603Y-96393708D01*
X141466671Y-96268486D01*
X141222702Y-96196903D01*
X140409605Y-97010000D01*
X140050395Y-97010000D01*
X139237298Y-96196903D01*
X138993329Y-96268486D01*
X138872429Y-96523996D01*
X138803700Y-96798184D01*
X138789783Y-97080512D01*
X137910275Y-97080512D01*
X137910275Y-96210000D01*
X137897204Y-96077285D01*
X137879007Y-96017298D01*
X139416903Y-96017298D01*
X140230000Y-96830395D01*
X141043097Y-96017298D01*
X140971514Y-95773329D01*
X140716004Y-95652429D01*
X140441816Y-95583700D01*
X140159488Y-95569783D01*
X139879870Y-95611213D01*
X139613708Y-95706397D01*
X139488486Y-95773329D01*
X139416903Y-96017298D01*
X137879007Y-96017298D01*
X137858492Y-95949670D01*
X137795628Y-95832059D01*
X137711027Y-95728973D01*
X137607941Y-95644372D01*
X137490330Y-95581508D01*
X137362715Y-95542796D01*
X137230000Y-95529725D01*
X135630000Y-95529725D01*
X135497285Y-95542796D01*
X135369670Y-95581508D01*
X135252059Y-95644372D01*
X135148973Y-95728973D01*
X135064372Y-95832059D01*
X135001508Y-95949670D01*
X135001105Y-95951000D01*
X131002108Y-95951000D01*
X130401108Y-95350000D01*
X148019725Y-95350000D01*
X148019725Y-97950000D01*
X148032796Y-98082715D01*
X148071508Y-98210330D01*
X148134372Y-98327941D01*
X148218973Y-98431027D01*
X148322059Y-98515628D01*
X148439670Y-98578492D01*
X148567285Y-98617204D01*
X148700000Y-98630275D01*
X151300000Y-98630275D01*
X151432715Y-98617204D01*
X151560330Y-98578492D01*
X151677941Y-98515628D01*
X151781027Y-98431027D01*
X151865628Y-98327941D01*
X151928492Y-98210330D01*
X151967204Y-98082715D01*
X151975426Y-97999224D01*
X153830381Y-97999224D01*
X153962317Y-98294312D01*
X154303045Y-98465159D01*
X154670557Y-98566250D01*
X155050729Y-98593701D01*
X155428951Y-98546457D01*
X155790690Y-98426333D01*
X156037683Y-98294312D01*
X156169619Y-97999224D01*
X155000000Y-96829605D01*
X153830381Y-97999224D01*
X151975426Y-97999224D01*
X151980275Y-97950000D01*
X151980275Y-96700729D01*
X153056299Y-96700729D01*
X153103543Y-97078951D01*
X153223667Y-97440690D01*
X153355688Y-97687683D01*
X153650776Y-97819619D01*
X154820395Y-96650000D01*
X155179605Y-96650000D01*
X156349224Y-97819619D01*
X156644312Y-97687683D01*
X156815159Y-97346955D01*
X156916250Y-96979443D01*
X156943701Y-96599271D01*
X156925716Y-96455282D01*
X158023000Y-96455282D01*
X158023000Y-96844718D01*
X158098975Y-97226670D01*
X158248005Y-97586461D01*
X158464364Y-97910264D01*
X158739736Y-98185636D01*
X159063539Y-98401995D01*
X159423330Y-98551025D01*
X159805282Y-98627000D01*
X160194718Y-98627000D01*
X160576670Y-98551025D01*
X160936461Y-98401995D01*
X161260264Y-98185636D01*
X161446676Y-97999224D01*
X163830381Y-97999224D01*
X163962317Y-98294312D01*
X164303045Y-98465159D01*
X164670557Y-98566250D01*
X165050729Y-98593701D01*
X165428951Y-98546457D01*
X165790690Y-98426333D01*
X166037683Y-98294312D01*
X166169619Y-97999224D01*
X165000000Y-96829605D01*
X163830381Y-97999224D01*
X161446676Y-97999224D01*
X161535636Y-97910264D01*
X161751995Y-97586461D01*
X161901025Y-97226670D01*
X161977000Y-96844718D01*
X161977000Y-96700729D01*
X163056299Y-96700729D01*
X163103543Y-97078951D01*
X163223667Y-97440690D01*
X163355688Y-97687683D01*
X163650776Y-97819619D01*
X164820395Y-96650000D01*
X165179605Y-96650000D01*
X166349224Y-97819619D01*
X166644312Y-97687683D01*
X166815159Y-97346955D01*
X166916250Y-96979443D01*
X166943701Y-96599271D01*
X166896457Y-96221049D01*
X166776333Y-95859310D01*
X166644312Y-95612317D01*
X166349224Y-95480381D01*
X165179605Y-96650000D01*
X164820395Y-96650000D01*
X163650776Y-95480381D01*
X163355688Y-95612317D01*
X163184841Y-95953045D01*
X163083750Y-96320557D01*
X163056299Y-96700729D01*
X161977000Y-96700729D01*
X161977000Y-96455282D01*
X161901025Y-96073330D01*
X161751995Y-95713539D01*
X161535636Y-95389736D01*
X161446676Y-95300776D01*
X163830381Y-95300776D01*
X165000000Y-96470395D01*
X166169619Y-95300776D01*
X166037683Y-95005688D01*
X165696955Y-94834841D01*
X165329443Y-94733750D01*
X164949271Y-94706299D01*
X164571049Y-94753543D01*
X164209310Y-94873667D01*
X163962317Y-95005688D01*
X163830381Y-95300776D01*
X161446676Y-95300776D01*
X161260264Y-95114364D01*
X161077000Y-94991910D01*
X161077000Y-90136291D01*
X161117804Y-90102804D01*
X161233495Y-89961833D01*
X161319462Y-89801001D01*
X161332810Y-89757000D01*
X164958805Y-89757000D01*
X164999849Y-89784425D01*
X165195851Y-89865611D01*
X165403925Y-89907000D01*
X165616075Y-89907000D01*
X165824149Y-89865611D01*
X166020151Y-89784425D01*
X166196547Y-89666560D01*
X166346560Y-89516547D01*
X166464425Y-89340151D01*
X166545611Y-89144149D01*
X166587000Y-88936075D01*
X166587000Y-88723925D01*
X166545611Y-88515851D01*
X166464425Y-88319849D01*
X166349599Y-88148000D01*
X166791725Y-88148000D01*
X166791725Y-89398000D01*
X166809600Y-89579488D01*
X166862538Y-89754001D01*
X166948505Y-89914833D01*
X167064196Y-90055804D01*
X167107500Y-90091343D01*
X167107501Y-91277425D01*
X167071000Y-91460925D01*
X167071000Y-91673075D01*
X167112389Y-91881149D01*
X167193575Y-92077151D01*
X167311440Y-92253547D01*
X167461453Y-92403560D01*
X167637849Y-92521425D01*
X167833851Y-92602611D01*
X168041925Y-92644000D01*
X168254075Y-92644000D01*
X168462149Y-92602611D01*
X168658151Y-92521425D01*
X168834547Y-92403560D01*
X168908634Y-92329473D01*
X168949739Y-92295739D01*
X168983473Y-92254634D01*
X168984560Y-92253547D01*
X168985414Y-92252268D01*
X169084326Y-92131744D01*
X169184333Y-91944644D01*
X169245917Y-91741629D01*
X169261500Y-91583409D01*
X169261500Y-90091342D01*
X169304804Y-90055804D01*
X169420495Y-89914833D01*
X169506462Y-89754001D01*
X169559400Y-89579488D01*
X169577275Y-89398000D01*
X169577275Y-88148000D01*
X169559400Y-87966512D01*
X169506462Y-87791999D01*
X169420495Y-87631167D01*
X169304804Y-87490196D01*
X169163833Y-87374505D01*
X169003001Y-87288538D01*
X168828488Y-87235600D01*
X168647000Y-87217725D01*
X167722000Y-87217725D01*
X167540512Y-87235600D01*
X167365999Y-87288538D01*
X167205167Y-87374505D01*
X167064196Y-87490196D01*
X166948505Y-87631167D01*
X166862538Y-87791999D01*
X166809600Y-87966512D01*
X166791725Y-88148000D01*
X166349599Y-88148000D01*
X166346560Y-88143453D01*
X166196547Y-87993440D01*
X166020151Y-87875575D01*
X165824149Y-87794389D01*
X165616075Y-87753000D01*
X165403925Y-87753000D01*
X165195851Y-87794389D01*
X164999849Y-87875575D01*
X164958805Y-87903000D01*
X161338877Y-87903000D01*
X161319462Y-87838999D01*
X161233495Y-87678167D01*
X161117804Y-87537196D01*
X160976833Y-87421505D01*
X160816001Y-87335538D01*
X160641488Y-87282600D01*
X160460000Y-87264725D01*
X159535000Y-87264725D01*
X159353512Y-87282600D01*
X159178999Y-87335538D01*
X159018167Y-87421505D01*
X158877196Y-87537196D01*
X158761505Y-87678167D01*
X158675538Y-87838999D01*
X158622600Y-88013512D01*
X158604725Y-88195000D01*
X158604725Y-89445000D01*
X158622600Y-89626488D01*
X158675538Y-89801001D01*
X158761505Y-89961833D01*
X158877196Y-90102804D01*
X158923001Y-90140395D01*
X158923000Y-94991910D01*
X158739736Y-95114364D01*
X158464364Y-95389736D01*
X158248005Y-95713539D01*
X158098975Y-96073330D01*
X158023000Y-96455282D01*
X156925716Y-96455282D01*
X156896457Y-96221049D01*
X156776333Y-95859310D01*
X156644312Y-95612317D01*
X156349224Y-95480381D01*
X155179605Y-96650000D01*
X154820395Y-96650000D01*
X153650776Y-95480381D01*
X153355688Y-95612317D01*
X153184841Y-95953045D01*
X153083750Y-96320557D01*
X153056299Y-96700729D01*
X151980275Y-96700729D01*
X151980275Y-95350000D01*
X151975427Y-95300776D01*
X153830381Y-95300776D01*
X155000000Y-96470395D01*
X156169619Y-95300776D01*
X156037683Y-95005688D01*
X155696955Y-94834841D01*
X155329443Y-94733750D01*
X154949271Y-94706299D01*
X154571049Y-94753543D01*
X154209310Y-94873667D01*
X153962317Y-95005688D01*
X153830381Y-95300776D01*
X151975427Y-95300776D01*
X151967204Y-95217285D01*
X151928492Y-95089670D01*
X151865628Y-94972059D01*
X151781027Y-94868973D01*
X151677941Y-94784372D01*
X151560330Y-94721508D01*
X151432715Y-94682796D01*
X151300000Y-94669725D01*
X151077000Y-94669725D01*
X151077000Y-90133722D01*
X151090304Y-90122804D01*
X151205995Y-89981833D01*
X151291962Y-89821001D01*
X151344900Y-89646488D01*
X151362775Y-89465000D01*
X151362775Y-88758200D01*
X151925975Y-88195000D01*
X155629725Y-88195000D01*
X155629725Y-89445000D01*
X155647600Y-89626488D01*
X155700538Y-89801001D01*
X155786505Y-89961833D01*
X155902196Y-90102804D01*
X155945500Y-90138343D01*
X155945501Y-91471420D01*
X155945500Y-91471425D01*
X155945500Y-91683575D01*
X155955874Y-91735726D01*
X155961084Y-91788629D01*
X155976516Y-91839502D01*
X155986889Y-91891649D01*
X156007236Y-91940771D01*
X156022668Y-91991644D01*
X156047727Y-92038526D01*
X156068075Y-92087651D01*
X156097616Y-92131862D01*
X156122675Y-92178744D01*
X156156402Y-92219840D01*
X156185940Y-92264047D01*
X156223533Y-92301640D01*
X156257262Y-92342739D01*
X156298361Y-92376468D01*
X156335953Y-92414060D01*
X156380159Y-92443598D01*
X156421257Y-92477326D01*
X156468142Y-92502386D01*
X156512349Y-92531925D01*
X156561470Y-92552272D01*
X156608357Y-92577333D01*
X156659235Y-92592767D01*
X156708351Y-92613111D01*
X156760491Y-92623482D01*
X156811372Y-92638917D01*
X156864283Y-92644128D01*
X156916425Y-92654500D01*
X156969591Y-92654500D01*
X157022500Y-92659711D01*
X157075409Y-92654500D01*
X157128575Y-92654500D01*
X157180716Y-92644128D01*
X157233629Y-92638917D01*
X157284512Y-92623482D01*
X157336649Y-92613111D01*
X157385762Y-92592768D01*
X157436644Y-92577333D01*
X157483534Y-92552270D01*
X157532651Y-92531925D01*
X157576854Y-92502389D01*
X157623744Y-92477326D01*
X157664847Y-92443594D01*
X157709047Y-92414060D01*
X157746634Y-92376473D01*
X157787739Y-92342739D01*
X157821473Y-92301634D01*
X157859060Y-92264047D01*
X157888594Y-92219847D01*
X157922326Y-92178744D01*
X157947389Y-92131854D01*
X157976925Y-92087651D01*
X157997270Y-92038534D01*
X158022333Y-91991644D01*
X158037768Y-91940762D01*
X158058111Y-91891649D01*
X158068482Y-91839512D01*
X158083917Y-91788629D01*
X158089128Y-91735716D01*
X158099500Y-91683575D01*
X158099500Y-90138342D01*
X158142804Y-90102804D01*
X158258495Y-89961833D01*
X158344462Y-89801001D01*
X158397400Y-89626488D01*
X158415275Y-89445000D01*
X158415275Y-88195000D01*
X158397400Y-88013512D01*
X158344462Y-87838999D01*
X158258495Y-87678167D01*
X158142804Y-87537196D01*
X158001833Y-87421505D01*
X157841001Y-87335538D01*
X157666488Y-87282600D01*
X157485000Y-87264725D01*
X156560000Y-87264725D01*
X156378512Y-87282600D01*
X156203999Y-87335538D01*
X156043167Y-87421505D01*
X155902196Y-87537196D01*
X155786505Y-87678167D01*
X155700538Y-87838999D01*
X155647600Y-88013512D01*
X155629725Y-88195000D01*
X151925975Y-88195000D01*
X153311976Y-86809000D01*
X168716805Y-86809000D01*
X168757849Y-86836425D01*
X168953851Y-86917611D01*
X169161925Y-86959000D01*
X169374075Y-86959000D01*
X169582149Y-86917611D01*
X169778151Y-86836425D01*
X169954547Y-86718560D01*
X170104560Y-86568547D01*
X170222425Y-86392151D01*
X170238213Y-86354035D01*
X170241575Y-86362151D01*
X170269001Y-86403196D01*
X170269000Y-87327022D01*
X170180167Y-87374505D01*
X170039196Y-87490196D01*
X169923505Y-87631167D01*
X169837538Y-87791999D01*
X169784600Y-87966512D01*
X169766725Y-88148000D01*
X169766725Y-89398000D01*
X169784600Y-89579488D01*
X169837538Y-89754001D01*
X169923505Y-89914833D01*
X170039196Y-90055804D01*
X170082501Y-90091343D01*
X170082500Y-93394392D01*
X169275861Y-94201032D01*
X169234762Y-94234761D01*
X169100175Y-94398756D01*
X169000168Y-94585856D01*
X168938583Y-94788871D01*
X168924078Y-94936144D01*
X168918275Y-94995068D01*
X168739736Y-95114364D01*
X168464364Y-95389736D01*
X168248005Y-95713539D01*
X168098975Y-96073330D01*
X168023000Y-96455282D01*
X168023000Y-96844718D01*
X168098975Y-97226670D01*
X168248005Y-97586461D01*
X168464364Y-97910264D01*
X168739736Y-98185636D01*
X169063539Y-98401995D01*
X169423330Y-98551025D01*
X169805282Y-98627000D01*
X170194718Y-98627000D01*
X170576670Y-98551025D01*
X170936461Y-98401995D01*
X171260264Y-98185636D01*
X171446676Y-97999224D01*
X173830381Y-97999224D01*
X173962317Y-98294312D01*
X174303045Y-98465159D01*
X174670557Y-98566250D01*
X175050729Y-98593701D01*
X175428951Y-98546457D01*
X175790690Y-98426333D01*
X176037683Y-98294312D01*
X176169619Y-97999224D01*
X175000000Y-96829605D01*
X173830381Y-97999224D01*
X171446676Y-97999224D01*
X171535636Y-97910264D01*
X171751995Y-97586461D01*
X171901025Y-97226670D01*
X171977000Y-96844718D01*
X171977000Y-96700729D01*
X173056299Y-96700729D01*
X173103543Y-97078951D01*
X173223667Y-97440690D01*
X173355688Y-97687683D01*
X173650776Y-97819619D01*
X174820395Y-96650000D01*
X175179605Y-96650000D01*
X176349224Y-97819619D01*
X176644312Y-97687683D01*
X176815159Y-97346955D01*
X176916250Y-96979443D01*
X176943701Y-96599271D01*
X176896457Y-96221049D01*
X176776333Y-95859310D01*
X176644312Y-95612317D01*
X176349224Y-95480381D01*
X175179605Y-96650000D01*
X174820395Y-96650000D01*
X173650776Y-95480381D01*
X173355688Y-95612317D01*
X173184841Y-95953045D01*
X173083750Y-96320557D01*
X173056299Y-96700729D01*
X171977000Y-96700729D01*
X171977000Y-96455282D01*
X171901025Y-96073330D01*
X171751995Y-95713539D01*
X171535636Y-95389736D01*
X171446676Y-95300776D01*
X173830381Y-95300776D01*
X175000000Y-96470395D01*
X176169619Y-95300776D01*
X176037683Y-95005688D01*
X175696955Y-94834841D01*
X175329443Y-94733750D01*
X174949271Y-94706299D01*
X174571049Y-94753543D01*
X174209310Y-94873667D01*
X173962317Y-95005688D01*
X173830381Y-95300776D01*
X171446676Y-95300776D01*
X171334504Y-95188604D01*
X171883640Y-94639468D01*
X171924739Y-94605739D01*
X171993663Y-94521755D01*
X172059326Y-94441745D01*
X172159332Y-94254645D01*
X172159333Y-94254644D01*
X172220917Y-94051629D01*
X172225986Y-94000167D01*
X172241711Y-93840500D01*
X172236500Y-93787591D01*
X172236500Y-90091342D01*
X172279804Y-90055804D01*
X172395495Y-89914833D01*
X172481462Y-89754001D01*
X172534400Y-89579488D01*
X172552275Y-89398000D01*
X172552275Y-88148000D01*
X172534400Y-87966512D01*
X172481462Y-87791999D01*
X172395495Y-87631167D01*
X172279804Y-87490196D01*
X172138833Y-87374505D01*
X172123000Y-87366042D01*
X172123000Y-86403195D01*
X172150425Y-86362151D01*
X172231611Y-86166149D01*
X172273000Y-85958075D01*
X172273000Y-85745925D01*
X172231611Y-85537851D01*
X172150425Y-85341849D01*
X172032560Y-85165453D01*
X171882547Y-85015440D01*
X171706151Y-84897575D01*
X171510149Y-84816389D01*
X171302075Y-84775000D01*
X171089925Y-84775000D01*
X170881851Y-84816389D01*
X170685849Y-84897575D01*
X170509453Y-85015440D01*
X170359440Y-85165453D01*
X170241575Y-85341849D01*
X170225787Y-85379965D01*
X170222425Y-85371849D01*
X170104560Y-85195453D01*
X169954547Y-85045440D01*
X169778151Y-84927575D01*
X169582149Y-84846389D01*
X169374075Y-84805000D01*
X169161925Y-84805000D01*
X168953851Y-84846389D01*
X168757849Y-84927575D01*
X168716805Y-84955000D01*
X152973527Y-84955000D01*
X152928000Y-84950516D01*
X152882473Y-84955000D01*
X152882462Y-84955000D01*
X152746276Y-84968413D01*
X152571536Y-85021420D01*
X152410494Y-85107498D01*
X152304712Y-85194312D01*
X152304708Y-85194316D01*
X152269341Y-85223341D01*
X152240316Y-85258708D01*
X150214300Y-87284725D01*
X149507500Y-87284725D01*
X149326012Y-87302600D01*
X149151499Y-87355538D01*
X148990667Y-87441505D01*
X148849696Y-87557196D01*
X148734005Y-87698167D01*
X148648038Y-87858999D01*
X148595100Y-88033512D01*
X148577225Y-88215000D01*
X148577225Y-89465000D01*
X148595100Y-89646488D01*
X148648038Y-89821001D01*
X148734005Y-89981833D01*
X148849696Y-90122804D01*
X148923001Y-90182963D01*
X148923000Y-94669725D01*
X148700000Y-94669725D01*
X148567285Y-94682796D01*
X148439670Y-94721508D01*
X148322059Y-94784372D01*
X148218973Y-94868973D01*
X148134372Y-94972059D01*
X148071508Y-95089670D01*
X148032796Y-95217285D01*
X148019725Y-95350000D01*
X130401108Y-95350000D01*
X129728000Y-94676893D01*
X129728000Y-88560000D01*
X129804928Y-88560000D01*
X129817188Y-88684482D01*
X129853498Y-88804180D01*
X129912463Y-88914494D01*
X129991815Y-89011185D01*
X130088506Y-89090537D01*
X130198820Y-89149502D01*
X130318518Y-89185812D01*
X130443000Y-89198072D01*
X131032250Y-89195000D01*
X131191000Y-89036250D01*
X131191000Y-87974500D01*
X131445000Y-87974500D01*
X131445000Y-89036250D01*
X131603750Y-89195000D01*
X132193000Y-89198072D01*
X132317482Y-89185812D01*
X132437180Y-89149502D01*
X132547494Y-89090537D01*
X132644185Y-89011185D01*
X132723537Y-88914494D01*
X132782502Y-88804180D01*
X132818812Y-88684482D01*
X132831072Y-88560000D01*
X132828000Y-88133250D01*
X132669250Y-87974500D01*
X131445000Y-87974500D01*
X131191000Y-87974500D01*
X129966750Y-87974500D01*
X129808000Y-88133250D01*
X129804928Y-88560000D01*
X129728000Y-88560000D01*
X129728000Y-87135000D01*
X129804928Y-87135000D01*
X129808000Y-87561750D01*
X129966750Y-87720500D01*
X131191000Y-87720500D01*
X131191000Y-86658750D01*
X131445000Y-86658750D01*
X131445000Y-87720500D01*
X132669250Y-87720500D01*
X132828000Y-87561750D01*
X132831072Y-87135000D01*
X132818812Y-87010518D01*
X132782502Y-86890820D01*
X132723537Y-86780506D01*
X132644185Y-86683815D01*
X132547494Y-86604463D01*
X132437180Y-86545498D01*
X132317482Y-86509188D01*
X132193000Y-86496928D01*
X131603750Y-86500000D01*
X131445000Y-86658750D01*
X131191000Y-86658750D01*
X131032250Y-86500000D01*
X130443000Y-86496928D01*
X130318518Y-86509188D01*
X130198820Y-86545498D01*
X130088506Y-86604463D01*
X129991815Y-86683815D01*
X129912463Y-86780506D01*
X129853498Y-86890820D01*
X129817188Y-87010518D01*
X129804928Y-87135000D01*
X129728000Y-87135000D01*
X129728000Y-80603218D01*
X129737652Y-80621276D01*
X129840907Y-80747093D01*
X129966724Y-80850348D01*
X130110268Y-80927074D01*
X130266021Y-80974321D01*
X130326000Y-80980229D01*
X130326001Y-83556417D01*
X130176167Y-83636505D01*
X130035196Y-83752196D01*
X129919505Y-83893167D01*
X129833538Y-84053999D01*
X129780600Y-84228512D01*
X129762725Y-84410000D01*
X129762725Y-85335000D01*
X129780600Y-85516488D01*
X129833538Y-85691001D01*
X129919505Y-85851833D01*
X130035196Y-85992804D01*
X130176167Y-86108495D01*
X130336999Y-86194462D01*
X130511512Y-86247400D01*
X130693000Y-86265275D01*
X131943000Y-86265275D01*
X132124488Y-86247400D01*
X132299001Y-86194462D01*
X132459833Y-86108495D01*
X132509093Y-86068068D01*
X134911816Y-88470792D01*
X134940841Y-88506159D01*
X134976208Y-88535184D01*
X134976211Y-88535187D01*
X135081994Y-88622001D01*
X135149862Y-88658277D01*
X135243036Y-88708080D01*
X135417776Y-88761087D01*
X135475396Y-88766762D01*
X135507505Y-88826833D01*
X135623196Y-88967804D01*
X135764167Y-89083495D01*
X135924999Y-89169462D01*
X136099512Y-89222400D01*
X136281000Y-89240275D01*
X137531000Y-89240275D01*
X137712488Y-89222400D01*
X137887001Y-89169462D01*
X138047833Y-89083495D01*
X138188804Y-88967804D01*
X138304495Y-88826833D01*
X138390462Y-88666001D01*
X138443400Y-88491488D01*
X138461275Y-88310000D01*
X138461275Y-87385000D01*
X138443400Y-87203512D01*
X138390462Y-87028999D01*
X138304495Y-86868167D01*
X138188804Y-86727196D01*
X138047833Y-86611505D01*
X137887001Y-86525538D01*
X137712488Y-86472600D01*
X137531000Y-86454725D01*
X136281000Y-86454725D01*
X136099512Y-86472600D01*
X135924999Y-86525538D01*
X135764167Y-86611505D01*
X135714907Y-86651931D01*
X133312187Y-84249212D01*
X133283159Y-84213841D01*
X133142005Y-84097999D01*
X132980964Y-84011920D01*
X132806224Y-83958913D01*
X132748604Y-83953238D01*
X132716495Y-83893167D01*
X132600804Y-83752196D01*
X132459833Y-83636505D01*
X132299001Y-83550538D01*
X132180000Y-83514439D01*
X132180000Y-80980229D01*
X132239979Y-80974321D01*
X132395732Y-80927074D01*
X132539276Y-80850348D01*
X132665093Y-80747093D01*
X132768348Y-80621276D01*
X132845074Y-80477732D01*
X132892321Y-80321979D01*
X132908275Y-80160000D01*
X132908275Y-79860000D01*
X132904040Y-79817000D01*
X133932091Y-79817000D01*
X133985000Y-79822211D01*
X134037909Y-79817000D01*
X134196129Y-79801417D01*
X134399144Y-79739833D01*
X134586244Y-79639826D01*
X134750239Y-79505239D01*
X134884826Y-79341244D01*
X134984833Y-79154144D01*
X135046417Y-78951129D01*
X135067211Y-78740000D01*
X135062000Y-78687091D01*
X135062000Y-73077909D01*
X135067211Y-73025000D01*
X135046417Y-72813870D01*
X134984833Y-72610855D01*
X134884826Y-72423755D01*
X134800085Y-72320499D01*
X134750239Y-72259761D01*
X134709140Y-72226032D01*
X133132973Y-70649865D01*
X133099239Y-70608761D01*
X132935244Y-70474174D01*
X132748144Y-70374167D01*
X132545129Y-70312583D01*
X132386909Y-70297000D01*
X132386907Y-70297000D01*
X132334000Y-70291789D01*
X132281093Y-70297000D01*
X131536149Y-70297000D01*
X131501495Y-70232167D01*
X131385804Y-70091196D01*
X131244833Y-69975505D01*
X131084001Y-69889538D01*
X130909488Y-69836600D01*
X130728000Y-69818725D01*
X129803000Y-69818725D01*
X129621512Y-69836600D01*
X129446999Y-69889538D01*
X129286167Y-69975505D01*
X129145196Y-70091196D01*
X129029505Y-70232167D01*
X128943538Y-70392999D01*
X128890600Y-70567512D01*
X128872725Y-70749000D01*
X128872725Y-71999000D01*
X128890600Y-72180488D01*
X128943538Y-72355001D01*
X129029505Y-72515833D01*
X129145196Y-72656804D01*
X129286167Y-72772495D01*
X129446999Y-72858462D01*
X129621512Y-72911400D01*
X129803000Y-72929275D01*
X130728000Y-72929275D01*
X130909488Y-72911400D01*
X131084001Y-72858462D01*
X131244833Y-72772495D01*
X131385804Y-72656804D01*
X131501495Y-72515833D01*
X131536149Y-72451000D01*
X131887893Y-72451000D01*
X132908001Y-73471109D01*
X132908000Y-76047213D01*
X132892321Y-75888021D01*
X132845074Y-75732268D01*
X132768348Y-75588724D01*
X132665093Y-75462907D01*
X132539276Y-75359652D01*
X132395732Y-75282926D01*
X132239979Y-75235679D01*
X132078000Y-75219725D01*
X130428000Y-75219725D01*
X130266021Y-75235679D01*
X130142990Y-75273000D01*
X127413010Y-75273000D01*
X127380000Y-75262986D01*
X127380000Y-72929275D01*
X127753000Y-72929275D01*
X127934488Y-72911400D01*
X128109001Y-72858462D01*
X128269833Y-72772495D01*
X128410804Y-72656804D01*
X128526495Y-72515833D01*
X128612462Y-72355001D01*
X128665400Y-72180488D01*
X128683275Y-71999000D01*
X128683275Y-70749000D01*
X128665400Y-70567512D01*
X128612462Y-70392999D01*
X128526495Y-70232167D01*
X128410804Y-70091196D01*
X128269833Y-69975505D01*
X128109001Y-69889538D01*
X127934488Y-69836600D01*
X127753000Y-69818725D01*
X126828000Y-69818725D01*
X126646512Y-69836600D01*
X126471999Y-69889538D01*
X126311167Y-69975505D01*
X126170196Y-70091196D01*
X126054505Y-70232167D01*
X125968538Y-70392999D01*
X125915600Y-70567512D01*
X125897725Y-70749000D01*
X125897725Y-71243668D01*
X125578861Y-71562532D01*
X125537762Y-71596261D01*
X125504034Y-71637359D01*
X125403175Y-71760256D01*
X125303168Y-71947356D01*
X125241584Y-72150371D01*
X125220789Y-72361500D01*
X125226001Y-72414417D01*
X125226000Y-75262986D01*
X125160268Y-75282926D01*
X125016724Y-75359652D01*
X124890907Y-75462907D01*
X124787652Y-75588724D01*
X124710926Y-75732268D01*
X124663679Y-75888021D01*
X124647725Y-76050000D01*
X124647725Y-76350000D01*
X124651960Y-76393000D01*
X122112108Y-76393000D01*
X119798145Y-74079037D01*
X119841941Y-74055628D01*
X119945027Y-73971027D01*
X120029628Y-73867941D01*
X120092492Y-73750330D01*
X120131204Y-73622715D01*
X120144275Y-73490000D01*
X120144275Y-71290000D01*
X120131204Y-71157285D01*
X120092492Y-71029670D01*
X120029628Y-70912059D01*
X119945027Y-70808973D01*
X119841941Y-70724372D01*
X119724330Y-70661508D01*
X119596715Y-70622796D01*
X119464000Y-70609725D01*
X119441000Y-70609725D01*
X119441000Y-63894820D01*
X119560518Y-63814961D01*
X119821961Y-63553518D01*
X119864000Y-63490602D01*
X119906039Y-63553518D01*
X120167482Y-63814961D01*
X120474907Y-64020376D01*
X120816499Y-64161868D01*
X121179132Y-64234000D01*
X121548868Y-64234000D01*
X121911501Y-64161868D01*
X122253093Y-64020376D01*
X122560518Y-63814961D01*
X122821961Y-63553518D01*
X122901820Y-63434000D01*
X127993418Y-63434000D01*
X128047372Y-63534941D01*
X128131973Y-63638027D01*
X128235059Y-63722628D01*
X128336000Y-63776582D01*
X128336000Y-64082093D01*
X128330789Y-64135000D01*
X128336000Y-64187907D01*
X128336000Y-64187908D01*
X128351583Y-64346128D01*
X128413167Y-64549143D01*
X128513174Y-64736244D01*
X128647761Y-64900239D01*
X128688866Y-64933973D01*
X135829001Y-72074109D01*
X135829000Y-83601851D01*
X135764167Y-83636505D01*
X135623196Y-83752196D01*
X135507505Y-83893167D01*
X135421538Y-84053999D01*
X135368600Y-84228512D01*
X135350725Y-84410000D01*
X135350725Y-85335000D01*
X135368600Y-85516488D01*
X135421538Y-85691001D01*
X135507505Y-85851833D01*
X135623196Y-85992804D01*
X135764167Y-86108495D01*
X135924999Y-86194462D01*
X136099512Y-86247400D01*
X136281000Y-86265275D01*
X137531000Y-86265275D01*
X137712488Y-86247400D01*
X137887001Y-86194462D01*
X138047833Y-86108495D01*
X138188804Y-85992804D01*
X138224342Y-85949500D01*
X139766000Y-85949500D01*
X139766001Y-89609083D01*
X139760789Y-89662000D01*
X139780844Y-89865611D01*
X139781584Y-89873129D01*
X139843168Y-90076144D01*
X139943175Y-90263244D01*
X140077762Y-90427239D01*
X140118861Y-90460968D01*
X141949036Y-92291144D01*
X141982765Y-92332243D01*
X142146760Y-92466830D01*
X142333860Y-92566837D01*
X142536875Y-92628421D01*
X142695095Y-92644004D01*
X142695096Y-92644004D01*
X142748003Y-92649215D01*
X142800910Y-92644004D01*
X145616093Y-92644004D01*
X145669000Y-92649215D01*
X145721907Y-92644004D01*
X145775075Y-92644004D01*
X145827216Y-92633632D01*
X145880129Y-92628421D01*
X145931012Y-92612986D01*
X145983149Y-92602615D01*
X146032262Y-92582272D01*
X146083144Y-92566837D01*
X146130034Y-92541774D01*
X146179151Y-92521429D01*
X146223354Y-92491893D01*
X146270244Y-92466830D01*
X146311347Y-92433098D01*
X146355547Y-92403564D01*
X146393134Y-92365977D01*
X146434239Y-92332243D01*
X146467973Y-92291138D01*
X146505560Y-92253551D01*
X147719140Y-91039972D01*
X147760239Y-91006243D01*
X147894826Y-90842248D01*
X147994833Y-90655148D01*
X148056417Y-90452133D01*
X148072000Y-90293913D01*
X148072000Y-90293912D01*
X148077211Y-90241005D01*
X148072000Y-90188098D01*
X148072000Y-90158342D01*
X148115304Y-90122804D01*
X148230995Y-89981833D01*
X148316962Y-89821001D01*
X148369900Y-89646488D01*
X148387775Y-89465000D01*
X148387775Y-88215000D01*
X148369900Y-88033512D01*
X148316962Y-87858999D01*
X148230995Y-87698167D01*
X148115304Y-87557196D01*
X147974333Y-87441505D01*
X147813501Y-87355538D01*
X147638988Y-87302600D01*
X147457500Y-87284725D01*
X146532500Y-87284725D01*
X146351012Y-87302600D01*
X146176499Y-87355538D01*
X146015667Y-87441505D01*
X145874696Y-87557196D01*
X145759005Y-87698167D01*
X145673038Y-87858999D01*
X145620100Y-88033512D01*
X145602225Y-88215000D01*
X145602225Y-89465000D01*
X145620100Y-89646488D01*
X145673038Y-89821001D01*
X145749272Y-89963624D01*
X145222893Y-90490004D01*
X143194112Y-90490004D01*
X141920000Y-89215893D01*
X141920000Y-85949500D01*
X148119593Y-85949500D01*
X148172500Y-85954711D01*
X148225407Y-85949500D01*
X148225409Y-85949500D01*
X148383629Y-85933917D01*
X148586644Y-85872333D01*
X148773744Y-85772326D01*
X148937739Y-85637739D01*
X148971472Y-85596635D01*
X150215608Y-84352500D01*
X151208658Y-84352500D01*
X151244196Y-84395804D01*
X151385167Y-84511495D01*
X151545999Y-84597462D01*
X151720512Y-84650400D01*
X151902000Y-84668275D01*
X153152000Y-84668275D01*
X153333488Y-84650400D01*
X153508001Y-84597462D01*
X153668833Y-84511495D01*
X153809804Y-84395804D01*
X153815388Y-84389000D01*
X156189075Y-84389000D01*
X156241216Y-84378628D01*
X156294129Y-84373417D01*
X156345012Y-84357982D01*
X156397149Y-84347611D01*
X156446262Y-84327268D01*
X156497144Y-84311833D01*
X156544034Y-84286770D01*
X156593151Y-84266425D01*
X156637354Y-84236889D01*
X156684244Y-84211826D01*
X156725347Y-84178094D01*
X156769547Y-84148560D01*
X156807134Y-84110973D01*
X156848239Y-84077239D01*
X156881973Y-84036134D01*
X156919560Y-83998547D01*
X156949094Y-83954347D01*
X156982826Y-83913244D01*
X157007889Y-83866354D01*
X157037425Y-83822151D01*
X157057770Y-83773034D01*
X157082833Y-83726144D01*
X157098268Y-83675262D01*
X157118611Y-83626149D01*
X157128982Y-83574012D01*
X157144417Y-83523129D01*
X157149628Y-83470216D01*
X157160000Y-83418075D01*
X157160000Y-83364909D01*
X157165211Y-83312000D01*
X157160000Y-83259091D01*
X157160000Y-83205925D01*
X157149628Y-83153784D01*
X157144417Y-83100871D01*
X157128982Y-83049988D01*
X157118611Y-82997851D01*
X157098268Y-82948738D01*
X157082833Y-82897856D01*
X157057770Y-82850966D01*
X157037425Y-82801849D01*
X157007889Y-82757646D01*
X156982826Y-82710756D01*
X156949094Y-82669653D01*
X156919560Y-82625453D01*
X156881973Y-82587866D01*
X156848239Y-82546761D01*
X156807134Y-82513027D01*
X156769547Y-82475440D01*
X156725347Y-82445906D01*
X156684244Y-82412174D01*
X156637354Y-82387111D01*
X156593151Y-82357575D01*
X156544034Y-82337230D01*
X156497144Y-82312167D01*
X156446262Y-82296732D01*
X156397149Y-82276389D01*
X156345012Y-82266018D01*
X156294129Y-82250583D01*
X156241216Y-82245372D01*
X156189075Y-82235000D01*
X153875297Y-82235000D01*
X153809804Y-82155196D01*
X153668833Y-82039505D01*
X153508001Y-81953538D01*
X153333488Y-81900600D01*
X153152000Y-81882725D01*
X151902000Y-81882725D01*
X151720512Y-81900600D01*
X151545999Y-81953538D01*
X151385167Y-82039505D01*
X151244196Y-82155196D01*
X151208658Y-82198500D01*
X149822406Y-82198500D01*
X149769499Y-82193289D01*
X149716592Y-82198500D01*
X149716591Y-82198500D01*
X149558371Y-82214083D01*
X149355356Y-82275667D01*
X149168256Y-82375674D01*
X149004261Y-82510261D01*
X148970532Y-82551360D01*
X147726393Y-83795500D01*
X140895909Y-83795500D01*
X140843000Y-83790289D01*
X140790091Y-83795500D01*
X138224342Y-83795500D01*
X138188804Y-83752196D01*
X138047833Y-83636505D01*
X137983000Y-83601851D01*
X137983000Y-81129702D01*
X140928903Y-81129702D01*
X141000486Y-81373671D01*
X141255996Y-81494571D01*
X141530184Y-81563300D01*
X141812512Y-81577217D01*
X142092130Y-81535787D01*
X142358292Y-81440603D01*
X142483514Y-81373671D01*
X142555097Y-81129702D01*
X141742000Y-80316605D01*
X140928903Y-81129702D01*
X137983000Y-81129702D01*
X137983000Y-80207512D01*
X140301783Y-80207512D01*
X140343213Y-80487130D01*
X140438397Y-80753292D01*
X140505329Y-80878514D01*
X140749298Y-80950097D01*
X141562395Y-80137000D01*
X141921605Y-80137000D01*
X142734702Y-80950097D01*
X142978671Y-80878514D01*
X143099571Y-80623004D01*
X143168300Y-80348816D01*
X143182217Y-80066488D01*
X143140787Y-79786870D01*
X143045603Y-79520708D01*
X142978671Y-79395486D01*
X142779340Y-79337000D01*
X144061725Y-79337000D01*
X144061725Y-80937000D01*
X144074796Y-81069715D01*
X144113508Y-81197330D01*
X144176372Y-81314941D01*
X144260973Y-81418027D01*
X144364059Y-81502628D01*
X144481670Y-81565492D01*
X144609285Y-81604204D01*
X144742000Y-81617275D01*
X146342000Y-81617275D01*
X146474715Y-81604204D01*
X146602330Y-81565492D01*
X146719941Y-81502628D01*
X146823027Y-81418027D01*
X146907628Y-81314941D01*
X146970492Y-81197330D01*
X147009204Y-81069715D01*
X147009767Y-81064000D01*
X151025854Y-81064000D01*
X151042538Y-81119001D01*
X151128505Y-81279833D01*
X151244196Y-81420804D01*
X151385167Y-81536495D01*
X151545999Y-81622462D01*
X151720512Y-81675400D01*
X151902000Y-81693275D01*
X153152000Y-81693275D01*
X153333488Y-81675400D01*
X153508001Y-81622462D01*
X153668833Y-81536495D01*
X153809804Y-81420804D01*
X153925495Y-81279833D01*
X153953468Y-81227500D01*
X166770758Y-81227500D01*
X166944851Y-81299611D01*
X167152925Y-81341000D01*
X167365075Y-81341000D01*
X167573149Y-81299611D01*
X167769151Y-81218425D01*
X167945547Y-81100560D01*
X168095560Y-80950547D01*
X168213425Y-80774151D01*
X168227570Y-80740000D01*
X171256928Y-80740000D01*
X171269188Y-80864482D01*
X171305498Y-80984180D01*
X171364463Y-81094494D01*
X171443815Y-81191185D01*
X171540506Y-81270537D01*
X171650820Y-81329502D01*
X171770518Y-81365812D01*
X171895000Y-81378072D01*
X171909250Y-81375000D01*
X172068000Y-81216250D01*
X172068000Y-79892000D01*
X172322000Y-79892000D01*
X172322000Y-81216250D01*
X172480750Y-81375000D01*
X172495000Y-81378072D01*
X172619482Y-81365812D01*
X172739180Y-81329502D01*
X172830000Y-81280957D01*
X172920820Y-81329502D01*
X173040518Y-81365812D01*
X173165000Y-81378072D01*
X173179250Y-81375000D01*
X173338000Y-81216250D01*
X173338000Y-79892000D01*
X173592000Y-79892000D01*
X173592000Y-81216250D01*
X173750750Y-81375000D01*
X173765000Y-81378072D01*
X173889482Y-81365812D01*
X174009180Y-81329502D01*
X174100000Y-81280957D01*
X174190820Y-81329502D01*
X174310518Y-81365812D01*
X174435000Y-81378072D01*
X174449250Y-81375000D01*
X174608000Y-81216250D01*
X174608000Y-79892000D01*
X173592000Y-79892000D01*
X173338000Y-79892000D01*
X172322000Y-79892000D01*
X172068000Y-79892000D01*
X171418750Y-79892000D01*
X171260000Y-80050750D01*
X171256928Y-80740000D01*
X168227570Y-80740000D01*
X168294611Y-80578149D01*
X168336000Y-80370075D01*
X168336000Y-80157925D01*
X168294611Y-79949851D01*
X168213425Y-79753849D01*
X168095560Y-79577453D01*
X167945547Y-79427440D01*
X167930566Y-79417430D01*
X168072547Y-79322560D01*
X168222560Y-79172547D01*
X168340425Y-78996151D01*
X168421611Y-78800149D01*
X168423629Y-78790000D01*
X171256928Y-78790000D01*
X171260000Y-79479250D01*
X171418750Y-79638000D01*
X172068000Y-79638000D01*
X172068000Y-78313750D01*
X172322000Y-78313750D01*
X172322000Y-79638000D01*
X173338000Y-79638000D01*
X173338000Y-78313750D01*
X173592000Y-78313750D01*
X173592000Y-79638000D01*
X174608000Y-79638000D01*
X174608000Y-78313750D01*
X174449250Y-78155000D01*
X174435000Y-78151928D01*
X174310518Y-78164188D01*
X174190820Y-78200498D01*
X174100000Y-78249043D01*
X174009180Y-78200498D01*
X173889482Y-78164188D01*
X173765000Y-78151928D01*
X173750750Y-78155000D01*
X173592000Y-78313750D01*
X173338000Y-78313750D01*
X173179250Y-78155000D01*
X173165000Y-78151928D01*
X173040518Y-78164188D01*
X172920820Y-78200498D01*
X172830000Y-78249043D01*
X172739180Y-78200498D01*
X172619482Y-78164188D01*
X172495000Y-78151928D01*
X172480750Y-78155000D01*
X172322000Y-78313750D01*
X172068000Y-78313750D01*
X171909250Y-78155000D01*
X171895000Y-78151928D01*
X171770518Y-78164188D01*
X171650820Y-78200498D01*
X171540506Y-78259463D01*
X171443815Y-78338815D01*
X171364463Y-78435506D01*
X171305498Y-78545820D01*
X171269188Y-78665518D01*
X171256928Y-78790000D01*
X168423629Y-78790000D01*
X168463000Y-78592075D01*
X168463000Y-78379925D01*
X168421611Y-78171851D01*
X168340425Y-77975849D01*
X168222560Y-77799453D01*
X168072547Y-77649440D01*
X167896151Y-77531575D01*
X167700149Y-77450389D01*
X167492075Y-77409000D01*
X167279925Y-77409000D01*
X167071851Y-77450389D01*
X166875849Y-77531575D01*
X166834805Y-77559000D01*
X161460196Y-77559000D01*
X161419152Y-77531575D01*
X161223150Y-77450389D01*
X161015076Y-77409000D01*
X160802926Y-77409000D01*
X160594852Y-77450389D01*
X160398850Y-77531575D01*
X160222454Y-77649440D01*
X160072441Y-77799453D01*
X159954576Y-77975849D01*
X159873390Y-78171851D01*
X159832001Y-78379925D01*
X159832001Y-78592075D01*
X159873390Y-78800149D01*
X159954576Y-78996151D01*
X160072441Y-79172547D01*
X160222454Y-79322560D01*
X160298690Y-79373500D01*
X153953468Y-79373500D01*
X153925495Y-79321167D01*
X153809804Y-79180196D01*
X153668833Y-79064505D01*
X153508001Y-78978538D01*
X153333488Y-78925600D01*
X153152000Y-78907725D01*
X151902000Y-78907725D01*
X151720512Y-78925600D01*
X151545999Y-78978538D01*
X151385167Y-79064505D01*
X151244196Y-79180196D01*
X151219737Y-79210000D01*
X147009767Y-79210000D01*
X147009204Y-79204285D01*
X146970492Y-79076670D01*
X146907628Y-78959059D01*
X146823027Y-78855973D01*
X146719941Y-78771372D01*
X146602330Y-78708508D01*
X146474715Y-78669796D01*
X146342000Y-78656725D01*
X144742000Y-78656725D01*
X144609285Y-78669796D01*
X144481670Y-78708508D01*
X144364059Y-78771372D01*
X144260973Y-78855973D01*
X144176372Y-78959059D01*
X144113508Y-79076670D01*
X144074796Y-79204285D01*
X144061725Y-79337000D01*
X142779340Y-79337000D01*
X142734702Y-79323903D01*
X141921605Y-80137000D01*
X141562395Y-80137000D01*
X140749298Y-79323903D01*
X140505329Y-79395486D01*
X140384429Y-79650996D01*
X140315700Y-79925184D01*
X140301783Y-80207512D01*
X137983000Y-80207512D01*
X137983000Y-79144298D01*
X140928903Y-79144298D01*
X141742000Y-79957395D01*
X142555097Y-79144298D01*
X142483514Y-78900329D01*
X142228004Y-78779429D01*
X141953816Y-78710700D01*
X141671488Y-78696783D01*
X141391870Y-78738213D01*
X141125708Y-78833397D01*
X141000486Y-78900329D01*
X140928903Y-79144298D01*
X137983000Y-79144298D01*
X137983000Y-75987000D01*
X165872928Y-75987000D01*
X165885188Y-76111482D01*
X165921498Y-76231180D01*
X165980463Y-76341494D01*
X166059815Y-76438185D01*
X166156506Y-76517537D01*
X166266820Y-76576502D01*
X166386518Y-76612812D01*
X166511000Y-76625072D01*
X167100250Y-76622000D01*
X167259000Y-76463250D01*
X167259000Y-75401500D01*
X167513000Y-75401500D01*
X167513000Y-76463250D01*
X167671750Y-76622000D01*
X168261000Y-76625072D01*
X168385482Y-76612812D01*
X168505180Y-76576502D01*
X168615494Y-76517537D01*
X168712185Y-76438185D01*
X168791537Y-76341494D01*
X168850502Y-76231180D01*
X168886812Y-76111482D01*
X168899072Y-75987000D01*
X168897654Y-75790000D01*
X171256928Y-75790000D01*
X171269188Y-75914482D01*
X171305498Y-76034180D01*
X171364463Y-76144494D01*
X171443815Y-76241185D01*
X171540506Y-76320537D01*
X171650820Y-76379502D01*
X171770518Y-76415812D01*
X171895000Y-76428072D01*
X171909250Y-76425000D01*
X172068000Y-76266250D01*
X172068000Y-74942000D01*
X171418750Y-74942000D01*
X171260000Y-75100750D01*
X171256928Y-75790000D01*
X168897654Y-75790000D01*
X168896000Y-75560250D01*
X168737250Y-75401500D01*
X167513000Y-75401500D01*
X167259000Y-75401500D01*
X166034750Y-75401500D01*
X165876000Y-75560250D01*
X165872928Y-75987000D01*
X137983000Y-75987000D01*
X137983000Y-74562000D01*
X165872928Y-74562000D01*
X165876000Y-74988750D01*
X166034750Y-75147500D01*
X167259000Y-75147500D01*
X167259000Y-74085750D01*
X167513000Y-74085750D01*
X167513000Y-75147500D01*
X168737250Y-75147500D01*
X168896000Y-74988750D01*
X168899072Y-74562000D01*
X168886812Y-74437518D01*
X168850502Y-74317820D01*
X168791537Y-74207506D01*
X168712185Y-74110815D01*
X168615494Y-74031463D01*
X168505180Y-73972498D01*
X168385482Y-73936188D01*
X168261000Y-73923928D01*
X167671750Y-73927000D01*
X167513000Y-74085750D01*
X167259000Y-74085750D01*
X167100250Y-73927000D01*
X166511000Y-73923928D01*
X166386518Y-73936188D01*
X166266820Y-73972498D01*
X166156506Y-74031463D01*
X166059815Y-74110815D01*
X165980463Y-74207506D01*
X165921498Y-74317820D01*
X165885188Y-74437518D01*
X165872928Y-74562000D01*
X137983000Y-74562000D01*
X137983000Y-73840000D01*
X171256928Y-73840000D01*
X171260000Y-74529250D01*
X171418750Y-74688000D01*
X172068000Y-74688000D01*
X172068000Y-73363750D01*
X171909250Y-73205000D01*
X171895000Y-73201928D01*
X171770518Y-73214188D01*
X171650820Y-73250498D01*
X171540506Y-73309463D01*
X171443815Y-73388815D01*
X171364463Y-73485506D01*
X171305498Y-73595820D01*
X171269188Y-73715518D01*
X171256928Y-73840000D01*
X137983000Y-73840000D01*
X137983000Y-71680906D01*
X137988211Y-71627999D01*
X137982203Y-71567000D01*
X137967417Y-71416871D01*
X137905833Y-71213856D01*
X137805826Y-71026756D01*
X137671239Y-70862761D01*
X137630140Y-70829032D01*
X130547145Y-63746038D01*
X130590941Y-63722628D01*
X130694027Y-63638027D01*
X130778628Y-63534941D01*
X130841492Y-63417330D01*
X130862006Y-63349702D01*
X132399903Y-63349702D01*
X132471486Y-63593671D01*
X132726996Y-63714571D01*
X133001184Y-63783300D01*
X133283512Y-63797217D01*
X133563130Y-63755787D01*
X133829292Y-63660603D01*
X133954514Y-63593671D01*
X134026097Y-63349702D01*
X133213000Y-62536605D01*
X132399903Y-63349702D01*
X130862006Y-63349702D01*
X130880204Y-63289715D01*
X130893275Y-63157000D01*
X130893275Y-62427512D01*
X131772783Y-62427512D01*
X131814213Y-62707130D01*
X131909397Y-62973292D01*
X131976329Y-63098514D01*
X132220298Y-63170097D01*
X133033395Y-62357000D01*
X133392605Y-62357000D01*
X134205702Y-63170097D01*
X134449671Y-63098514D01*
X134570571Y-62843004D01*
X134639300Y-62568816D01*
X134653217Y-62286488D01*
X134611787Y-62006870D01*
X134516603Y-61740708D01*
X134449671Y-61615486D01*
X134205702Y-61543903D01*
X133392605Y-62357000D01*
X133033395Y-62357000D01*
X132220298Y-61543903D01*
X131976329Y-61615486D01*
X131855429Y-61870996D01*
X131786700Y-62145184D01*
X131772783Y-62427512D01*
X130893275Y-62427512D01*
X130893275Y-61557000D01*
X130880204Y-61424285D01*
X130862007Y-61364298D01*
X132399903Y-61364298D01*
X133213000Y-62177395D01*
X134026097Y-61364298D01*
X133954514Y-61120329D01*
X133699004Y-60999429D01*
X133424816Y-60930700D01*
X133142488Y-60916783D01*
X132862870Y-60958213D01*
X132596708Y-61053397D01*
X132471486Y-61120329D01*
X132399903Y-61364298D01*
X130862007Y-61364298D01*
X130841492Y-61296670D01*
X130778628Y-61179059D01*
X130694027Y-61075973D01*
X130590941Y-60991372D01*
X130490000Y-60937418D01*
X130490000Y-60898107D01*
X130838608Y-60549500D01*
X139879501Y-60549500D01*
X139879500Y-68497973D01*
X139875016Y-68543500D01*
X139879500Y-68589027D01*
X139879500Y-68589037D01*
X139892913Y-68725223D01*
X139945920Y-68899963D01*
X140031999Y-69061005D01*
X140118812Y-69166787D01*
X140147841Y-69202159D01*
X140183213Y-69231188D01*
X141679316Y-70727292D01*
X141708341Y-70762659D01*
X141743708Y-70791684D01*
X141743712Y-70791688D01*
X141849494Y-70878501D01*
X141896934Y-70903858D01*
X142010536Y-70964580D01*
X142185276Y-71017587D01*
X142321462Y-71031000D01*
X142321472Y-71031000D01*
X142366999Y-71035484D01*
X142412526Y-71031000D01*
X148841025Y-71031000D01*
X149695001Y-71884976D01*
X149695000Y-72092804D01*
X149667575Y-72133849D01*
X149586389Y-72329851D01*
X149545000Y-72537925D01*
X149545000Y-72750075D01*
X149586389Y-72958149D01*
X149667575Y-73154151D01*
X149785440Y-73330547D01*
X149935453Y-73480560D01*
X150111849Y-73598425D01*
X150307851Y-73679611D01*
X150515925Y-73721000D01*
X150728075Y-73721000D01*
X150936149Y-73679611D01*
X151132151Y-73598425D01*
X151308547Y-73480560D01*
X151458560Y-73330547D01*
X151576425Y-73154151D01*
X151657611Y-72958149D01*
X151699000Y-72750075D01*
X151699000Y-72537925D01*
X151657611Y-72329851D01*
X151576425Y-72133849D01*
X151549000Y-72092805D01*
X151549000Y-71837000D01*
X165830725Y-71837000D01*
X165830725Y-72762000D01*
X165848600Y-72943488D01*
X165901538Y-73118001D01*
X165987505Y-73278833D01*
X166103196Y-73419804D01*
X166244167Y-73535495D01*
X166404999Y-73621462D01*
X166579512Y-73674400D01*
X166761000Y-73692275D01*
X168011000Y-73692275D01*
X168192488Y-73674400D01*
X168367001Y-73621462D01*
X168527833Y-73535495D01*
X168668804Y-73419804D01*
X168784495Y-73278833D01*
X168870462Y-73118001D01*
X168923400Y-72943488D01*
X168941275Y-72762000D01*
X168941275Y-71837000D01*
X168923400Y-71655512D01*
X168870462Y-71480999D01*
X168784495Y-71320167D01*
X168668804Y-71179196D01*
X168527833Y-71063505D01*
X168367001Y-70977538D01*
X168349873Y-70972342D01*
X168421611Y-70799149D01*
X168463000Y-70591075D01*
X168463000Y-70378925D01*
X168421611Y-70170851D01*
X168340425Y-69974849D01*
X168222560Y-69798453D01*
X168072547Y-69648440D01*
X167896151Y-69530575D01*
X167700149Y-69449389D01*
X167492075Y-69408000D01*
X167279925Y-69408000D01*
X167071851Y-69449389D01*
X166875849Y-69530575D01*
X166699453Y-69648440D01*
X166549440Y-69798453D01*
X166431575Y-69974849D01*
X166350389Y-70170851D01*
X166309000Y-70378925D01*
X166309000Y-70591075D01*
X166350389Y-70799149D01*
X166422127Y-70972342D01*
X166404999Y-70977538D01*
X166244167Y-71063505D01*
X166103196Y-71179196D01*
X165987505Y-71320167D01*
X165901538Y-71480999D01*
X165848600Y-71655512D01*
X165830725Y-71837000D01*
X151549000Y-71837000D01*
X151549000Y-71546524D01*
X151553484Y-71500999D01*
X151549000Y-71455474D01*
X151549000Y-71455462D01*
X151535587Y-71319276D01*
X151482580Y-71144536D01*
X151421893Y-71031000D01*
X151396501Y-70983494D01*
X151309687Y-70877711D01*
X151309684Y-70877708D01*
X151280659Y-70842341D01*
X151245292Y-70813316D01*
X149912687Y-69480712D01*
X149883659Y-69445341D01*
X149742505Y-69329499D01*
X149581464Y-69243420D01*
X149406724Y-69190413D01*
X149270538Y-69177000D01*
X149270527Y-69177000D01*
X149225000Y-69172516D01*
X149179473Y-69177000D01*
X142750976Y-69177000D01*
X141733500Y-68159525D01*
X141733500Y-61985000D01*
X143351725Y-61985000D01*
X143351725Y-62910000D01*
X143369600Y-63091488D01*
X143422538Y-63266001D01*
X143508505Y-63426833D01*
X143624196Y-63567804D01*
X143765167Y-63683495D01*
X143925999Y-63769462D01*
X144100512Y-63822400D01*
X144282000Y-63840275D01*
X145079300Y-63840275D01*
X146909759Y-65670734D01*
X146919389Y-65719149D01*
X147000575Y-65915151D01*
X147118440Y-66091547D01*
X147268453Y-66241560D01*
X147444849Y-66359425D01*
X147640851Y-66440611D01*
X147848925Y-66482000D01*
X148061075Y-66482000D01*
X148269149Y-66440611D01*
X148465151Y-66359425D01*
X148641547Y-66241560D01*
X148791560Y-66091547D01*
X148909425Y-65915151D01*
X148990611Y-65719149D01*
X149032000Y-65511075D01*
X149032000Y-65298925D01*
X148990611Y-65090851D01*
X148909425Y-64894849D01*
X148791560Y-64718453D01*
X148641547Y-64568440D01*
X148465151Y-64450575D01*
X148269149Y-64369389D01*
X148220734Y-64359759D01*
X146462275Y-62601300D01*
X146462275Y-61985000D01*
X148304725Y-61985000D01*
X148304725Y-62910000D01*
X148322600Y-63091488D01*
X148375538Y-63266001D01*
X148461505Y-63426833D01*
X148577196Y-63567804D01*
X148718167Y-63683495D01*
X148878999Y-63769462D01*
X149053512Y-63822400D01*
X149235000Y-63840275D01*
X149941800Y-63840275D01*
X153653816Y-67552292D01*
X153682841Y-67587659D01*
X153718208Y-67616684D01*
X153718212Y-67616688D01*
X153823994Y-67703501D01*
X153946532Y-67768999D01*
X153985036Y-67789580D01*
X154159776Y-67842587D01*
X154295962Y-67856000D01*
X154295972Y-67856000D01*
X154341499Y-67860484D01*
X154387026Y-67856000D01*
X166915025Y-67856000D01*
X172372387Y-73313363D01*
X172322000Y-73363750D01*
X172322000Y-74688000D01*
X172342000Y-74688000D01*
X172342000Y-74942000D01*
X172322000Y-74942000D01*
X172322000Y-76266250D01*
X172480750Y-76425000D01*
X172495000Y-76428072D01*
X172619482Y-76415812D01*
X172739180Y-76379502D01*
X172844816Y-76323037D01*
X172853724Y-76330348D01*
X172997268Y-76407074D01*
X173153021Y-76454321D01*
X173315000Y-76470275D01*
X173615000Y-76470275D01*
X173776979Y-76454321D01*
X173932732Y-76407074D01*
X174076276Y-76330348D01*
X174100000Y-76310878D01*
X174123724Y-76330348D01*
X174267268Y-76407074D01*
X174423021Y-76454321D01*
X174585000Y-76470275D01*
X174885000Y-76470275D01*
X175046979Y-76454321D01*
X175202732Y-76407074D01*
X175346276Y-76330348D01*
X175370000Y-76310878D01*
X175393724Y-76330348D01*
X175537268Y-76407074D01*
X175693021Y-76454321D01*
X175855000Y-76470275D01*
X176155000Y-76470275D01*
X176316979Y-76454321D01*
X176472732Y-76407074D01*
X176616276Y-76330348D01*
X176742093Y-76227093D01*
X176845348Y-76101276D01*
X176922074Y-75957732D01*
X176969321Y-75801979D01*
X176985275Y-75640000D01*
X176985275Y-73990000D01*
X176969321Y-73828021D01*
X176949000Y-73761031D01*
X176949000Y-71290195D01*
X176976425Y-71249151D01*
X177057611Y-71053149D01*
X177099000Y-70845075D01*
X177099000Y-70632925D01*
X177057611Y-70424851D01*
X176976425Y-70228849D01*
X176858560Y-70052453D01*
X176708547Y-69902440D01*
X176532151Y-69784575D01*
X176336149Y-69703389D01*
X176128075Y-69662000D01*
X175915925Y-69662000D01*
X175707851Y-69703389D01*
X175511849Y-69784575D01*
X175387000Y-69867997D01*
X175262151Y-69784575D01*
X175066149Y-69703389D01*
X174858075Y-69662000D01*
X174645925Y-69662000D01*
X174437851Y-69703389D01*
X174241849Y-69784575D01*
X174065453Y-69902440D01*
X173915440Y-70052453D01*
X173797575Y-70228849D01*
X173716389Y-70424851D01*
X173675000Y-70632925D01*
X173675000Y-70845075D01*
X173716389Y-71053149D01*
X173797575Y-71249151D01*
X173825001Y-71290196D01*
X173825001Y-72144025D01*
X168266975Y-66586000D01*
X172168805Y-66586000D01*
X172209849Y-66613425D01*
X172405851Y-66694611D01*
X172613925Y-66736000D01*
X172826075Y-66736000D01*
X173034149Y-66694611D01*
X173230151Y-66613425D01*
X173406547Y-66495560D01*
X173556560Y-66345547D01*
X173674425Y-66169151D01*
X173755611Y-65973149D01*
X173797000Y-65765075D01*
X173797000Y-65720000D01*
X173842075Y-65720000D01*
X174050149Y-65678611D01*
X174246151Y-65597425D01*
X174422547Y-65479560D01*
X174572560Y-65329547D01*
X174690425Y-65153151D01*
X174771611Y-64957149D01*
X174813000Y-64749075D01*
X174813000Y-64536925D01*
X174771611Y-64328851D01*
X174690425Y-64132849D01*
X174572560Y-63956453D01*
X174518032Y-63901925D01*
X178501000Y-63901925D01*
X178501000Y-64114075D01*
X178542389Y-64322149D01*
X178623575Y-64518151D01*
X178741440Y-64694547D01*
X178891453Y-64844560D01*
X179067849Y-64962425D01*
X179263851Y-65043611D01*
X179471925Y-65085000D01*
X179684075Y-65085000D01*
X179892149Y-65043611D01*
X180088151Y-64962425D01*
X180264547Y-64844560D01*
X180414560Y-64694547D01*
X180532425Y-64518151D01*
X180613611Y-64322149D01*
X180623242Y-64273734D01*
X181052410Y-63844566D01*
X181041000Y-63901925D01*
X181041000Y-64114075D01*
X181082389Y-64322149D01*
X181163575Y-64518151D01*
X181281440Y-64694547D01*
X181431453Y-64844560D01*
X181607849Y-64962425D01*
X181803851Y-65043611D01*
X182011925Y-65085000D01*
X182224075Y-65085000D01*
X182432149Y-65043611D01*
X182628151Y-64962425D01*
X182804547Y-64844560D01*
X182954560Y-64694547D01*
X183072425Y-64518151D01*
X183153611Y-64322149D01*
X183163242Y-64273734D01*
X185281292Y-62155684D01*
X185316659Y-62126659D01*
X185345684Y-62091292D01*
X185345687Y-62091289D01*
X185432501Y-61985506D01*
X185502111Y-61855275D01*
X185518580Y-61824464D01*
X185548983Y-61724239D01*
X185640715Y-61715204D01*
X185768330Y-61676492D01*
X185885941Y-61613628D01*
X185989027Y-61529027D01*
X186073628Y-61425941D01*
X186136492Y-61308330D01*
X186175204Y-61180715D01*
X186188275Y-61048000D01*
X186188275Y-59348000D01*
X186175204Y-59215285D01*
X186136492Y-59087670D01*
X186073628Y-58970059D01*
X185989027Y-58866973D01*
X185885941Y-58782372D01*
X185768330Y-58719508D01*
X185640715Y-58680796D01*
X185508000Y-58667725D01*
X183808000Y-58667725D01*
X183675285Y-58680796D01*
X183547670Y-58719508D01*
X183430059Y-58782372D01*
X183326973Y-58866973D01*
X183242372Y-58970059D01*
X183179508Y-59087670D01*
X183176638Y-59097133D01*
X183091406Y-59011901D01*
X182841306Y-58844790D01*
X182563410Y-58729681D01*
X182268396Y-58671000D01*
X181967604Y-58671000D01*
X181672590Y-58729681D01*
X181394694Y-58844790D01*
X181144594Y-59011901D01*
X180931901Y-59224594D01*
X180818998Y-59393566D01*
X180773178Y-59316645D01*
X180578269Y-59100412D01*
X180344920Y-58926359D01*
X180082099Y-58801175D01*
X179934890Y-58756524D01*
X179705000Y-58877845D01*
X179705000Y-60071000D01*
X179725000Y-60071000D01*
X179725000Y-60325000D01*
X179705000Y-60325000D01*
X179705000Y-61518155D01*
X179934890Y-61639476D01*
X180082099Y-61594825D01*
X180344920Y-61469641D01*
X180578269Y-61295588D01*
X180773178Y-61079355D01*
X180818998Y-61002434D01*
X180931901Y-61171406D01*
X181017760Y-61257265D01*
X179312266Y-62962758D01*
X179263851Y-62972389D01*
X179067849Y-63053575D01*
X178891453Y-63171440D01*
X178741440Y-63321453D01*
X178623575Y-63497849D01*
X178542389Y-63693851D01*
X178501000Y-63901925D01*
X174518032Y-63901925D01*
X174422547Y-63806440D01*
X174246151Y-63688575D01*
X174050149Y-63607389D01*
X173842075Y-63566000D01*
X173629925Y-63566000D01*
X173421851Y-63607389D01*
X173225849Y-63688575D01*
X173184805Y-63716000D01*
X172122107Y-63716000D01*
X172159560Y-63678547D01*
X172277425Y-63502151D01*
X172358611Y-63306149D01*
X172400000Y-63098075D01*
X172400000Y-62885925D01*
X172358611Y-62677851D01*
X172277425Y-62481849D01*
X172250000Y-62440805D01*
X172250000Y-61820580D01*
X172306330Y-61803492D01*
X172423941Y-61740628D01*
X172527027Y-61656027D01*
X172611628Y-61552941D01*
X172674492Y-61435330D01*
X172692804Y-61374964D01*
X172735731Y-61422588D01*
X172969080Y-61596641D01*
X173231901Y-61721825D01*
X173379110Y-61766476D01*
X173609000Y-61645155D01*
X173609000Y-60452000D01*
X173863000Y-60452000D01*
X173863000Y-61645155D01*
X174092890Y-61766476D01*
X174240099Y-61721825D01*
X174502920Y-61596641D01*
X174736269Y-61422588D01*
X174931178Y-61206355D01*
X175080157Y-60956252D01*
X175177481Y-60681891D01*
X175110821Y-60554891D01*
X178136519Y-60554891D01*
X178233843Y-60829252D01*
X178382822Y-61079355D01*
X178577731Y-61295588D01*
X178811080Y-61469641D01*
X179073901Y-61594825D01*
X179221110Y-61639476D01*
X179451000Y-61518155D01*
X179451000Y-60325000D01*
X178257186Y-60325000D01*
X178136519Y-60554891D01*
X175110821Y-60554891D01*
X175056814Y-60452000D01*
X173863000Y-60452000D01*
X173609000Y-60452000D01*
X173589000Y-60452000D01*
X173589000Y-60198000D01*
X173609000Y-60198000D01*
X173609000Y-59004845D01*
X173863000Y-59004845D01*
X173863000Y-60198000D01*
X175056814Y-60198000D01*
X175177481Y-59968109D01*
X175132431Y-59841109D01*
X178136519Y-59841109D01*
X178257186Y-60071000D01*
X179451000Y-60071000D01*
X179451000Y-58877845D01*
X179221110Y-58756524D01*
X179073901Y-58801175D01*
X178811080Y-58926359D01*
X178577731Y-59100412D01*
X178382822Y-59316645D01*
X178233843Y-59566748D01*
X178136519Y-59841109D01*
X175132431Y-59841109D01*
X175080157Y-59693748D01*
X174931178Y-59443645D01*
X174736269Y-59227412D01*
X174502920Y-59053359D01*
X174240099Y-58928175D01*
X174092890Y-58883524D01*
X173863000Y-59004845D01*
X173609000Y-59004845D01*
X173379110Y-58883524D01*
X173231901Y-58928175D01*
X172969080Y-59053359D01*
X172735731Y-59227412D01*
X172692804Y-59275036D01*
X172674492Y-59214670D01*
X172611628Y-59097059D01*
X172527027Y-58993973D01*
X172423941Y-58909372D01*
X172306330Y-58846508D01*
X172178715Y-58807796D01*
X172046000Y-58794725D01*
X170346000Y-58794725D01*
X170213285Y-58807796D01*
X170085670Y-58846508D01*
X169968059Y-58909372D01*
X169864973Y-58993973D01*
X169780372Y-59097059D01*
X169717508Y-59214670D01*
X169678796Y-59342285D01*
X169673733Y-59393687D01*
X169671999Y-59393516D01*
X169626472Y-59398000D01*
X169626462Y-59398000D01*
X169490276Y-59411413D01*
X169315536Y-59464420D01*
X169240573Y-59504489D01*
X169154494Y-59550499D01*
X169048712Y-59637312D01*
X169048708Y-59637316D01*
X169013341Y-59666341D01*
X168984316Y-59701708D01*
X167165525Y-61520500D01*
X166780468Y-61520500D01*
X166752495Y-61468167D01*
X166636804Y-61327196D01*
X166495833Y-61211505D01*
X166335001Y-61125538D01*
X166160488Y-61072600D01*
X165979000Y-61054725D01*
X164729000Y-61054725D01*
X164547512Y-61072600D01*
X164372999Y-61125538D01*
X164212167Y-61211505D01*
X164071196Y-61327196D01*
X163955505Y-61468167D01*
X163869538Y-61628999D01*
X163816600Y-61803512D01*
X163798725Y-61985000D01*
X163798725Y-62910000D01*
X163816600Y-63091488D01*
X163869538Y-63266001D01*
X163955505Y-63426833D01*
X164071196Y-63567804D01*
X164212167Y-63683495D01*
X164272979Y-63716000D01*
X162853476Y-63716000D01*
X161829275Y-62691800D01*
X161829275Y-61985000D01*
X161811400Y-61803512D01*
X161758462Y-61628999D01*
X161672495Y-61468167D01*
X161556804Y-61327196D01*
X161415833Y-61211505D01*
X161255001Y-61125538D01*
X161080488Y-61072600D01*
X160899000Y-61054725D01*
X159649000Y-61054725D01*
X159467512Y-61072600D01*
X159292999Y-61125538D01*
X159132167Y-61211505D01*
X158991196Y-61327196D01*
X158875505Y-61468167D01*
X158789538Y-61628999D01*
X158736600Y-61803512D01*
X158718725Y-61985000D01*
X158718725Y-62910000D01*
X158736600Y-63091488D01*
X158789538Y-63266001D01*
X158875505Y-63426833D01*
X158991196Y-63567804D01*
X159132167Y-63683495D01*
X159292999Y-63769462D01*
X159467512Y-63822400D01*
X159649000Y-63840275D01*
X160355800Y-63840275D01*
X161247524Y-64732000D01*
X158662476Y-64732000D01*
X156622275Y-62691800D01*
X156622275Y-61985000D01*
X156604400Y-61803512D01*
X156551462Y-61628999D01*
X156465495Y-61468167D01*
X156349804Y-61327196D01*
X156208833Y-61211505D01*
X156048001Y-61125538D01*
X155873488Y-61072600D01*
X155692000Y-61054725D01*
X154442000Y-61054725D01*
X154260512Y-61072600D01*
X154085999Y-61125538D01*
X153925167Y-61211505D01*
X153784196Y-61327196D01*
X153668505Y-61468167D01*
X153582538Y-61628999D01*
X153529600Y-61803512D01*
X153511725Y-61985000D01*
X153511725Y-62910000D01*
X153529600Y-63091488D01*
X153582538Y-63266001D01*
X153668505Y-63426833D01*
X153784196Y-63567804D01*
X153925167Y-63683495D01*
X154085999Y-63769462D01*
X154260512Y-63822400D01*
X154442000Y-63840275D01*
X155148800Y-63840275D01*
X157310524Y-66002000D01*
X154725476Y-66002000D01*
X151415275Y-62691800D01*
X151415275Y-61985000D01*
X151397400Y-61803512D01*
X151344462Y-61628999D01*
X151258495Y-61468167D01*
X151142804Y-61327196D01*
X151001833Y-61211505D01*
X150841001Y-61125538D01*
X150666488Y-61072600D01*
X150485000Y-61054725D01*
X149235000Y-61054725D01*
X149053512Y-61072600D01*
X148878999Y-61125538D01*
X148718167Y-61211505D01*
X148577196Y-61327196D01*
X148461505Y-61468167D01*
X148375538Y-61628999D01*
X148322600Y-61803512D01*
X148304725Y-61985000D01*
X146462275Y-61985000D01*
X146444400Y-61803512D01*
X146391462Y-61628999D01*
X146305495Y-61468167D01*
X146189804Y-61327196D01*
X146048833Y-61211505D01*
X145888001Y-61125538D01*
X145713488Y-61072600D01*
X145532000Y-61054725D01*
X144282000Y-61054725D01*
X144100512Y-61072600D01*
X143925999Y-61125538D01*
X143765167Y-61211505D01*
X143624196Y-61327196D01*
X143508505Y-61468167D01*
X143422538Y-61628999D01*
X143369600Y-61803512D01*
X143351725Y-61985000D01*
X141733500Y-61985000D01*
X141733500Y-60549500D01*
X143588658Y-60549500D01*
X143624196Y-60592804D01*
X143765167Y-60708495D01*
X143925999Y-60794462D01*
X144100512Y-60847400D01*
X144282000Y-60865275D01*
X145532000Y-60865275D01*
X145713488Y-60847400D01*
X145888001Y-60794462D01*
X146048833Y-60708495D01*
X146189804Y-60592804D01*
X146225342Y-60549500D01*
X148541658Y-60549500D01*
X148577196Y-60592804D01*
X148718167Y-60708495D01*
X148878999Y-60794462D01*
X149053512Y-60847400D01*
X149235000Y-60865275D01*
X150485000Y-60865275D01*
X150666488Y-60847400D01*
X150841001Y-60794462D01*
X151001833Y-60708495D01*
X151142804Y-60592804D01*
X151178342Y-60549500D01*
X153748658Y-60549500D01*
X153784196Y-60592804D01*
X153925167Y-60708495D01*
X154085999Y-60794462D01*
X154260512Y-60847400D01*
X154442000Y-60865275D01*
X155692000Y-60865275D01*
X155873488Y-60847400D01*
X156048001Y-60794462D01*
X156208833Y-60708495D01*
X156349804Y-60592804D01*
X156385342Y-60549500D01*
X158955658Y-60549500D01*
X158991196Y-60592804D01*
X159132167Y-60708495D01*
X159292999Y-60794462D01*
X159467512Y-60847400D01*
X159649000Y-60865275D01*
X160899000Y-60865275D01*
X161080488Y-60847400D01*
X161255001Y-60794462D01*
X161415833Y-60708495D01*
X161556804Y-60592804D01*
X161592342Y-60549500D01*
X164035658Y-60549500D01*
X164071196Y-60592804D01*
X164212167Y-60708495D01*
X164372999Y-60794462D01*
X164547512Y-60847400D01*
X164729000Y-60865275D01*
X165979000Y-60865275D01*
X166160488Y-60847400D01*
X166335001Y-60794462D01*
X166495833Y-60708495D01*
X166636804Y-60592804D01*
X166752495Y-60451833D01*
X166838462Y-60291001D01*
X166891400Y-60116488D01*
X166909275Y-59935000D01*
X166909275Y-59010000D01*
X166891400Y-58828512D01*
X166838462Y-58653999D01*
X166752495Y-58493167D01*
X166636804Y-58352196D01*
X166495833Y-58236505D01*
X166335001Y-58150538D01*
X166160488Y-58097600D01*
X165979000Y-58079725D01*
X164729000Y-58079725D01*
X164547512Y-58097600D01*
X164372999Y-58150538D01*
X164212167Y-58236505D01*
X164071196Y-58352196D01*
X164035658Y-58395500D01*
X161592342Y-58395500D01*
X161556804Y-58352196D01*
X161415833Y-58236505D01*
X161255001Y-58150538D01*
X161080488Y-58097600D01*
X160899000Y-58079725D01*
X159649000Y-58079725D01*
X159467512Y-58097600D01*
X159292999Y-58150538D01*
X159132167Y-58236505D01*
X158991196Y-58352196D01*
X158955658Y-58395500D01*
X156385342Y-58395500D01*
X156349804Y-58352196D01*
X156208833Y-58236505D01*
X156048001Y-58150538D01*
X155873488Y-58097600D01*
X155692000Y-58079725D01*
X154442000Y-58079725D01*
X154260512Y-58097600D01*
X154085999Y-58150538D01*
X153925167Y-58236505D01*
X153784196Y-58352196D01*
X153748658Y-58395500D01*
X151178342Y-58395500D01*
X151142804Y-58352196D01*
X151001833Y-58236505D01*
X150841001Y-58150538D01*
X150666488Y-58097600D01*
X150485000Y-58079725D01*
X149235000Y-58079725D01*
X149053512Y-58097600D01*
X148878999Y-58150538D01*
X148718167Y-58236505D01*
X148577196Y-58352196D01*
X148541658Y-58395500D01*
X146225342Y-58395500D01*
X146189804Y-58352196D01*
X146048833Y-58236505D01*
X145888001Y-58150538D01*
X145713488Y-58097600D01*
X145532000Y-58079725D01*
X144282000Y-58079725D01*
X144100512Y-58097600D01*
X143925999Y-58150538D01*
X143765167Y-58236505D01*
X143624196Y-58352196D01*
X143588658Y-58395500D01*
X130445406Y-58395500D01*
X130392499Y-58390289D01*
X130339592Y-58395500D01*
X130339591Y-58395500D01*
X130181371Y-58411083D01*
X129978356Y-58472667D01*
X129791256Y-58572674D01*
X129627261Y-58707261D01*
X129593532Y-58748361D01*
X128688861Y-59653032D01*
X128647762Y-59686761D01*
X128614034Y-59727859D01*
X128513175Y-59850756D01*
X128413168Y-60037856D01*
X128351584Y-60240871D01*
X128330789Y-60452000D01*
X128336001Y-60504916D01*
X128336001Y-60937418D01*
X128235059Y-60991372D01*
X128131973Y-61075973D01*
X128047372Y-61179059D01*
X127993418Y-61280000D01*
X122901820Y-61280000D01*
X122821961Y-61160482D01*
X122560518Y-60899039D01*
X122253093Y-60693624D01*
X121911501Y-60552132D01*
X121548868Y-60480000D01*
X121179132Y-60480000D01*
X120816499Y-60552132D01*
X120474907Y-60693624D01*
X120167482Y-60899039D01*
X119906039Y-61160482D01*
X119864000Y-61223398D01*
X119821961Y-61160482D01*
X119560518Y-60899039D01*
X119253093Y-60693624D01*
X118911501Y-60552132D01*
X118548868Y-60480000D01*
X118179132Y-60480000D01*
X117816499Y-60552132D01*
X117474907Y-60693624D01*
X117167482Y-60899039D01*
X116906039Y-61160482D01*
X116700624Y-61467907D01*
X116559132Y-61809499D01*
X116487000Y-62172132D01*
X113170246Y-62172132D01*
X113164799Y-60211300D01*
X113217794Y-60211300D01*
X113645013Y-60126321D01*
X114047444Y-59959629D01*
X114409622Y-59717629D01*
X114717629Y-59409622D01*
X114959629Y-59047444D01*
X115126321Y-58645013D01*
X115211300Y-58217794D01*
X115211300Y-57782206D01*
X115160650Y-57527569D01*
X189865268Y-57407272D01*
X189788700Y-57792206D01*
M02*
