G04 #@! TF.GenerationSoftware,KiCad,Pcbnew,5.1.6*
G04 #@! TF.CreationDate,2020-07-26T18:39:51+03:00*
G04 #@! TF.ProjectId,kicad-hamster-esp8266,6b696361-642d-4686-916d-737465722d65,rev?*
G04 #@! TF.SameCoordinates,Original*
G04 #@! TF.FileFunction,Legend,Top*
G04 #@! TF.FilePolarity,Positive*
%FSLAX46Y46*%
G04 Gerber Fmt 4.6, Leading zero omitted, Abs format (unit mm)*
G04 Created by KiCad (PCBNEW 5.1.6) date 2020-07-26 18:39:51*
%MOMM*%
%LPD*%
G01*
G04 APERTURE LIST*
%ADD10C,0.120000*%
G04 APERTURE END LIST*
D10*
X171540000Y-77290000D02*
X171540000Y-79240000D01*
X171540000Y-77290000D02*
X171540000Y-75340000D01*
X176660000Y-77290000D02*
X176660000Y-79240000D01*
X176660000Y-77290000D02*
X176660000Y-73840000D01*
X128778000Y-80665000D02*
X130728000Y-80665000D01*
X128778000Y-80665000D02*
X126828000Y-80665000D01*
X128778000Y-75545000D02*
X130728000Y-75545000D01*
X128778000Y-75545000D02*
X125328000Y-75545000D01*
X147880436Y-87930000D02*
X149084564Y-87930000D01*
X147880436Y-89750000D02*
X149084564Y-89750000D01*
X157907936Y-87910000D02*
X159112064Y-87910000D01*
X157907936Y-89730000D02*
X159112064Y-89730000D01*
X169069936Y-87863000D02*
X170274064Y-87863000D01*
X169069936Y-89683000D02*
X170274064Y-89683000D01*
X177324936Y-87990000D02*
X178529064Y-87990000D01*
X177324936Y-89810000D02*
X178529064Y-89810000D01*
X166264000Y-60357936D02*
X166264000Y-61562064D01*
X164444000Y-60357936D02*
X164444000Y-61562064D01*
X168296000Y-73184936D02*
X168296000Y-74389064D01*
X166476000Y-73184936D02*
X166476000Y-74389064D01*
X145817000Y-60357936D02*
X145817000Y-61562064D01*
X143997000Y-60357936D02*
X143997000Y-61562064D01*
X148950000Y-61562064D02*
X148950000Y-60357936D01*
X150770000Y-61562064D02*
X150770000Y-60357936D01*
X155977000Y-60357936D02*
X155977000Y-61562064D01*
X154157000Y-60357936D02*
X154157000Y-61562064D01*
X159364000Y-61562064D02*
X159364000Y-60357936D01*
X161184000Y-61562064D02*
X161184000Y-60357936D01*
X151617000Y-82390064D02*
X151617000Y-81185936D01*
X153437000Y-82390064D02*
X153437000Y-81185936D01*
X137816000Y-85757936D02*
X137816000Y-86962064D01*
X135996000Y-85757936D02*
X135996000Y-86962064D01*
X132228000Y-85757936D02*
X132228000Y-86962064D01*
X130408000Y-85757936D02*
X130408000Y-86962064D01*
X129380064Y-72284000D02*
X128175936Y-72284000D01*
X129380064Y-70464000D02*
X128175936Y-70464000D01*
X118112000Y-86939000D02*
X118112000Y-87869000D01*
X118112000Y-90099000D02*
X118112000Y-89169000D01*
X118112000Y-90099000D02*
X120272000Y-90099000D01*
X118112000Y-86939000D02*
X119572000Y-86939000D01*
X126132000Y-85757936D02*
X126132000Y-86962064D01*
X124312000Y-85757936D02*
X124312000Y-86962064D01*
M02*
