G04 #@! TF.GenerationSoftware,KiCad,Pcbnew,5.1.6*
G04 #@! TF.CreationDate,2020-07-26T18:06:21+03:00*
G04 #@! TF.ProjectId,kicad-hamster-esp8266,6b696361-642d-4686-916d-737465722d65,rev?*
G04 #@! TF.SameCoordinates,Original*
G04 #@! TF.FileFunction,Legend,Bot*
G04 #@! TF.FilePolarity,Positive*
%FSLAX46Y46*%
G04 Gerber Fmt 4.6, Leading zero omitted, Abs format (unit mm)*
G04 Created by KiCad (PCBNEW 5.1.6) date 2020-07-26 18:06:21*
%MOMM*%
%LPD*%
G01*
G04 APERTURE LIST*
%ADD10C,0.250000*%
%ADD11C,0.200000*%
%ADD12C,0.300000*%
%ADD13C,0.500000*%
%ADD14C,0.120000*%
G04 APERTURE END LIST*
D10*
X146482380Y-70892380D02*
X146815714Y-70416190D01*
X147053809Y-70892380D02*
X147053809Y-69892380D01*
X146672857Y-69892380D01*
X146577619Y-69940000D01*
X146530000Y-69987619D01*
X146482380Y-70082857D01*
X146482380Y-70225714D01*
X146530000Y-70320952D01*
X146577619Y-70368571D01*
X146672857Y-70416190D01*
X147053809Y-70416190D01*
X146053809Y-70368571D02*
X145720476Y-70368571D01*
X145577619Y-70892380D02*
X146053809Y-70892380D01*
X146053809Y-69892380D01*
X145577619Y-69892380D01*
X145196666Y-70844761D02*
X145053809Y-70892380D01*
X144815714Y-70892380D01*
X144720476Y-70844761D01*
X144672857Y-70797142D01*
X144625238Y-70701904D01*
X144625238Y-70606666D01*
X144672857Y-70511428D01*
X144720476Y-70463809D01*
X144815714Y-70416190D01*
X145006190Y-70368571D01*
X145101428Y-70320952D01*
X145149047Y-70273333D01*
X145196666Y-70178095D01*
X145196666Y-70082857D01*
X145149047Y-69987619D01*
X145101428Y-69940000D01*
X145006190Y-69892380D01*
X144768095Y-69892380D01*
X144625238Y-69940000D01*
X144196666Y-70368571D02*
X143863333Y-70368571D01*
X143720476Y-70892380D02*
X144196666Y-70892380D01*
X144196666Y-69892380D01*
X143720476Y-69892380D01*
X143434761Y-69892380D02*
X142863333Y-69892380D01*
X143149047Y-70892380D02*
X143149047Y-69892380D01*
D11*
X185269523Y-57932380D02*
X185602857Y-57456190D01*
X185840952Y-57932380D02*
X185840952Y-56932380D01*
X185460000Y-56932380D01*
X185364761Y-56980000D01*
X185317142Y-57027619D01*
X185269523Y-57122857D01*
X185269523Y-57265714D01*
X185317142Y-57360952D01*
X185364761Y-57408571D01*
X185460000Y-57456190D01*
X185840952Y-57456190D01*
X184936190Y-56932380D02*
X184269523Y-57932380D01*
X184269523Y-56932380D02*
X184936190Y-57932380D01*
X183269523Y-56932380D02*
X182698095Y-56932380D01*
X182983809Y-57932380D02*
X182983809Y-56932380D01*
X182460000Y-56932380D02*
X181793333Y-57932380D01*
X181793333Y-56932380D02*
X182460000Y-57932380D01*
X180126666Y-56980000D02*
X180221904Y-56932380D01*
X180364761Y-56932380D01*
X180507619Y-56980000D01*
X180602857Y-57075238D01*
X180650476Y-57170476D01*
X180698095Y-57360952D01*
X180698095Y-57503809D01*
X180650476Y-57694285D01*
X180602857Y-57789523D01*
X180507619Y-57884761D01*
X180364761Y-57932380D01*
X180269523Y-57932380D01*
X180126666Y-57884761D01*
X180079047Y-57837142D01*
X180079047Y-57503809D01*
X180269523Y-57503809D01*
X179650476Y-57932380D02*
X179650476Y-56932380D01*
X179079047Y-57932380D01*
X179079047Y-56932380D01*
X178602857Y-57932380D02*
X178602857Y-56932380D01*
X178364761Y-56932380D01*
X178221904Y-56980000D01*
X178126666Y-57075238D01*
X178079047Y-57170476D01*
X178031428Y-57360952D01*
X178031428Y-57503809D01*
X178079047Y-57694285D01*
X178126666Y-57789523D01*
X178221904Y-57884761D01*
X178364761Y-57932380D01*
X178602857Y-57932380D01*
X174250476Y-57408571D02*
X174583809Y-57408571D01*
X174583809Y-57932380D02*
X174583809Y-56932380D01*
X174107619Y-56932380D01*
X173250476Y-57932380D02*
X173726666Y-57932380D01*
X173726666Y-56932380D01*
X172964761Y-57646666D02*
X172488571Y-57646666D01*
X173060000Y-57932380D02*
X172726666Y-56932380D01*
X172393333Y-57932380D01*
X172107619Y-57884761D02*
X171964761Y-57932380D01*
X171726666Y-57932380D01*
X171631428Y-57884761D01*
X171583809Y-57837142D01*
X171536190Y-57741904D01*
X171536190Y-57646666D01*
X171583809Y-57551428D01*
X171631428Y-57503809D01*
X171726666Y-57456190D01*
X171917142Y-57408571D01*
X172012380Y-57360952D01*
X172060000Y-57313333D01*
X172107619Y-57218095D01*
X172107619Y-57122857D01*
X172060000Y-57027619D01*
X172012380Y-56980000D01*
X171917142Y-56932380D01*
X171679047Y-56932380D01*
X171536190Y-56980000D01*
X171107619Y-57932380D02*
X171107619Y-56932380D01*
X171107619Y-57408571D02*
X170536190Y-57408571D01*
X170536190Y-57932380D02*
X170536190Y-56932380D01*
D12*
X126093809Y-103712857D02*
X124570000Y-103712857D01*
X120570000Y-103712857D02*
X119046190Y-103712857D01*
X119808095Y-104474761D02*
X119808095Y-102950952D01*
D13*
X132564761Y-71308571D02*
X130564761Y-71308571D01*
X131517142Y-71308571D02*
X131517142Y-72451428D01*
X132564761Y-72451428D02*
X130564761Y-72451428D01*
X132564761Y-74260952D02*
X131517142Y-74260952D01*
X131326666Y-74165714D01*
X131231428Y-73975238D01*
X131231428Y-73594285D01*
X131326666Y-73403809D01*
X132469523Y-74260952D02*
X132564761Y-74070476D01*
X132564761Y-73594285D01*
X132469523Y-73403809D01*
X132279047Y-73308571D01*
X132088571Y-73308571D01*
X131898095Y-73403809D01*
X131802857Y-73594285D01*
X131802857Y-74070476D01*
X131707619Y-74260952D01*
X132564761Y-75213333D02*
X131231428Y-75213333D01*
X131421904Y-75213333D02*
X131326666Y-75308571D01*
X131231428Y-75499047D01*
X131231428Y-75784761D01*
X131326666Y-75975238D01*
X131517142Y-76070476D01*
X132564761Y-76070476D01*
X131517142Y-76070476D02*
X131326666Y-76165714D01*
X131231428Y-76356190D01*
X131231428Y-76641904D01*
X131326666Y-76832380D01*
X131517142Y-76927619D01*
X132564761Y-76927619D01*
X132469523Y-77784761D02*
X132564761Y-77975238D01*
X132564761Y-78356190D01*
X132469523Y-78546666D01*
X132279047Y-78641904D01*
X132183809Y-78641904D01*
X131993333Y-78546666D01*
X131898095Y-78356190D01*
X131898095Y-78070476D01*
X131802857Y-77880000D01*
X131612380Y-77784761D01*
X131517142Y-77784761D01*
X131326666Y-77880000D01*
X131231428Y-78070476D01*
X131231428Y-78356190D01*
X131326666Y-78546666D01*
X131231428Y-79213333D02*
X131231428Y-79975238D01*
X130564761Y-79499047D02*
X132279047Y-79499047D01*
X132469523Y-79594285D01*
X132564761Y-79784761D01*
X132564761Y-79975238D01*
X132469523Y-81403809D02*
X132564761Y-81213333D01*
X132564761Y-80832380D01*
X132469523Y-80641904D01*
X132279047Y-80546666D01*
X131517142Y-80546666D01*
X131326666Y-80641904D01*
X131231428Y-80832380D01*
X131231428Y-81213333D01*
X131326666Y-81403809D01*
X131517142Y-81499047D01*
X131707619Y-81499047D01*
X131898095Y-80546666D01*
X132564761Y-82356190D02*
X131231428Y-82356190D01*
X131612380Y-82356190D02*
X131421904Y-82451428D01*
X131326666Y-82546666D01*
X131231428Y-82737142D01*
X131231428Y-82927619D01*
X131231428Y-84927619D02*
X132564761Y-85403809D01*
X131231428Y-85880000D01*
X130755238Y-86546666D02*
X130660000Y-86641904D01*
X130564761Y-86832380D01*
X130564761Y-87308571D01*
X130660000Y-87499047D01*
X130755238Y-87594285D01*
X130945714Y-87689523D01*
X131136190Y-87689523D01*
X131421904Y-87594285D01*
X132564761Y-86451428D01*
X132564761Y-87689523D01*
X132374285Y-88546666D02*
X132469523Y-88641904D01*
X132564761Y-88546666D01*
X132469523Y-88451428D01*
X132374285Y-88546666D01*
X132564761Y-88546666D01*
X130564761Y-89880000D02*
X130564761Y-90070476D01*
X130660000Y-90260952D01*
X130755238Y-90356190D01*
X130945714Y-90451428D01*
X131326666Y-90546666D01*
X131802857Y-90546666D01*
X132183809Y-90451428D01*
X132374285Y-90356190D01*
X132469523Y-90260952D01*
X132564761Y-90070476D01*
X132564761Y-89880000D01*
X132469523Y-89689523D01*
X132374285Y-89594285D01*
X132183809Y-89499047D01*
X131802857Y-89403809D01*
X131326666Y-89403809D01*
X130945714Y-89499047D01*
X130755238Y-89594285D01*
X130660000Y-89689523D01*
X130564761Y-89880000D01*
D14*
X180268000Y-83812000D02*
X180268000Y-84422000D01*
X180268000Y-83812000D02*
X187888000Y-83812000D01*
X163648000Y-83812000D02*
X164268000Y-83812000D01*
X163648000Y-81692000D02*
X163648000Y-83812000D01*
X163648000Y-67572000D02*
X163648000Y-69692000D01*
X164268000Y-67572000D02*
X163648000Y-67572000D01*
X187888000Y-67572000D02*
X180268000Y-67572000D01*
X187888000Y-83812000D02*
X187888000Y-67572000D01*
X155829000Y-74569000D02*
X152379000Y-74569000D01*
X155829000Y-74569000D02*
X157779000Y-74569000D01*
X155829000Y-69449000D02*
X153879000Y-69449000D01*
X155829000Y-69449000D02*
X157779000Y-69449000D01*
X169866000Y-58995000D02*
X169866000Y-60325000D01*
X171196000Y-58995000D02*
X169866000Y-58995000D01*
X172466000Y-58995000D02*
X172466000Y-61655000D01*
X172466000Y-61655000D02*
X175066000Y-61655000D01*
X172466000Y-58995000D02*
X175066000Y-58995000D01*
X175066000Y-58995000D02*
X175066000Y-61655000D01*
X140026000Y-74529000D02*
X140026000Y-74029000D01*
X149026000Y-74529000D02*
X140026000Y-74529000D01*
X149026000Y-74029000D02*
X149026000Y-74529000D01*
X149026000Y-72029000D02*
X149026000Y-72529000D01*
X140026000Y-72029000D02*
X149026000Y-72029000D01*
X140026000Y-72529000D02*
X140026000Y-72029000D01*
X185071936Y-87990000D02*
X186276064Y-87990000D01*
X185071936Y-89810000D02*
X186276064Y-89810000D01*
X147651698Y-77422000D02*
X147651698Y-78222000D01*
X148051698Y-77822000D02*
X147251698Y-77822000D01*
X139561000Y-79604000D02*
X139561000Y-80670000D01*
X139601000Y-79369000D02*
X139601000Y-80905000D01*
X139641000Y-79189000D02*
X139641000Y-81085000D01*
X139681000Y-79039000D02*
X139681000Y-81235000D01*
X139721000Y-78908000D02*
X139721000Y-81366000D01*
X139761000Y-78791000D02*
X139761000Y-81483000D01*
X139801000Y-78684000D02*
X139801000Y-81590000D01*
X139841000Y-78585000D02*
X139841000Y-81689000D01*
X139881000Y-78492000D02*
X139881000Y-81782000D01*
X139921000Y-78406000D02*
X139921000Y-81868000D01*
X139961000Y-78324000D02*
X139961000Y-81950000D01*
X140001000Y-78247000D02*
X140001000Y-82027000D01*
X140041000Y-78173000D02*
X140041000Y-82101000D01*
X140081000Y-78103000D02*
X140081000Y-82171000D01*
X140121000Y-78035000D02*
X140121000Y-82239000D01*
X140161000Y-77971000D02*
X140161000Y-82303000D01*
X140201000Y-77909000D02*
X140201000Y-82365000D01*
X140241000Y-77850000D02*
X140241000Y-82424000D01*
X140281000Y-77792000D02*
X140281000Y-82482000D01*
X140321000Y-77737000D02*
X140321000Y-82537000D01*
X140361000Y-77683000D02*
X140361000Y-82591000D01*
X140401000Y-77632000D02*
X140401000Y-82642000D01*
X140441000Y-77581000D02*
X140441000Y-82693000D01*
X140481000Y-77533000D02*
X140481000Y-82741000D01*
X140521000Y-77486000D02*
X140521000Y-82788000D01*
X140561000Y-77440000D02*
X140561000Y-82834000D01*
X140601000Y-77396000D02*
X140601000Y-82878000D01*
X140641000Y-77353000D02*
X140641000Y-82921000D01*
X140681000Y-77311000D02*
X140681000Y-82963000D01*
X140721000Y-81177000D02*
X140721000Y-83004000D01*
X140721000Y-77270000D02*
X140721000Y-79097000D01*
X140761000Y-81177000D02*
X140761000Y-83044000D01*
X140761000Y-77230000D02*
X140761000Y-79097000D01*
X140801000Y-81177000D02*
X140801000Y-83082000D01*
X140801000Y-77192000D02*
X140801000Y-79097000D01*
X140841000Y-81177000D02*
X140841000Y-83120000D01*
X140841000Y-77154000D02*
X140841000Y-79097000D01*
X140881000Y-81177000D02*
X140881000Y-83156000D01*
X140881000Y-77118000D02*
X140881000Y-79097000D01*
X140921000Y-81177000D02*
X140921000Y-83192000D01*
X140921000Y-77082000D02*
X140921000Y-79097000D01*
X140961000Y-81177000D02*
X140961000Y-83227000D01*
X140961000Y-77047000D02*
X140961000Y-79097000D01*
X141001000Y-81177000D02*
X141001000Y-83261000D01*
X141001000Y-77013000D02*
X141001000Y-79097000D01*
X141041000Y-81177000D02*
X141041000Y-83293000D01*
X141041000Y-76981000D02*
X141041000Y-79097000D01*
X141081000Y-81177000D02*
X141081000Y-83326000D01*
X141081000Y-76948000D02*
X141081000Y-79097000D01*
X141121000Y-81177000D02*
X141121000Y-83357000D01*
X141121000Y-76917000D02*
X141121000Y-79097000D01*
X141161000Y-81177000D02*
X141161000Y-83387000D01*
X141161000Y-76887000D02*
X141161000Y-79097000D01*
X141201000Y-81177000D02*
X141201000Y-83417000D01*
X141201000Y-76857000D02*
X141201000Y-79097000D01*
X141241000Y-81177000D02*
X141241000Y-83446000D01*
X141241000Y-76828000D02*
X141241000Y-79097000D01*
X141281000Y-81177000D02*
X141281000Y-83475000D01*
X141281000Y-76799000D02*
X141281000Y-79097000D01*
X141321000Y-81177000D02*
X141321000Y-83502000D01*
X141321000Y-76772000D02*
X141321000Y-79097000D01*
X141361000Y-81177000D02*
X141361000Y-83529000D01*
X141361000Y-76745000D02*
X141361000Y-79097000D01*
X141401000Y-81177000D02*
X141401000Y-83555000D01*
X141401000Y-76719000D02*
X141401000Y-79097000D01*
X141441000Y-81177000D02*
X141441000Y-83581000D01*
X141441000Y-76693000D02*
X141441000Y-79097000D01*
X141481000Y-81177000D02*
X141481000Y-83606000D01*
X141481000Y-76668000D02*
X141481000Y-79097000D01*
X141521000Y-81177000D02*
X141521000Y-83630000D01*
X141521000Y-76644000D02*
X141521000Y-79097000D01*
X141561000Y-81177000D02*
X141561000Y-83654000D01*
X141561000Y-76620000D02*
X141561000Y-79097000D01*
X141601000Y-81177000D02*
X141601000Y-83677000D01*
X141601000Y-76597000D02*
X141601000Y-79097000D01*
X141641000Y-81177000D02*
X141641000Y-83699000D01*
X141641000Y-76575000D02*
X141641000Y-79097000D01*
X141681000Y-81177000D02*
X141681000Y-83721000D01*
X141681000Y-76553000D02*
X141681000Y-79097000D01*
X141721000Y-81177000D02*
X141721000Y-83743000D01*
X141721000Y-76531000D02*
X141721000Y-79097000D01*
X141761000Y-81177000D02*
X141761000Y-83764000D01*
X141761000Y-76510000D02*
X141761000Y-79097000D01*
X141801000Y-81177000D02*
X141801000Y-83784000D01*
X141801000Y-76490000D02*
X141801000Y-79097000D01*
X141841000Y-81177000D02*
X141841000Y-83803000D01*
X141841000Y-76471000D02*
X141841000Y-79097000D01*
X141881000Y-81177000D02*
X141881000Y-83823000D01*
X141881000Y-76451000D02*
X141881000Y-79097000D01*
X141921000Y-81177000D02*
X141921000Y-83841000D01*
X141921000Y-76433000D02*
X141921000Y-79097000D01*
X141961000Y-81177000D02*
X141961000Y-83859000D01*
X141961000Y-76415000D02*
X141961000Y-79097000D01*
X142001000Y-81177000D02*
X142001000Y-83877000D01*
X142001000Y-76397000D02*
X142001000Y-79097000D01*
X142041000Y-81177000D02*
X142041000Y-83894000D01*
X142041000Y-76380000D02*
X142041000Y-79097000D01*
X142081000Y-81177000D02*
X142081000Y-83911000D01*
X142081000Y-76363000D02*
X142081000Y-79097000D01*
X142121000Y-81177000D02*
X142121000Y-83927000D01*
X142121000Y-76347000D02*
X142121000Y-79097000D01*
X142161000Y-81177000D02*
X142161000Y-83942000D01*
X142161000Y-76332000D02*
X142161000Y-79097000D01*
X142201000Y-81177000D02*
X142201000Y-83958000D01*
X142201000Y-76316000D02*
X142201000Y-79097000D01*
X142241000Y-81177000D02*
X142241000Y-83972000D01*
X142241000Y-76302000D02*
X142241000Y-79097000D01*
X142281000Y-81177000D02*
X142281000Y-83987000D01*
X142281000Y-76287000D02*
X142281000Y-79097000D01*
X142321000Y-81177000D02*
X142321000Y-84000000D01*
X142321000Y-76274000D02*
X142321000Y-79097000D01*
X142361000Y-81177000D02*
X142361000Y-84014000D01*
X142361000Y-76260000D02*
X142361000Y-79097000D01*
X142401000Y-81177000D02*
X142401000Y-84026000D01*
X142401000Y-76248000D02*
X142401000Y-79097000D01*
X142441000Y-81177000D02*
X142441000Y-84039000D01*
X142441000Y-76235000D02*
X142441000Y-79097000D01*
X142481000Y-81177000D02*
X142481000Y-84051000D01*
X142481000Y-76223000D02*
X142481000Y-79097000D01*
X142521000Y-81177000D02*
X142521000Y-84062000D01*
X142521000Y-76212000D02*
X142521000Y-79097000D01*
X142561000Y-81177000D02*
X142561000Y-84073000D01*
X142561000Y-76201000D02*
X142561000Y-79097000D01*
X142601000Y-81177000D02*
X142601000Y-84084000D01*
X142601000Y-76190000D02*
X142601000Y-79097000D01*
X142641000Y-81177000D02*
X142641000Y-84094000D01*
X142641000Y-76180000D02*
X142641000Y-79097000D01*
X142681000Y-81177000D02*
X142681000Y-84104000D01*
X142681000Y-76170000D02*
X142681000Y-79097000D01*
X142721000Y-81177000D02*
X142721000Y-84113000D01*
X142721000Y-76161000D02*
X142721000Y-79097000D01*
X142761000Y-81177000D02*
X142761000Y-84122000D01*
X142761000Y-76152000D02*
X142761000Y-79097000D01*
X142801000Y-76143000D02*
X142801000Y-84131000D01*
X142841000Y-76135000D02*
X142841000Y-84139000D01*
X142881000Y-76127000D02*
X142881000Y-84147000D01*
X142921000Y-76120000D02*
X142921000Y-84154000D01*
X142962000Y-76113000D02*
X142962000Y-84161000D01*
X143002000Y-76107000D02*
X143002000Y-84167000D01*
X143042000Y-76100000D02*
X143042000Y-84174000D01*
X143082000Y-76095000D02*
X143082000Y-84179000D01*
X143122000Y-76089000D02*
X143122000Y-84185000D01*
X143162000Y-76085000D02*
X143162000Y-84189000D01*
X143202000Y-76080000D02*
X143202000Y-84194000D01*
X143242000Y-76076000D02*
X143242000Y-84198000D01*
X143282000Y-76072000D02*
X143282000Y-84202000D01*
X143322000Y-76069000D02*
X143322000Y-84205000D01*
X143362000Y-76066000D02*
X143362000Y-84208000D01*
X143402000Y-76063000D02*
X143402000Y-84211000D01*
X143442000Y-76061000D02*
X143442000Y-84213000D01*
X143482000Y-76060000D02*
X143482000Y-84214000D01*
X143522000Y-76058000D02*
X143522000Y-84216000D01*
X143562000Y-76057000D02*
X143562000Y-84217000D01*
X143602000Y-76057000D02*
X143602000Y-84217000D01*
X143642000Y-76057000D02*
X143642000Y-84217000D01*
X147762000Y-80137000D02*
G75*
G03*
X147762000Y-80137000I-4120000J0D01*
G01*
X158348000Y-82390064D02*
X158348000Y-81185936D01*
X160168000Y-82390064D02*
X160168000Y-81185936D01*
X123584000Y-62357000D02*
G75*
G03*
X123584000Y-62357000I-3720000J0D01*
G01*
X185988000Y-61528000D02*
X185988000Y-60198000D01*
X184658000Y-61528000D02*
X185988000Y-61528000D01*
X183388000Y-61528000D02*
X183388000Y-58868000D01*
X183388000Y-58868000D02*
X178248000Y-58868000D01*
X183388000Y-61528000D02*
X178248000Y-61528000D01*
X178248000Y-61528000D02*
X178248000Y-58868000D01*
X116894000Y-75530000D02*
X119834000Y-75530000D01*
X116894000Y-75770000D02*
X119834000Y-75770000D01*
X116894000Y-75650000D02*
X119834000Y-75650000D01*
X118364000Y-81210000D02*
X118364000Y-80190000D01*
X118364000Y-73730000D02*
X118364000Y-74750000D01*
X116894000Y-80190000D02*
X116894000Y-74750000D01*
X119834000Y-80190000D02*
X116894000Y-80190000D01*
X119834000Y-74750000D02*
X119834000Y-80190000D01*
X116894000Y-74750000D02*
X119834000Y-74750000D01*
X127303302Y-65072000D02*
X127303302Y-64272000D01*
X126903302Y-64672000D02*
X127703302Y-64672000D01*
X135394000Y-62890000D02*
X135394000Y-61824000D01*
X135354000Y-63125000D02*
X135354000Y-61589000D01*
X135314000Y-63305000D02*
X135314000Y-61409000D01*
X135274000Y-63455000D02*
X135274000Y-61259000D01*
X135234000Y-63586000D02*
X135234000Y-61128000D01*
X135194000Y-63703000D02*
X135194000Y-61011000D01*
X135154000Y-63810000D02*
X135154000Y-60904000D01*
X135114000Y-63909000D02*
X135114000Y-60805000D01*
X135074000Y-64002000D02*
X135074000Y-60712000D01*
X135034000Y-64088000D02*
X135034000Y-60626000D01*
X134994000Y-64170000D02*
X134994000Y-60544000D01*
X134954000Y-64247000D02*
X134954000Y-60467000D01*
X134914000Y-64321000D02*
X134914000Y-60393000D01*
X134874000Y-64391000D02*
X134874000Y-60323000D01*
X134834000Y-64459000D02*
X134834000Y-60255000D01*
X134794000Y-64523000D02*
X134794000Y-60191000D01*
X134754000Y-64585000D02*
X134754000Y-60129000D01*
X134714000Y-64644000D02*
X134714000Y-60070000D01*
X134674000Y-64702000D02*
X134674000Y-60012000D01*
X134634000Y-64757000D02*
X134634000Y-59957000D01*
X134594000Y-64811000D02*
X134594000Y-59903000D01*
X134554000Y-64862000D02*
X134554000Y-59852000D01*
X134514000Y-64913000D02*
X134514000Y-59801000D01*
X134474000Y-64961000D02*
X134474000Y-59753000D01*
X134434000Y-65008000D02*
X134434000Y-59706000D01*
X134394000Y-65054000D02*
X134394000Y-59660000D01*
X134354000Y-65098000D02*
X134354000Y-59616000D01*
X134314000Y-65141000D02*
X134314000Y-59573000D01*
X134274000Y-65183000D02*
X134274000Y-59531000D01*
X134234000Y-61317000D02*
X134234000Y-59490000D01*
X134234000Y-65224000D02*
X134234000Y-63397000D01*
X134194000Y-61317000D02*
X134194000Y-59450000D01*
X134194000Y-65264000D02*
X134194000Y-63397000D01*
X134154000Y-61317000D02*
X134154000Y-59412000D01*
X134154000Y-65302000D02*
X134154000Y-63397000D01*
X134114000Y-61317000D02*
X134114000Y-59374000D01*
X134114000Y-65340000D02*
X134114000Y-63397000D01*
X134074000Y-61317000D02*
X134074000Y-59338000D01*
X134074000Y-65376000D02*
X134074000Y-63397000D01*
X134034000Y-61317000D02*
X134034000Y-59302000D01*
X134034000Y-65412000D02*
X134034000Y-63397000D01*
X133994000Y-61317000D02*
X133994000Y-59267000D01*
X133994000Y-65447000D02*
X133994000Y-63397000D01*
X133954000Y-61317000D02*
X133954000Y-59233000D01*
X133954000Y-65481000D02*
X133954000Y-63397000D01*
X133914000Y-61317000D02*
X133914000Y-59201000D01*
X133914000Y-65513000D02*
X133914000Y-63397000D01*
X133874000Y-61317000D02*
X133874000Y-59168000D01*
X133874000Y-65546000D02*
X133874000Y-63397000D01*
X133834000Y-61317000D02*
X133834000Y-59137000D01*
X133834000Y-65577000D02*
X133834000Y-63397000D01*
X133794000Y-61317000D02*
X133794000Y-59107000D01*
X133794000Y-65607000D02*
X133794000Y-63397000D01*
X133754000Y-61317000D02*
X133754000Y-59077000D01*
X133754000Y-65637000D02*
X133754000Y-63397000D01*
X133714000Y-61317000D02*
X133714000Y-59048000D01*
X133714000Y-65666000D02*
X133714000Y-63397000D01*
X133674000Y-61317000D02*
X133674000Y-59019000D01*
X133674000Y-65695000D02*
X133674000Y-63397000D01*
X133634000Y-61317000D02*
X133634000Y-58992000D01*
X133634000Y-65722000D02*
X133634000Y-63397000D01*
X133594000Y-61317000D02*
X133594000Y-58965000D01*
X133594000Y-65749000D02*
X133594000Y-63397000D01*
X133554000Y-61317000D02*
X133554000Y-58939000D01*
X133554000Y-65775000D02*
X133554000Y-63397000D01*
X133514000Y-61317000D02*
X133514000Y-58913000D01*
X133514000Y-65801000D02*
X133514000Y-63397000D01*
X133474000Y-61317000D02*
X133474000Y-58888000D01*
X133474000Y-65826000D02*
X133474000Y-63397000D01*
X133434000Y-61317000D02*
X133434000Y-58864000D01*
X133434000Y-65850000D02*
X133434000Y-63397000D01*
X133394000Y-61317000D02*
X133394000Y-58840000D01*
X133394000Y-65874000D02*
X133394000Y-63397000D01*
X133354000Y-61317000D02*
X133354000Y-58817000D01*
X133354000Y-65897000D02*
X133354000Y-63397000D01*
X133314000Y-61317000D02*
X133314000Y-58795000D01*
X133314000Y-65919000D02*
X133314000Y-63397000D01*
X133274000Y-61317000D02*
X133274000Y-58773000D01*
X133274000Y-65941000D02*
X133274000Y-63397000D01*
X133234000Y-61317000D02*
X133234000Y-58751000D01*
X133234000Y-65963000D02*
X133234000Y-63397000D01*
X133194000Y-61317000D02*
X133194000Y-58730000D01*
X133194000Y-65984000D02*
X133194000Y-63397000D01*
X133154000Y-61317000D02*
X133154000Y-58710000D01*
X133154000Y-66004000D02*
X133154000Y-63397000D01*
X133114000Y-61317000D02*
X133114000Y-58691000D01*
X133114000Y-66023000D02*
X133114000Y-63397000D01*
X133074000Y-61317000D02*
X133074000Y-58671000D01*
X133074000Y-66043000D02*
X133074000Y-63397000D01*
X133034000Y-61317000D02*
X133034000Y-58653000D01*
X133034000Y-66061000D02*
X133034000Y-63397000D01*
X132994000Y-61317000D02*
X132994000Y-58635000D01*
X132994000Y-66079000D02*
X132994000Y-63397000D01*
X132954000Y-61317000D02*
X132954000Y-58617000D01*
X132954000Y-66097000D02*
X132954000Y-63397000D01*
X132914000Y-61317000D02*
X132914000Y-58600000D01*
X132914000Y-66114000D02*
X132914000Y-63397000D01*
X132874000Y-61317000D02*
X132874000Y-58583000D01*
X132874000Y-66131000D02*
X132874000Y-63397000D01*
X132834000Y-61317000D02*
X132834000Y-58567000D01*
X132834000Y-66147000D02*
X132834000Y-63397000D01*
X132794000Y-61317000D02*
X132794000Y-58552000D01*
X132794000Y-66162000D02*
X132794000Y-63397000D01*
X132754000Y-61317000D02*
X132754000Y-58536000D01*
X132754000Y-66178000D02*
X132754000Y-63397000D01*
X132714000Y-61317000D02*
X132714000Y-58522000D01*
X132714000Y-66192000D02*
X132714000Y-63397000D01*
X132674000Y-61317000D02*
X132674000Y-58507000D01*
X132674000Y-66207000D02*
X132674000Y-63397000D01*
X132634000Y-61317000D02*
X132634000Y-58494000D01*
X132634000Y-66220000D02*
X132634000Y-63397000D01*
X132594000Y-61317000D02*
X132594000Y-58480000D01*
X132594000Y-66234000D02*
X132594000Y-63397000D01*
X132554000Y-61317000D02*
X132554000Y-58468000D01*
X132554000Y-66246000D02*
X132554000Y-63397000D01*
X132514000Y-61317000D02*
X132514000Y-58455000D01*
X132514000Y-66259000D02*
X132514000Y-63397000D01*
X132474000Y-61317000D02*
X132474000Y-58443000D01*
X132474000Y-66271000D02*
X132474000Y-63397000D01*
X132434000Y-61317000D02*
X132434000Y-58432000D01*
X132434000Y-66282000D02*
X132434000Y-63397000D01*
X132394000Y-61317000D02*
X132394000Y-58421000D01*
X132394000Y-66293000D02*
X132394000Y-63397000D01*
X132354000Y-61317000D02*
X132354000Y-58410000D01*
X132354000Y-66304000D02*
X132354000Y-63397000D01*
X132314000Y-61317000D02*
X132314000Y-58400000D01*
X132314000Y-66314000D02*
X132314000Y-63397000D01*
X132274000Y-61317000D02*
X132274000Y-58390000D01*
X132274000Y-66324000D02*
X132274000Y-63397000D01*
X132234000Y-61317000D02*
X132234000Y-58381000D01*
X132234000Y-66333000D02*
X132234000Y-63397000D01*
X132194000Y-61317000D02*
X132194000Y-58372000D01*
X132194000Y-66342000D02*
X132194000Y-63397000D01*
X132154000Y-66351000D02*
X132154000Y-58363000D01*
X132114000Y-66359000D02*
X132114000Y-58355000D01*
X132074000Y-66367000D02*
X132074000Y-58347000D01*
X132034000Y-66374000D02*
X132034000Y-58340000D01*
X131993000Y-66381000D02*
X131993000Y-58333000D01*
X131953000Y-66387000D02*
X131953000Y-58327000D01*
X131913000Y-66394000D02*
X131913000Y-58320000D01*
X131873000Y-66399000D02*
X131873000Y-58315000D01*
X131833000Y-66405000D02*
X131833000Y-58309000D01*
X131793000Y-66409000D02*
X131793000Y-58305000D01*
X131753000Y-66414000D02*
X131753000Y-58300000D01*
X131713000Y-66418000D02*
X131713000Y-58296000D01*
X131673000Y-66422000D02*
X131673000Y-58292000D01*
X131633000Y-66425000D02*
X131633000Y-58289000D01*
X131593000Y-66428000D02*
X131593000Y-58286000D01*
X131553000Y-66431000D02*
X131553000Y-58283000D01*
X131513000Y-66433000D02*
X131513000Y-58281000D01*
X131473000Y-66434000D02*
X131473000Y-58280000D01*
X131433000Y-66436000D02*
X131433000Y-58278000D01*
X131393000Y-66437000D02*
X131393000Y-58277000D01*
X131353000Y-66437000D02*
X131353000Y-58277000D01*
X131313000Y-66437000D02*
X131313000Y-58277000D01*
X135433000Y-62357000D02*
G75*
G03*
X135433000Y-62357000I-4120000J0D01*
G01*
X134320302Y-99725000D02*
X134320302Y-98925000D01*
X133920302Y-99325000D02*
X134720302Y-99325000D01*
X142411000Y-97543000D02*
X142411000Y-96477000D01*
X142371000Y-97778000D02*
X142371000Y-96242000D01*
X142331000Y-97958000D02*
X142331000Y-96062000D01*
X142291000Y-98108000D02*
X142291000Y-95912000D01*
X142251000Y-98239000D02*
X142251000Y-95781000D01*
X142211000Y-98356000D02*
X142211000Y-95664000D01*
X142171000Y-98463000D02*
X142171000Y-95557000D01*
X142131000Y-98562000D02*
X142131000Y-95458000D01*
X142091000Y-98655000D02*
X142091000Y-95365000D01*
X142051000Y-98741000D02*
X142051000Y-95279000D01*
X142011000Y-98823000D02*
X142011000Y-95197000D01*
X141971000Y-98900000D02*
X141971000Y-95120000D01*
X141931000Y-98974000D02*
X141931000Y-95046000D01*
X141891000Y-99044000D02*
X141891000Y-94976000D01*
X141851000Y-99112000D02*
X141851000Y-94908000D01*
X141811000Y-99176000D02*
X141811000Y-94844000D01*
X141771000Y-99238000D02*
X141771000Y-94782000D01*
X141731000Y-99297000D02*
X141731000Y-94723000D01*
X141691000Y-99355000D02*
X141691000Y-94665000D01*
X141651000Y-99410000D02*
X141651000Y-94610000D01*
X141611000Y-99464000D02*
X141611000Y-94556000D01*
X141571000Y-99515000D02*
X141571000Y-94505000D01*
X141531000Y-99566000D02*
X141531000Y-94454000D01*
X141491000Y-99614000D02*
X141491000Y-94406000D01*
X141451000Y-99661000D02*
X141451000Y-94359000D01*
X141411000Y-99707000D02*
X141411000Y-94313000D01*
X141371000Y-99751000D02*
X141371000Y-94269000D01*
X141331000Y-99794000D02*
X141331000Y-94226000D01*
X141291000Y-99836000D02*
X141291000Y-94184000D01*
X141251000Y-95970000D02*
X141251000Y-94143000D01*
X141251000Y-99877000D02*
X141251000Y-98050000D01*
X141211000Y-95970000D02*
X141211000Y-94103000D01*
X141211000Y-99917000D02*
X141211000Y-98050000D01*
X141171000Y-95970000D02*
X141171000Y-94065000D01*
X141171000Y-99955000D02*
X141171000Y-98050000D01*
X141131000Y-95970000D02*
X141131000Y-94027000D01*
X141131000Y-99993000D02*
X141131000Y-98050000D01*
X141091000Y-95970000D02*
X141091000Y-93991000D01*
X141091000Y-100029000D02*
X141091000Y-98050000D01*
X141051000Y-95970000D02*
X141051000Y-93955000D01*
X141051000Y-100065000D02*
X141051000Y-98050000D01*
X141011000Y-95970000D02*
X141011000Y-93920000D01*
X141011000Y-100100000D02*
X141011000Y-98050000D01*
X140971000Y-95970000D02*
X140971000Y-93886000D01*
X140971000Y-100134000D02*
X140971000Y-98050000D01*
X140931000Y-95970000D02*
X140931000Y-93854000D01*
X140931000Y-100166000D02*
X140931000Y-98050000D01*
X140891000Y-95970000D02*
X140891000Y-93821000D01*
X140891000Y-100199000D02*
X140891000Y-98050000D01*
X140851000Y-95970000D02*
X140851000Y-93790000D01*
X140851000Y-100230000D02*
X140851000Y-98050000D01*
X140811000Y-95970000D02*
X140811000Y-93760000D01*
X140811000Y-100260000D02*
X140811000Y-98050000D01*
X140771000Y-95970000D02*
X140771000Y-93730000D01*
X140771000Y-100290000D02*
X140771000Y-98050000D01*
X140731000Y-95970000D02*
X140731000Y-93701000D01*
X140731000Y-100319000D02*
X140731000Y-98050000D01*
X140691000Y-95970000D02*
X140691000Y-93672000D01*
X140691000Y-100348000D02*
X140691000Y-98050000D01*
X140651000Y-95970000D02*
X140651000Y-93645000D01*
X140651000Y-100375000D02*
X140651000Y-98050000D01*
X140611000Y-95970000D02*
X140611000Y-93618000D01*
X140611000Y-100402000D02*
X140611000Y-98050000D01*
X140571000Y-95970000D02*
X140571000Y-93592000D01*
X140571000Y-100428000D02*
X140571000Y-98050000D01*
X140531000Y-95970000D02*
X140531000Y-93566000D01*
X140531000Y-100454000D02*
X140531000Y-98050000D01*
X140491000Y-95970000D02*
X140491000Y-93541000D01*
X140491000Y-100479000D02*
X140491000Y-98050000D01*
X140451000Y-95970000D02*
X140451000Y-93517000D01*
X140451000Y-100503000D02*
X140451000Y-98050000D01*
X140411000Y-95970000D02*
X140411000Y-93493000D01*
X140411000Y-100527000D02*
X140411000Y-98050000D01*
X140371000Y-95970000D02*
X140371000Y-93470000D01*
X140371000Y-100550000D02*
X140371000Y-98050000D01*
X140331000Y-95970000D02*
X140331000Y-93448000D01*
X140331000Y-100572000D02*
X140331000Y-98050000D01*
X140291000Y-95970000D02*
X140291000Y-93426000D01*
X140291000Y-100594000D02*
X140291000Y-98050000D01*
X140251000Y-95970000D02*
X140251000Y-93404000D01*
X140251000Y-100616000D02*
X140251000Y-98050000D01*
X140211000Y-95970000D02*
X140211000Y-93383000D01*
X140211000Y-100637000D02*
X140211000Y-98050000D01*
X140171000Y-95970000D02*
X140171000Y-93363000D01*
X140171000Y-100657000D02*
X140171000Y-98050000D01*
X140131000Y-95970000D02*
X140131000Y-93344000D01*
X140131000Y-100676000D02*
X140131000Y-98050000D01*
X140091000Y-95970000D02*
X140091000Y-93324000D01*
X140091000Y-100696000D02*
X140091000Y-98050000D01*
X140051000Y-95970000D02*
X140051000Y-93306000D01*
X140051000Y-100714000D02*
X140051000Y-98050000D01*
X140011000Y-95970000D02*
X140011000Y-93288000D01*
X140011000Y-100732000D02*
X140011000Y-98050000D01*
X139971000Y-95970000D02*
X139971000Y-93270000D01*
X139971000Y-100750000D02*
X139971000Y-98050000D01*
X139931000Y-95970000D02*
X139931000Y-93253000D01*
X139931000Y-100767000D02*
X139931000Y-98050000D01*
X139891000Y-95970000D02*
X139891000Y-93236000D01*
X139891000Y-100784000D02*
X139891000Y-98050000D01*
X139851000Y-95970000D02*
X139851000Y-93220000D01*
X139851000Y-100800000D02*
X139851000Y-98050000D01*
X139811000Y-95970000D02*
X139811000Y-93205000D01*
X139811000Y-100815000D02*
X139811000Y-98050000D01*
X139771000Y-95970000D02*
X139771000Y-93189000D01*
X139771000Y-100831000D02*
X139771000Y-98050000D01*
X139731000Y-95970000D02*
X139731000Y-93175000D01*
X139731000Y-100845000D02*
X139731000Y-98050000D01*
X139691000Y-95970000D02*
X139691000Y-93160000D01*
X139691000Y-100860000D02*
X139691000Y-98050000D01*
X139651000Y-95970000D02*
X139651000Y-93147000D01*
X139651000Y-100873000D02*
X139651000Y-98050000D01*
X139611000Y-95970000D02*
X139611000Y-93133000D01*
X139611000Y-100887000D02*
X139611000Y-98050000D01*
X139571000Y-95970000D02*
X139571000Y-93121000D01*
X139571000Y-100899000D02*
X139571000Y-98050000D01*
X139531000Y-95970000D02*
X139531000Y-93108000D01*
X139531000Y-100912000D02*
X139531000Y-98050000D01*
X139491000Y-95970000D02*
X139491000Y-93096000D01*
X139491000Y-100924000D02*
X139491000Y-98050000D01*
X139451000Y-95970000D02*
X139451000Y-93085000D01*
X139451000Y-100935000D02*
X139451000Y-98050000D01*
X139411000Y-95970000D02*
X139411000Y-93074000D01*
X139411000Y-100946000D02*
X139411000Y-98050000D01*
X139371000Y-95970000D02*
X139371000Y-93063000D01*
X139371000Y-100957000D02*
X139371000Y-98050000D01*
X139331000Y-95970000D02*
X139331000Y-93053000D01*
X139331000Y-100967000D02*
X139331000Y-98050000D01*
X139291000Y-95970000D02*
X139291000Y-93043000D01*
X139291000Y-100977000D02*
X139291000Y-98050000D01*
X139251000Y-95970000D02*
X139251000Y-93034000D01*
X139251000Y-100986000D02*
X139251000Y-98050000D01*
X139211000Y-95970000D02*
X139211000Y-93025000D01*
X139211000Y-100995000D02*
X139211000Y-98050000D01*
X139171000Y-101004000D02*
X139171000Y-93016000D01*
X139131000Y-101012000D02*
X139131000Y-93008000D01*
X139091000Y-101020000D02*
X139091000Y-93000000D01*
X139051000Y-101027000D02*
X139051000Y-92993000D01*
X139010000Y-101034000D02*
X139010000Y-92986000D01*
X138970000Y-101040000D02*
X138970000Y-92980000D01*
X138930000Y-101047000D02*
X138930000Y-92973000D01*
X138890000Y-101052000D02*
X138890000Y-92968000D01*
X138850000Y-101058000D02*
X138850000Y-92962000D01*
X138810000Y-101062000D02*
X138810000Y-92958000D01*
X138770000Y-101067000D02*
X138770000Y-92953000D01*
X138730000Y-101071000D02*
X138730000Y-92949000D01*
X138690000Y-101075000D02*
X138690000Y-92945000D01*
X138650000Y-101078000D02*
X138650000Y-92942000D01*
X138610000Y-101081000D02*
X138610000Y-92939000D01*
X138570000Y-101084000D02*
X138570000Y-92936000D01*
X138530000Y-101086000D02*
X138530000Y-92934000D01*
X138490000Y-101087000D02*
X138490000Y-92933000D01*
X138450000Y-101089000D02*
X138450000Y-92931000D01*
X138410000Y-101090000D02*
X138410000Y-92930000D01*
X138370000Y-101090000D02*
X138370000Y-92930000D01*
X138330000Y-101090000D02*
X138330000Y-92930000D01*
X142450000Y-97010000D02*
G75*
G03*
X142450000Y-97010000I-4120000J0D01*
G01*
X127800000Y-101550000D02*
X127300000Y-101550000D01*
X127800000Y-100810000D02*
X127800000Y-101550000D01*
X121227000Y-97673000D02*
X121274000Y-97719000D01*
X118930000Y-95375000D02*
X118965000Y-95411000D01*
X121034000Y-97889000D02*
X121069000Y-97924000D01*
X118725000Y-95581000D02*
X118772000Y-95627000D01*
X117440000Y-91389000D02*
X117440000Y-101310000D01*
X127560000Y-91389000D02*
X127560000Y-101310000D01*
X127560000Y-101310000D02*
X117440000Y-101310000D01*
X127560000Y-91389000D02*
X117440000Y-91389000D01*
X127560000Y-94349000D02*
X117440000Y-94349000D01*
X127560000Y-99250000D02*
X117440000Y-99250000D01*
X127560000Y-100750000D02*
X117440000Y-100750000D01*
X121680000Y-96650000D02*
G75*
G03*
X121680000Y-96650000I-1680000J0D01*
G01*
X124316682Y-98184756D02*
G75*
G03*
X125000000Y-98330000I683318J1534756D01*
G01*
X123464574Y-95966958D02*
G75*
G03*
X123465000Y-97334000I1535426J-683042D01*
G01*
X125683042Y-95114574D02*
G75*
G03*
X124316000Y-95115000I-683042J-1535426D01*
G01*
X126535426Y-97333042D02*
G75*
G03*
X126535000Y-95966000I-1535426J683042D01*
G01*
X124971195Y-98330253D02*
G75*
G03*
X125684000Y-98185000I28805J1680253D01*
G01*
X147200000Y-91750000D02*
X147700000Y-91750000D01*
X147200000Y-92490000D02*
X147200000Y-91750000D01*
X183773000Y-95627000D02*
X183726000Y-95581000D01*
X186070000Y-97925000D02*
X186035000Y-97889000D01*
X183966000Y-95411000D02*
X183931000Y-95376000D01*
X186275000Y-97719000D02*
X186228000Y-97673000D01*
X178773000Y-95627000D02*
X178726000Y-95581000D01*
X181070000Y-97925000D02*
X181035000Y-97889000D01*
X178966000Y-95411000D02*
X178931000Y-95376000D01*
X181275000Y-97719000D02*
X181228000Y-97673000D01*
X173773000Y-95627000D02*
X173726000Y-95581000D01*
X176070000Y-97925000D02*
X176035000Y-97889000D01*
X173966000Y-95411000D02*
X173931000Y-95376000D01*
X176275000Y-97719000D02*
X176228000Y-97673000D01*
X168773000Y-95627000D02*
X168726000Y-95581000D01*
X171070000Y-97925000D02*
X171035000Y-97889000D01*
X168966000Y-95411000D02*
X168931000Y-95376000D01*
X171275000Y-97719000D02*
X171228000Y-97673000D01*
X163773000Y-95627000D02*
X163726000Y-95581000D01*
X166070000Y-97925000D02*
X166035000Y-97889000D01*
X163966000Y-95411000D02*
X163931000Y-95376000D01*
X166275000Y-97719000D02*
X166228000Y-97673000D01*
X158773000Y-95627000D02*
X158726000Y-95581000D01*
X161070000Y-97925000D02*
X161035000Y-97889000D01*
X158966000Y-95411000D02*
X158931000Y-95376000D01*
X161275000Y-97719000D02*
X161228000Y-97673000D01*
X153773000Y-95627000D02*
X153726000Y-95581000D01*
X156070000Y-97925000D02*
X156035000Y-97889000D01*
X153966000Y-95411000D02*
X153931000Y-95376000D01*
X156275000Y-97719000D02*
X156228000Y-97673000D01*
X187560000Y-101911000D02*
X187560000Y-91990000D01*
X147440000Y-101911000D02*
X147440000Y-91990000D01*
X147440000Y-91990000D02*
X187560000Y-91990000D01*
X147440000Y-101911000D02*
X187560000Y-101911000D01*
X147440000Y-98951000D02*
X187560000Y-98951000D01*
X147440000Y-94050000D02*
X187560000Y-94050000D01*
X147440000Y-92550000D02*
X187560000Y-92550000D01*
X186680000Y-96650000D02*
G75*
G03*
X186680000Y-96650000I-1680000J0D01*
G01*
X181680000Y-96650000D02*
G75*
G03*
X181680000Y-96650000I-1680000J0D01*
G01*
X176680000Y-96650000D02*
G75*
G03*
X176680000Y-96650000I-1680000J0D01*
G01*
X171680000Y-96650000D02*
G75*
G03*
X171680000Y-96650000I-1680000J0D01*
G01*
X166680000Y-96650000D02*
G75*
G03*
X166680000Y-96650000I-1680000J0D01*
G01*
X161680000Y-96650000D02*
G75*
G03*
X161680000Y-96650000I-1680000J0D01*
G01*
X156680000Y-96650000D02*
G75*
G03*
X156680000Y-96650000I-1680000J0D01*
G01*
X150683318Y-95115244D02*
G75*
G03*
X150000000Y-94970000I-683318J-1534756D01*
G01*
X151535426Y-97333042D02*
G75*
G03*
X151535000Y-95966000I-1535426J683042D01*
G01*
X149316958Y-98185426D02*
G75*
G03*
X150684000Y-98185000I683042J1535426D01*
G01*
X148464574Y-95966958D02*
G75*
G03*
X148465000Y-97334000I1535426J-683042D01*
G01*
X150028805Y-94969747D02*
G75*
G03*
X149316000Y-95115000I-28805J-1680253D01*
G01*
M02*
